<svg width="24" height="24" viewBox="0 0 24 24" fill="none" xmlns="http://www.w3.org/2000/svg">
<path d="M0.976569 1.53836C0.858779 1.64565 0.745497 1.76242 0.588582 1.90492M0.974835 1.46398C0.843977 1.62088 0.712843 1.76142 0.628145 1.88211M2.21769 1.47685C1.95649 1.87137 1.64919 2.47554 0.472573 3.24718M2.15162 1.51753C1.86976 1.84723 1.51624 2.51578 0.742926 3.28166M3.1308 1.73516C2.69617 1.98603 2.0303 2.81896 0.724083 4.6651M3.36843 1.54102C2.6471 2.37811 2.1089 3.00295 0.602596 4.72188M4.41014 1.24788C3.20547 2.85789 1.81404 4.66717 0.418592 5.95254M4.55913 1.49966C3.80439 2.60961 2.61249 3.6752 0.653331 6.23309M6.17268 1.63606C4.52977 3.53827 2.12437 5.85532 0.226785 7.3173M6.05953 1.35402C4.6328 3.24815 3.1334 4.59453 0.771142 7.69768M7.06425 1.2718C4.60974 4.44713 2.9208 6.65353 0.533005 9.32916M7.13712 1.69252C5.24909 3.73328 2.90586 6.08945 0.504052 8.98271M8.28211 1.44321C6.1848 3.61093 4.88187 5.18019 1.07111 10.6823M8.29324 1.66774C5.63356 4.5279 3.31144 7.2475 0.640381 10.2118M9.20101 1.31254C7.30984 3.58025 5.13139 6.00474 0.380314 11.8053M9.70467 1.39871C6.60937 4.64478 4.20985 7.63797 0.752548 11.9246M11.0128 1.63991C7.84994 4.66495 5.02169 7.76461 0.644687 13.2339M10.8598 1.62344C7.29709 5.32554 3.97643 9.42336 0.816195 12.9509M11.6018 1.85622C7.96732 6.69102 3.61524 11.4199 0.423559 14.326M12.079 1.6238C7.97346 5.97422 3.93423 10.7956 0.490192 14.4957M12.8413 1.72102C9.93031 5.63867 6.75447 9.14336 0.479462 15.9547M13.0476 1.53206C10.326 4.93884 7.20587 8.54775 0.588575 15.7815M14.7079 1.68734C11.2702 4.63472 9.18965 7.57321 0.554277 17.469M14.2546 1.27878C9.59533 6.91961 4.61363 12.4274 0.719244 17.4339M16.0386 1.93718C10.0404 8.04062 4.44263 14.5525 0.456325 18.632M15.6047 1.59061C10.885 6.57144 6.50371 12.2727 0.779449 18.7311M17.1626 1.08806C13.2789 6.08848 9.07317 10.5013 0.793916 19.7663M16.7944 1.69316C13.0537 5.84261 9.45336 9.95975 0.482557 20.2015M17.7273 1.51448C14.9182 5.77095 10.7228 9.83221 0.506444 21.4553M18.3606 1.59429C14.4442 5.78508 11.0037 9.82196 0.802439 21.3919M19.5721 1.71005C14.3738 7.41145 9.62325 12.4719 0.252168 22.7939M19.2232 1.57623C15.0053 6.79983 10.1228 11.7575 0.793999 22.9649M20.7213 1.03156C13.29 9.5366 6.63133 17.7767 0.572465 24.8225M20.7184 1.427C12.8459 10.1676 5.26431 19.3463 0.422015 24.6168M21.8285 1.04643C17.3701 6.64823 13.5552 11.6109 1.61247 24.3578M21.6738 1.51724C13.891 10.6698 6.26306 19.9164 1.87159 24.7232M22.9603 1.3989C17.4072 7.8634 11.9663 14.0702 2.98737 24.4922M23.0366 1.28311C17.4438 8.05186 11.5593 14.6064 3.15847 24.7612M24.2268 2.1035C15.6525 11.2523 8.46785 20.3025 4.51288 24.1985M23.775 2.10167C17.0477 10.0782 10.0633 18.0443 4.06761 24.7907M23.6589 3.15432C19.7297 8.07525 15.1399 12.8062 5.6011 24.3445M23.6065 3.48506C18.7375 9.25751 13.6543 15.153 5.51802 24.4666M23.3801 4.62547C16.9081 12.7641 10.0144 20.0143 6.75919 24.7911M23.777 4.73343C19.4997 10.0033 14.9606 14.7625 6.79858 24.4538M24.1056 6.17622C19.7143 11.0859 15.4246 16.7177 8.05024 24.1333M23.6478 6.35889C18.2417 12.6686 12.3163 19.2536 7.7495 24.709M24.2196 7.48784C20.8189 11.4179 17.0301 15.6008 8.98659 24.3736M23.5643 7.52695C20.0437 12.1229 16.284 16.5035 8.98256 24.5248M24.0739 8.81981C19.366 14.8659 14.3737 20.0357 10.402 24.5663M23.6588 9.2654C18.5017 15.0894 13.4284 21.0258 10.3019 24.413M23.8316 10.3931C20.6222 14.3451 17.9105 17.3276 11.4197 25.0316M23.8456 10.6429C19.4243 15.8254 14.9789 20.9618 11.5347 24.3904M23.6781 12.1154C20.8101 15.9555 17.0548 19.052 12.7338 24.4973M23.8806 11.9984C20.8643 15.2197 17.8419 18.6683 12.8402 24.631M23.4568 12.9649C19.8264 17.2589 16.2682 22.1154 13.7919 24.8137M23.5894 13.1786C21.1094 16.3409 18.8278 19.0735 13.8203 24.7933M23.794 15.0332C21.4904 17.55 19.1811 20.3828 14.8164 24.5767M23.7444 14.7292C20.5084 18.2864 17.5117 21.8928 15.351 24.7601M23.7835 15.8729C21.1817 18.4514 19.2433 21.5378 16.0519 24.9818M23.6745 15.9802C21.0125 18.9899 18.9084 21.7161 16.6239 24.7705M23.3247 17.2746C22.1701 18.8642 20.8284 20.6751 17.8167 24.4308M23.7215 17.5525C22.4063 19.4735 20.8883 21.427 17.6891 24.6335M23.7526 18.6655C22.1403 20.477 20.6592 22.8473 19.0145 24.9707M23.7217 18.7895C21.9408 21.1163 20.0273 23.2719 19.0156 24.3487M23.9571 20.3604C22.8377 21.7908 21.2155 23.2538 20.3347 24.1583M23.6155 20.3054C23.1805 21.3426 22.1633 21.9828 20.3387 24.7933M23.5917 21.5662C22.9234 22.2071 22.3941 22.9963 20.9807 24.6761M23.8543 21.6838C22.7529 22.7583 21.8771 23.9405 21.4351 24.7341M23.9184 23.0987C23.4044 23.5061 23.1541 23.9624 22.5033 24.6746M23.7657 23.1479C23.3693 23.6093 23.0196 23.9329 22.6573 24.5673" stroke="#3355AA" stroke-width="0.3"/>
</svg>
