<svg width="100" height="24" viewBox="0 0 100 24" fill="none" xmlns="http://www.w3.org/2000/svg">
<path d="M31.2104 2.375C30.7392 2.375 30.2675 2.44222 29.8151 2.57422C20.4493 5.30724 14.8224 7.30993 6.08966 11.0883C5.29049 11.4341 5.29111 12.5647 6.0907 12.9095C14.6329 16.5931 20.3188 18.6115 29.806 21.4201C30.2643 21.5558 30.7427 21.625 31.2207 21.625H75.5V2.375H31.2104Z" fill="#3355AA"/>
<path d="M75.5 2.375H31.2104C30.7392 2.375 30.2675 2.44222 29.8151 2.57422C20.4493 5.30724 14.8224 7.30993 6.08966 11.0883C5.29049 11.4341 5.29111 12.5647 6.0907 12.9095C14.6329 16.5931 20.3188 18.6115 29.806 21.4201C30.2643 21.5558 30.7427 21.625 31.2207 21.625H75.5M75.5 2.375H95.5711C96.0948 2.375 96.5302 2.78107 96.567 3.3035C97.0357 9.94955 97.0673 14.0543 96.571 20.7017C96.5322 21.2219 96.0976 21.625 95.5759 21.625H75.5M75.5 2.375V21.625M84.5 1H31.1854C30.7306 1 30.274 1.06296 29.8361 1.18607C18.71 4.31449 12.3478 6.61979 2.87502 11.1038C2.1177 11.4623 2.1188 12.5365 2.87639 12.8945C12.5648 17.4717 18.9028 19.7822 29.8444 22.8187C30.2769 22.9387 30.7275 23 31.1763 23H97.068C97.593 23 98.029 22.5925 98.0641 22.0687C98.5769 14.4243 98.5485 9.71482 98.06 1.93635C98.027 1.41041 97.5902 1 97.0632 1H84.5Z" stroke="#3355AA" stroke-width="0.5" />
<rect x="77.25" y="4.25" width="9.5" height="15.5" rx="0.25" stroke="#3355AA" stroke-width="0.5" />
<mask id="path-4-inside-1_5_20" fill="white">
<rect x="90" y="4" width="4" height="4" rx="0.2"/>
</mask>
<rect x="90" y="4" width="4" height="4" rx="0.2" stroke="#3355AA" mask="url(#path-4-inside-1_5_20)"/>
<mask id="path-5-inside-2_5_20" fill="white">
<rect x="90" y="10" width="4" height="4" rx="0.2"/>
</mask>
<rect x="90" y="10" width="4" height="4" rx="0.2" stroke="#3355AA" mask="url(#path-5-inside-2_5_20)"/>
<mask id="path-6-inside-3_5_20" fill="white">
<rect x="90" y="16" width="4" height="4" rx="0.2"/>
</mask>
<rect x="90" y="16" width="4" height="4" rx="0.2" stroke="#3355AA" mask="url(#path-6-inside-3_5_20)"/>
<circle cx="92" cy="6" r="0.9" fill="#3355AA" stroke="#3355AA" stroke-width="0.2"/>
<circle cx="92" cy="12" r="0.9" fill="#3355AA" stroke="#3355AA" stroke-width="0.2"/>
<circle cx="92" cy="18" r="0.9" fill="#3355AA" stroke="#3355AA" stroke-width="0.2"/>
<path d="M77.293 4.28693C77.2652 4.32161 77.2151 4.39376 77.1381 4.56923M77.295 4.28022C77.2568 4.36089 77.1996 4.44676 77.1502 4.5328M77.7514 4.24832C77.5909 4.62345 77.4088 5.23697 77.1547 5.45612M77.7728 4.27351C77.67 4.60702 77.4898 4.91089 77.1483 5.48242M78.2264 4.40953C78.0654 4.77309 77.6864 5.74259 77.2514 6.43637M78.3893 4.28031C77.8596 5.1213 77.461 5.69726 77.1107 6.29373M78.9347 4.38569C78.3725 5.44207 77.5441 6.33678 77.0618 7.23986M78.8111 4.31877C78.4336 5.03945 78.1309 5.62809 77.23 7.47472M79.5317 4.31312C78.8079 5.76799 78.0302 6.50533 77.1188 8.31596M79.3969 4.17135C78.7161 5.66242 77.9558 6.8437 77.0727 8.3189M79.7432 4.37791C78.8901 5.79457 78.0006 7.74828 77.2889 8.94574M79.9483 4.16799C78.9935 5.74758 78.3594 6.92665 77.205 9.17974M80.3184 4.20323C79.667 5.84107 78.8458 7.39425 77.0172 10.1622M80.4542 4.3412C79.2017 6.49119 78.0461 8.48064 77.1118 10.033M80.7936 4.44192C80.0148 5.7162 79.1313 7.77369 77.0153 10.9065M80.7923 4.15123C79.9221 6.01271 79.0822 7.75775 77.0629 11.0983M81.3121 4.47659C80.1404 6.59336 78.7182 9.46007 77.1596 12.2452M81.4333 4.37143C79.6892 7.39289 78.1431 10.4503 77.0594 12.0394M81.729 4.55394C79.9954 7.65981 78.0835 11.0587 77.0839 12.915M81.8146 4.30762C80.2443 7.21999 78.6158 10.4198 77.0929 13.0549M82.374 4.13409C80.8361 7.24869 79.1399 10.8851 77.1979 13.8528M82.496 4.40051C80.4543 8.08605 78.2995 11.5631 77.0745 13.8492M83.0229 4C81.0635 7.17535 79.2393 10.8412 77 14.9017M83.0054 4.42245C81.6778 6.41828 80.6232 8.60213 77.1447 14.9517M83.4073 4.4088C82.0574 7.03472 80.9144 9.58902 77.1435 15.9768M83.5387 4.12588C81.1094 8.44433 78.6293 13.0586 77.2303 15.9885M83.8241 4.38712C82.3755 7.19082 80.971 9.67477 77.1061 16.5307M83.8832 4.26721C81.7686 8.20697 79.5809 12.3405 77.1255 16.6727M84.3497 4.47902C83.0786 6.83334 81.3042 9.34919 77.0403 17.4272M84.4911 4.38609C81.7541 9.40052 79.1803 14.4227 77.1235 17.7212M84.9802 4.37171C83.1065 7.42067 81.4982 11.0569 77.015 18.5282M84.9892 4.19215C82.4682 8.96253 79.9609 13.3952 77.062 18.6026M85.386 4.54588C83.2729 8.45841 80.7297 13.199 77.0984 19.6989M85.5326 4.17219C82.7977 9.02598 80.1673 13.8181 77.1403 19.5437M86.0911 4.32321C83.2536 9.06463 80.7155 14.0735 77.6039 19.7093M85.9444 4.35687C83.177 9.11929 80.5882 14.264 77.6998 19.8326M86.3668 4.22149C83.7782 9.20709 81.0231 14.4268 78.3067 19.7149M86.5257 4.35113C84.6368 7.35151 82.891 10.9086 78.0927 19.6834M86.6783 4.64736C85.106 7.53275 83.3319 10.6142 78.619 19.5748M86.729 4.80254C84.9658 8.05256 83.1989 11.2278 78.6317 19.5775M86.6463 5.41396C84.0823 10.6815 81.0353 15.7833 79.2878 20M86.9014 5.68439C84.1139 10.661 81.5606 15.5268 79.0738 19.7875M86.9836 6.85429C85.1713 9.50942 83.4744 12.5778 79.5433 19.9259M86.8514 6.48129C84.513 11.011 82.1437 15.4034 79.7451 19.763M86.8255 7.78772C85.3972 10.0034 84.2478 12.3891 80.1785 19.8796M86.755 7.56155C84.5261 11.8112 82.0184 16.1153 80.1661 19.7993M86.6406 8.49219C85.0489 11.0407 83.7701 13.9401 80.6973 19.7447M86.7773 8.36729C84.9477 11.8563 83.1245 15.3646 80.6922 19.724M86.6723 9.19153C84.9124 12.9509 83.0625 16.629 81.2278 19.7559M86.8207 9.42057C85.5326 11.438 84.4806 13.9096 81.1694 19.727M86.9245 10.5422C85.4267 12.6901 84.201 15.304 81.8891 19.9596M86.7567 10.3014C85.03 13.4335 83.3986 16.6843 81.6464 19.7941M86.6354 11.3718C85.4793 13.5162 84.4909 15.2747 82.0643 19.6237M86.9051 11.2856C84.9365 14.5531 83.1854 17.994 82.2034 19.7879M86.6756 11.9755C86.0148 13.7181 85.0033 15.6098 82.7309 19.5754M86.7217 12.1354C85.3818 14.8614 83.9438 17.5321 82.8128 19.7267M86.8599 13.4378C85.4484 15.3499 84.2674 17.523 83.1948 19.438M86.7877 13.0489C85.7916 15.2136 84.5065 17.345 83.2305 19.7969M86.6986 13.7753C85.6681 15.9694 84.3971 18.1574 83.6005 19.4771M86.8417 14.0537C85.576 16.3801 84.4043 18.2445 83.6777 19.7237M87 15.1236C86.0706 16.9799 85.0679 18.5385 84.3962 19.7987M86.8894 15.0066C85.8768 16.5596 85.1027 18.1774 84.1698 19.846M86.723 16.1987C85.9563 17.3375 85.5211 18.6153 84.9589 19.9364M86.7221 16.0719C86.3194 16.8603 85.6818 18.0693 84.816 19.8568M86.7948 16.8403C86.2253 17.681 85.8793 18.9996 85.3833 19.6778M86.8772 17.0555C86.5474 17.4044 86.1263 18.265 85.3008 19.6867M86.7998 18.0495C86.5755 18.0812 86.3035 18.5089 85.9342 19.7476M86.7838 17.8956C86.5774 18.2895 86.1906 18.8865 85.8184 19.7194M86.7384 18.9058C86.7619 18.9858 86.6846 19.051 86.333 19.6881M86.8389 18.7572C86.6529 19.1287 86.466 19.4321 86.2799 19.7094" stroke="#3355AA" stroke-width="0.1"/>
<rect x="79.25" y="6.25" width="6.5" height="11.5" rx="0.25" fill="white" stroke="#3355AA" stroke-width="0.5"/>
<path d="M90.1172 4.07173C90.1061 4.0804 90.086 4.09844 90.0552 4.14231M90.118 4.07006C90.1027 4.09022 90.0799 4.11169 90.0601 4.1332M90.3006 4.06208C90.2364 4.15586 90.1635 4.30924 90.0619 4.36403M90.3091 4.06838C90.268 4.15176 90.1959 4.22772 90.0593 4.3706M90.4905 4.10238C90.4262 4.19327 90.2746 4.43565 90.1006 4.60909M90.5557 4.07008C90.3439 4.28033 90.1844 4.42432 90.0443 4.57343M90.7739 4.09642C90.549 4.36052 90.2176 4.58419 90.0247 4.80996M90.7245 4.07969C90.5734 4.25986 90.4524 4.40702 90.092 4.86868M91.0127 4.07828C90.7231 4.442 90.4121 4.62633 90.0475 5.07899M90.9588 4.04284C90.6864 4.41561 90.3823 4.71092 90.0291 5.07972M91.0973 4.09448C90.756 4.44864 90.4002 4.93707 90.1156 5.23643M91.1793 4.042C90.7974 4.4369 90.5438 4.73166 90.082 5.29493M91.3274 4.05081C91.0668 4.46027 90.7383 4.84856 90.0069 5.54054M91.3817 4.0853C90.8807 4.6228 90.4184 5.12016 90.0447 5.50824M91.5174 4.11048C91.2059 4.42905 90.8525 4.94342 90.0061 5.72662M91.5169 4.03781C91.1688 4.50318 90.8329 4.93944 90.0252 5.77457M91.7248 4.11915C91.2562 4.64834 90.6873 5.36502 90.0638 6.0613M91.7733 4.09286C91.0757 4.84822 90.4572 5.61258 90.0238 6.00984M91.8916 4.13848C91.1982 4.91495 90.4334 5.76468 90.0335 6.22874M91.9258 4.07691C91.2977 4.805 90.6463 5.60494 90.0372 6.26373M92.1496 4.03352C91.5345 4.81217 90.8559 5.72128 90.0792 6.46321M92.1984 4.10013C91.3817 5.02151 90.5198 5.89077 90.0298 6.46229M92.4092 4C91.6254 4.79384 90.8957 5.7103 90 6.72543M92.4022 4.10561C91.8711 4.60457 91.4493 5.15053 90.0579 6.73792M92.5629 4.1022C92.0229 4.75868 91.5658 5.39726 90.0574 6.9942M92.6155 4.03147C91.6437 5.11108 90.6517 6.26464 90.0921 6.99711M92.7297 4.09678C92.1502 4.79771 91.5884 5.41869 90.0424 7.13267M92.7533 4.0668C91.9074 5.05174 91.0324 6.08514 90.0502 7.16817M92.9399 4.11976C92.4314 4.70833 91.7217 5.3373 90.0161 7.35679M92.9964 4.09652C91.9016 5.35013 90.8721 6.60567 90.0494 7.43029M93.1921 4.09293C92.4426 4.85517 91.7993 5.76422 90.006 7.63205M93.1957 4.04804C92.1873 5.24063 91.1843 6.34881 90.0248 7.65064M93.3544 4.13647C92.5092 5.1146 91.4919 6.29975 90.0393 7.92473M93.413 4.04305C92.3191 5.25649 91.2669 6.45453 90.0561 7.88592M93.6364 4.0808C92.5014 5.26616 91.4862 6.51836 90.2416 7.92734M93.5778 4.08922C92.4708 5.27982 91.4353 6.56601 90.2799 7.95815M93.7467 4.05537C92.7113 5.30177 91.6092 6.60669 90.5227 7.92874M93.8103 4.08778C93.0547 4.83788 92.3564 5.72716 90.4371 7.92086M93.8713 4.16184C93.2424 4.88319 92.5327 5.65355 90.6476 7.8937M93.8916 4.20064C93.1863 5.01314 92.4796 5.80695 90.6527 7.89437M93.8585 4.35349C92.8329 5.67038 91.6141 6.94583 90.9151 8M93.9606 4.4211C92.8455 5.66524 91.8243 6.8817 90.8295 7.94688M93.9934 4.71357C93.2685 5.37735 92.5898 6.14445 91.0173 7.98147M93.9406 4.62032C93.0052 5.75275 92.0575 6.85085 91.098 7.94076M93.9302 4.94693C93.3589 5.50085 92.8991 6.09728 91.2714 7.96989M93.902 4.89039C93.0104 5.95279 92.0073 7.02883 91.2664 7.94983M93.8562 5.12305C93.2195 5.76018 92.708 6.48503 91.4789 7.93617M93.9109 5.09182C93.1791 5.96408 92.4498 6.84116 91.4769 7.931M93.8689 5.29788C93.165 6.23771 92.425 7.15724 91.6911 7.93898M93.9283 5.35514C93.413 5.85951 92.9922 6.4774 91.6678 7.93176M93.9698 5.63556C93.3707 6.17254 92.8804 6.826 91.9556 7.98989M93.9027 5.57534C93.212 6.35839 92.5594 7.17108 91.8585 7.94853M93.8542 5.84295C93.3917 6.37905 92.9964 6.81868 92.0257 7.90593M93.962 5.8214C93.1746 6.63826 92.4742 7.49851 92.0813 7.94697M93.8703 5.99387C93.6059 6.42952 93.2013 6.90244 92.2923 7.89386M93.8887 6.03385C93.3527 6.71535 92.7775 7.38303 92.3251 7.93168M93.944 6.35944C93.3794 6.83748 92.907 7.38076 92.4779 7.85949M93.9151 6.26224C93.5167 6.8034 93.0026 7.33624 92.4922 7.94922M93.8794 6.44382C93.4672 6.99234 92.9588 7.53934 92.6402 7.86927M93.9367 6.51344C93.4304 7.09503 92.9617 7.56112 92.6711 7.93093M94 6.7809C93.6282 7.24498 93.2272 7.63464 92.9585 7.94967M93.9557 6.75164C93.5507 7.1399 93.2411 7.54434 92.8679 7.9615M93.8892 7.04968C93.5825 7.33437 93.4084 7.65383 93.1836 7.9841M93.8888 7.01797C93.7277 7.21507 93.4727 7.51732 93.1264 7.96419M93.9179 7.21007C93.6901 7.42024 93.5517 7.74991 93.3533 7.91945M93.9509 7.26388C93.8189 7.35111 93.6505 7.56625 93.3203 7.92168M93.9199 7.51236C93.8302 7.5203 93.7214 7.62723 93.5737 7.93689M93.9135 7.47389C93.831 7.57238 93.6762 7.72162 93.5273 7.92986M93.8954 7.72645C93.9048 7.74644 93.8739 7.76274 93.7332 7.92202M93.9356 7.68931C93.8612 7.78219 93.7864 7.85802 93.712 7.92735" stroke="#3355AA" stroke-width="0.05"/>
<path d="M90.1172 10.0717C90.1061 10.0804 90.086 10.0984 90.0552 10.1423M90.118 10.0701C90.1027 10.0902 90.0799 10.1117 90.0601 10.1332M90.3006 10.0621C90.2364 10.1559 90.1635 10.3092 90.0619 10.364M90.3091 10.0684C90.268 10.1518 90.1959 10.2277 90.0593 10.3706M90.4905 10.1024C90.4262 10.1933 90.2746 10.4356 90.1006 10.6091M90.5557 10.0701C90.3439 10.2803 90.1844 10.4243 90.0443 10.5734M90.7739 10.0964C90.549 10.3605 90.2176 10.5842 90.0247 10.81M90.7245 10.0797C90.5734 10.2599 90.4524 10.407 90.092 10.8687M91.0127 10.0783C90.7231 10.442 90.4121 10.6263 90.0475 11.079M90.9588 10.0428C90.6864 10.4156 90.3823 10.7109 90.0291 11.0797M91.0973 10.0945C90.756 10.4486 90.4002 10.9371 90.1156 11.2364M91.1793 10.042C90.7974 10.4369 90.5438 10.7317 90.082 11.2949M91.3274 10.0508C91.0668 10.4603 90.7383 10.8486 90.0069 11.5405M91.3817 10.0853C90.8807 10.6228 90.4184 11.1202 90.0447 11.5082M91.5174 10.1105C91.2059 10.4291 90.8525 10.9434 90.0061 11.7266M91.5169 10.0378C91.1688 10.5032 90.8329 10.9394 90.0252 11.7746M91.7248 10.1191C91.2562 10.6483 90.6873 11.365 90.0638 12.0613M91.7733 10.0929C91.0757 10.8482 90.4572 11.6126 90.0238 12.0098M91.8916 10.1385C91.1982 10.915 90.4334 11.7647 90.0335 12.2287M91.9258 10.0769C91.2977 10.805 90.6463 11.6049 90.0372 12.2637M92.1496 10.0335C91.5345 10.8122 90.8559 11.7213 90.0792 12.4632M92.1984 10.1001C91.3817 11.0215 90.5198 11.8908 90.0298 12.4623M92.4092 10C91.6254 10.7938 90.8957 11.7103 90 12.7254M92.4022 10.1056C91.8711 10.6046 91.4493 11.1505 90.0579 12.7379M92.5629 10.1022C92.0229 10.7587 91.5658 11.3973 90.0574 12.9942M92.6155 10.0315C91.6437 11.1111 90.6517 12.2646 90.0921 12.9971M92.7297 10.0968C92.1502 10.7977 91.5884 11.4187 90.0424 13.1327M92.7533 10.0668C91.9074 11.0517 91.0324 12.0851 90.0502 13.1682M92.9399 10.1198C92.4314 10.7083 91.7217 11.3373 90.0161 13.3568M92.9964 10.0965C91.9016 11.3501 90.8721 12.6057 90.0494 13.4303M93.1921 10.0929C92.4426 10.8552 91.7993 11.7642 90.006 13.6321M93.1957 10.048C92.1873 11.2406 91.1843 12.3488 90.0248 13.6506M93.3544 10.1365C92.5092 11.1146 91.4919 12.2998 90.0393 13.9247M93.413 10.043C92.3191 11.2565 91.2669 12.4545 90.0561 13.8859M93.6364 10.0808C92.5014 11.2662 91.4862 12.5184 90.2416 13.9273M93.5778 10.0892C92.4708 11.2798 91.4353 12.566 90.2799 13.9581M93.7467 10.0554C92.7113 11.3018 91.6092 12.6067 90.5227 13.9287M93.8103 10.0878C93.0547 10.8379 92.3564 11.7272 90.4371 13.9209M93.8713 10.1618C93.2424 10.8832 92.5327 11.6535 90.6476 13.8937M93.8916 10.2006C93.1863 11.0131 92.4796 11.8069 90.6527 13.8944M93.8585 10.3535C92.8329 11.6704 91.6141 12.9458 90.9151 14M93.9606 10.4211C92.8455 11.6652 91.8243 12.8817 90.8295 13.9469M93.9934 10.7136C93.2685 11.3774 92.5898 12.1444 91.0173 13.9815M93.9406 10.6203C93.0052 11.7527 92.0575 12.8509 91.098 13.9408M93.9302 10.9469C93.3589 11.5009 92.8991 12.0973 91.2714 13.9699M93.902 10.8904C93.0104 11.9528 92.0073 13.0288 91.2664 13.9498M93.8562 11.123C93.2195 11.7602 92.708 12.485 91.4789 13.9362M93.9109 11.0918C93.1791 11.9641 92.4498 12.8412 91.4769 13.931M93.8689 11.2979C93.165 12.2377 92.425 13.1572 91.6911 13.939M93.9283 11.3551C93.413 11.8595 92.9922 12.4774 91.6678 13.9318M93.9698 11.6356C93.3707 12.1725 92.8804 12.826 91.9556 13.9899M93.9027 11.5753C93.212 12.3584 92.5594 13.1711 91.8585 13.9485M93.8542 11.843C93.3917 12.379 92.9964 12.8187 92.0257 13.9059M93.962 11.8214C93.1746 12.6383 92.4742 13.4985 92.0813 13.947M93.8703 11.9939C93.6059 12.4295 93.2013 12.9024 92.2923 13.8939M93.8887 12.0338C93.3527 12.7153 92.7775 13.383 92.3251 13.9317M93.944 12.3594C93.3794 12.8375 92.907 13.3808 92.4779 13.8595M93.9151 12.2622C93.5167 12.8034 93.0026 13.3362 92.4922 13.9492M93.8794 12.4438C93.4672 12.9923 92.9588 13.5393 92.6402 13.8693M93.9367 12.5134C93.4304 13.095 92.9617 13.5611 92.6711 13.9309M94 12.7809C93.6282 13.245 93.2272 13.6346 92.9585 13.9497M93.9557 12.7516C93.5507 13.1399 93.2411 13.5443 92.8679 13.9615M93.8892 13.0497C93.5825 13.3344 93.4084 13.6538 93.1836 13.9841M93.8888 13.018C93.7277 13.2151 93.4727 13.5173 93.1264 13.9642M93.9179 13.2101C93.6901 13.4202 93.5517 13.7499 93.3533 13.9195M93.9509 13.2639C93.8189 13.3511 93.6505 13.5662 93.3203 13.9217M93.9199 13.5124C93.8302 13.5203 93.7214 13.6272 93.5737 13.9369M93.9135 13.4739C93.831 13.5724 93.6762 13.7216 93.5273 13.9299M93.8954 13.7265C93.9048 13.7464 93.8739 13.7627 93.7332 13.922M93.9356 13.6893C93.8612 13.7822 93.7864 13.858 93.712 13.9273" stroke="#3355AA" stroke-width="0.05"/>
<path d="M90.1172 16.0717C90.1061 16.0804 90.086 16.0984 90.0552 16.1423M90.118 16.0701C90.1027 16.0902 90.0799 16.1117 90.0601 16.1332M90.3006 16.0621C90.2364 16.1559 90.1635 16.3092 90.0619 16.364M90.3091 16.0684C90.268 16.1518 90.1959 16.2277 90.0593 16.3706M90.4905 16.1024C90.4262 16.1933 90.2746 16.4356 90.1006 16.6091M90.5557 16.0701C90.3439 16.2803 90.1844 16.4243 90.0443 16.5734M90.7739 16.0964C90.549 16.3605 90.2176 16.5842 90.0247 16.81M90.7245 16.0797C90.5734 16.2599 90.4524 16.407 90.092 16.8687M91.0127 16.0783C90.7231 16.442 90.4121 16.6263 90.0475 17.079M90.9588 16.0428C90.6864 16.4156 90.3823 16.7109 90.0291 17.0797M91.0973 16.0945C90.756 16.4486 90.4002 16.9371 90.1156 17.2364M91.1793 16.042C90.7974 16.4369 90.5438 16.7317 90.082 17.2949M91.3274 16.0508C91.0668 16.4603 90.7383 16.8486 90.0069 17.5405M91.3817 16.0853C90.8807 16.6228 90.4184 17.1202 90.0447 17.5082M91.5174 16.1105C91.2059 16.4291 90.8525 16.9434 90.0061 17.7266M91.5169 16.0378C91.1688 16.5032 90.8329 16.9394 90.0252 17.7746M91.7248 16.1191C91.2562 16.6483 90.6873 17.365 90.0638 18.0613M91.7733 16.0929C91.0757 16.8482 90.4572 17.6126 90.0238 18.0098M91.8916 16.1385C91.1982 16.915 90.4334 17.7647 90.0335 18.2287M91.9258 16.0769C91.2977 16.805 90.6463 17.6049 90.0372 18.2637M92.1496 16.0335C91.5345 16.8122 90.8559 17.7213 90.0792 18.4632M92.1984 16.1001C91.3817 17.0215 90.5198 17.8908 90.0298 18.4623M92.4092 16C91.6254 16.7938 90.8957 17.7103 90 18.7254M92.4022 16.1056C91.8711 16.6046 91.4493 17.1505 90.0579 18.7379M92.5629 16.1022C92.0229 16.7587 91.5658 17.3973 90.0574 18.9942M92.6155 16.0315C91.6437 17.1111 90.6517 18.2646 90.0921 18.9971M92.7297 16.0968C92.1502 16.7977 91.5884 17.4187 90.0424 19.1327M92.7533 16.0668C91.9074 17.0517 91.0324 18.0851 90.0502 19.1682M92.9399 16.1198C92.4314 16.7083 91.7217 17.3373 90.0161 19.3568M92.9964 16.0965C91.9016 17.3501 90.8721 18.6057 90.0494 19.4303M93.1921 16.0929C92.4426 16.8552 91.7993 17.7642 90.006 19.6321M93.1957 16.048C92.1873 17.2406 91.1843 18.3488 90.0248 19.6506M93.3544 16.1365C92.5092 17.1146 91.4919 18.2998 90.0393 19.9247M93.413 16.043C92.3191 17.2565 91.2669 18.4545 90.0561 19.8859M93.6364 16.0808C92.5014 17.2662 91.4862 18.5184 90.2416 19.9273M93.5778 16.0892C92.4708 17.2798 91.4353 18.566 90.2799 19.9581M93.7467 16.0554C92.7113 17.3018 91.6092 18.6067 90.5227 19.9287M93.8103 16.0878C93.0547 16.8379 92.3564 17.7272 90.4371 19.9209M93.8713 16.1618C93.2424 16.8832 92.5327 17.6535 90.6476 19.8937M93.8916 16.2006C93.1863 17.0131 92.4796 17.8069 90.6527 19.8944M93.8585 16.3535C92.8329 17.6704 91.6141 18.9458 90.9151 20M93.9606 16.4211C92.8455 17.6652 91.8243 18.8817 90.8295 19.9469M93.9934 16.7136C93.2685 17.3774 92.5898 18.1444 91.0173 19.9815M93.9406 16.6203C93.0052 17.7527 92.0575 18.8509 91.098 19.9408M93.9302 16.9469C93.3589 17.5009 92.8991 18.0973 91.2714 19.9699M93.902 16.8904C93.0104 17.9528 92.0073 19.0288 91.2664 19.9498M93.8562 17.123C93.2195 17.7602 92.708 18.485 91.4789 19.9362M93.9109 17.0918C93.1791 17.9641 92.4498 18.8412 91.4769 19.931M93.8689 17.2979C93.165 18.2377 92.425 19.1572 91.6911 19.939M93.9283 17.3551C93.413 17.8595 92.9922 18.4774 91.6678 19.9318M93.9698 17.6356C93.3707 18.1725 92.8804 18.826 91.9556 19.9899M93.9027 17.5753C93.212 18.3584 92.5594 19.1711 91.8585 19.9485M93.8542 17.843C93.3917 18.379 92.9964 18.8187 92.0257 19.9059M93.962 17.8214C93.1746 18.6383 92.4742 19.4985 92.0813 19.947M93.8703 17.9939C93.6059 18.4295 93.2013 18.9024 92.2923 19.8939M93.8887 18.0338C93.3527 18.7153 92.7775 19.383 92.3251 19.9317M93.944 18.3594C93.3794 18.8375 92.907 19.3808 92.4779 19.8595M93.9151 18.2622C93.5167 18.8034 93.0026 19.3362 92.4922 19.9492M93.8794 18.4438C93.4672 18.9923 92.9588 19.5393 92.6402 19.8693M93.9367 18.5134C93.4304 19.095 92.9617 19.5611 92.6711 19.9309M94 18.7809C93.6282 19.245 93.2272 19.6346 92.9585 19.9497M93.9557 18.7516C93.5507 19.1399 93.2411 19.5443 92.8679 19.9615M93.8892 19.0497C93.5825 19.3344 93.4084 19.6538 93.1836 19.9841M93.8888 19.018C93.7277 19.2151 93.4727 19.5173 93.1264 19.9642M93.9179 19.2101C93.6901 19.4202 93.5517 19.7499 93.3533 19.9195M93.9509 19.2639C93.8189 19.3511 93.6505 19.5662 93.3203 19.9217M93.9199 19.5124C93.8302 19.5203 93.7214 19.6272 93.5737 19.9369M93.9135 19.4739C93.831 19.5724 93.6762 19.7216 93.5273 19.9299M93.8954 19.7265C93.9048 19.7464 93.8739 19.7627 93.7332 19.922M93.9356 19.6893C93.8612 19.7822 93.7864 19.858 93.712 19.9273" stroke="#3355AA" stroke-width="0.05"/>
<path d="M14 12H21M25 12H32M36 12H43M47 12H54M58 12H65M69 12H76" stroke="white" stroke-width="0.5"/>
<path d="M56.4032 13.6251V13.6251C54.8634 13.5285 54.8647 11.2327 56.4032 11.1175V11.1175C59.248 10.9507 60.8424 10.9713 63.6874 11.1175C68.7593 12.0798 68.8091 12.6437 63.6874 13.6251C60.8533 13.7924 59.2586 13.7873 56.4032 13.6251Z" fill="#D9D9D9"/>
</svg>
