<svg xmlns="http://www.w3.org/2000/svg" width="73" height="76" fill="none">
  <g filter="url(#a)">
    <path fill="#fff" d="M21.623 3.188a11.033 11.033 0 0 1-.28-.02c-.38-.029-.818-.062-1.116.046-.684.249-1.154.762-1.622 1.271l-.09.098c-.012.014-.04.05-.072.095-.084.113-.207.28-.248.28-.262 0-.571-.473-.78-.793-.066-.102-.122-.188-.164-.239-.14-.171-.284-.34-.429-.508a12.51 12.51 0 0 1-.802-.998c-.03-.044-.056-.086-.08-.126-.103-.166-.183-.294-.416-.294-.342 0-.672.23-.995.457-.359.251-.71.497-1.059.415-.746-.174-1.796-.188-2.484.166-.414.213-.752.164-1.146.106-.133-.02-.271-.04-.421-.051-.7-.054-1.202.313-1.723.75-.057.049-.115.112-.175.178-.186.202-.393.427-.653.292-.216-.113-.402-.301-.591-.492-.297-.301-.6-.607-1.031-.629-.303-.015.038.807.122 1.012l.016.037c.186.476.197 1.647-.094 2.076-.196.288-.317.332-.484.394-.09.033-.195.072-.333.157-.21.13-.47.212-.735.294-.379.119-.763.239-1.01.507-.158.173 1.086 1.402 1.857 2.162.279.276.496.49.561.57.091.112.184.174.277.238.055.037.11.074.165.121.186.16-.167.569-.33.76-.03.034-.055.062-.068.079l-.087.117c-.431.58-.868 1.168-1.37 1.688-.645.67-1.145 2.282-.033 2.749.415.174.179.563-.039.92-.083.137-.164.269-.204.383-.127.361-.087.696-.046 1.049.017.14.034.282.04.43.007.135.006.27.005.403-.004.62-.009 1.193.719 1.462.107.04.236.069.37.099.263.058.544.12.712.277.127.118-.2.467-.358.637l-.073.08c-.048.062-.118.142-.2.235-.248.286-.609.698-.802 1.1h17.799V3.188ZM3.952 24.172h17.671V46.82H4.353c.207-.838.237-1.644.098-2.572-.017-.114-.049-.242-.082-.377-.075-.31-.159-.651-.095-.915.033-.137.08-.27.126-.404.055-.158.11-.317.145-.485l.052-.258c.192-.934.396-1.931.45-2.871.027-.467.262-.892.489-1.3.052-.094.103-.187.151-.279.205-.39.415-.78.624-1.167.187-.347.374-.693.557-1.04l.07-.125c.175-.305.492-.858.212-1.035-.884-.56-1.929-.985-2.909-1.347l-.09-.033c-.337-.121-.43-.154-.17-.535.068-.1.143-.198.218-.296.235-.308.475-.624.528-1.013.05-.37-.063-.6-.178-.835-.082-.167-.166-.337-.192-.561-.078-.66-.052-1.33-.026-2.002.022-.584.044-1.169-.002-1.746a5.612 5.612 0 0 1-.01-.411c0-.312 0-.651-.089-.892-.028-.076-.12-.103-.212-.13a1.847 1.847 0 0 1-.066-.02ZM4.053 47.765h17.57V66.28a1.133 1.133 0 0 0-.193-.18c-.233-.169-.62-.146-.941-.126-.095.006-.184.01-.262.01h-1.8c-.143 0-.345.017-.58.035-.867.068-2.174.17-2.533-.365-.417-.621-.745-.45-1.27-.175-.127.066-.265.139-.42.208-.89.398-1.769.811-2.649 1.23a6.75 6.75 0 0 0-.327.174c-.394.218-.899.497-1.246.456-.123-.015-.1-.362-.087-.54l.004-.084c0-.075.008-.172.017-.278.022-.278.05-.62-.044-.798-.136-.259-.667-.235-1.18-.213-.53.024-1.043.047-1.078-.245-.06-.492-.142-.496-.475-.515-.114-.006-.256-.014-.436-.043-1.113-.179-1.396-.369-1.595-1.407a2.262 2.262 0 0 1-.027-.272c-.017-.279-.036-.594-.271-.7-.313-.14-.232-.282-.123-.472.067-.119.145-.255.145-.422 0-.336.068-.665.155-.988.012-.044.042-.115.076-.197.089-.207.208-.488.144-.604-.065-.118-.624-.09-.978-.073-.126.006-.227.01-.269.007-.307-.025-.558-.077-.822-.226-.029-.016-.084-.037-.148-.061-.17-.065-.41-.156-.41-.254 0-.187.233-.449.41-.648.062-.07.117-.131.153-.18a43.919 43.919 0 0 0 1.523-2.213c.387-.59.404-1.34.42-2.054.004-.205.009-.407.022-.601.008-.12.004-.249 0-.38-.007-.233-.014-.473.044-.68.1-.351.402-.636.682-.9.101-.096.2-.189.284-.281.304-.33.626-.647.948-.963a22.7 22.7 0 0 0 1.117-1.151c.389-.442.043-.43-.346-.418a6.14 6.14 0 0 1-.195.004H4.55c-.847 0-.796-.138-.497-.933ZM22.567 67.499V47.765h22.65v19.672l-.122-.119c-.341-.337-.68-.673-1.09-.493-.625.275-1.178.787-1.6 1.314-.05.061-.105.147-.166.242-.178.274-.404.621-.662.668-.137.025-.468-.683-.758-1.303-.236-.506-.446-.954-.5-.899-.588.587-.9.695-1.695.822-.66.106-1.326.106-1.993.105h-.121l-.15.003c-.231.008-.474.015-.667-.124-.111-.08-.198-.177-.281-.269-.173-.192-.329-.365-.657-.333-.335.033-.666.088-.996.143-.406.067-.81.134-1.223.16-.217.015-.44.008-.665.001-.502-.015-1.01-.03-1.46.187-.828.4-1.605.707-2.291-.066a3.041 3.041 0 0 1-.205-.299c-.286-.447-.74-1.155-1.076-.904-.926.69-1.895 1.392-2.903 1.96-.203.114-.352-.07-.514-.273-.144-.178-.3-.37-.513-.384a1.05 1.05 0 0 1-.342-.077ZM46.16 67.874v-20.11h17.288c.25.282.47.588.65.917.141.257-.19.5-.424.671-.182.133-.303.222-.095.24l.021.002c.334.028.825.069.862.495a.888.888 0 0 1 .004.1c.001.114.002.22.118.297.057.039.203.098.376.168.384.157.903.368.893.528-.002.044-.098.126-.2.214-.102.088-.211.182-.241.25-.14.314-.259.634-.378.953-.182.489-.363.976-.616 1.442-.187.345-.413.676-.64 1.008-.481.702-.965 1.408-1.082 2.26-.05.369.088.62.23.874.11.201.224.405.245.671.04.513-.174.795-.407 1.103-.134.176-.275.361-.377.603-.266.625.198 1.43.651 1.849.118.109.253.217.392.33.53.425 1.12.899 1.021 1.613-.085.62-.33 2.133-.828 2.495-.09.066-.69-.838-.75-.938-.332-.547-.732-1.003-1.364-1.165-.394-.102-.9-.212-1.308-.138-.28.05-.462.46-.6.769-.043.097-.081.184-.117.246a7.798 7.798 0 0 1-1.088 1.496c-.214.226-.651.197-1 .173-.097-.006-.187-.013-.264-.013-.183 0-.383.014-.591.028-.706.048-1.5.101-1.998-.348l-.073-.065c-.446-.403-.824-.744-1.19-1.237-.278-.373-.537-.506-.983-.332-.805.315-1.583.693-2.361 1.07-.744.361-1.487.722-2.254 1.028a18.262 18.262 0 0 0-.178.072c-.417.17-.89.363-1.344.381ZM62.37 46.82H46.16V24.173h18.067c-.023.552-.035 1.114.075 1.613.105.47.423.718.76.98.095.073.19.148.284.229.391.34-.502 1.366-1.031 1.974a5.4 5.4 0 0 0-.327.394c-.135.202.001.481.133.751.062.126.122.25.154.364l.056.2c.222.78.496 1.743.17 2.499-.051.119-.124.23-.196.343-.096.148-.192.297-.24.463-.029.1.02.225.062.328.032.082.059.15.037.18-.06.085-.096.18-.132.274-.035.092-.07.184-.127.267-.227.331-.511.678-.774.998l-.104.128c-.382.468-.371.9-.358 1.442.002.104.005.211.005.324 0 .648-.297 1.168-.594 1.69-.307.536-.614 1.074-.598 1.754.01.454.305.786.599 1.118.252.285.504.57.576.93.09.448-.027 1.166-.347 1.507l-.154.16c-.292.299-.593.606-.641 1.049-.025.228.118.288.278.354.05.021.103.043.152.071.145.082.286.17.425.265ZM64.255 23.228H46.16V3.16l.114.09c.165.135.334.271.525.317.26.062.583.03.833-.039.544-.15 1.077-.333 1.61-.516.533-.184 1.065-.367 1.608-.516.126-.028.205.084.272.18.028.04.055.078.082.101.033.029.113.03.184.032.041 0 .079.001.103.007a14.97 14.97 0 0 0 3.411.375c.304 0 .553-.102.809-.208a3.5 3.5 0 0 1 .488-.173c.294-.073.598-.103.904-.134.361-.036.725-.072 1.078-.18.251-.077.536.025.81.124.151.055.3.108.437.13.376.059.762.053 1.145.047l.34-.003h2.004c.662 0 .153.304-.235.537-.118.07-.224.134-.284.18-.583.454-.53.465-.228.527.108.022.246.051.4.108.284.107.502.35.72.59.145.162.29.323.455.442.136.099.244.226.352.353.097.114.194.228.31.32.049.04.109.075.17.113.152.09.317.189.36.352.107.4-.265.892-.594 1.326-.176.233-.34.45-.41.628-.278.698.12 1.031.595 1.428l.172.145c.391.337.657.598.806 1.093.055.183.11.364.248.502.05.05.125.094.201.14.194.114.389.23.152.423-1.062.867-1.933 1.731-2.572 2.947l-.042.079c-.122.223-.318.582-.212.821.033.074.165.077.289.079.083.002.163.003.208.026.079.04.055.24.03.456-.025.21-.052.434.014.538l.09.134c.104.151.153.221.153.484 0 1.137.051 2.267.103 3.398a117.052 117.052 0 0 1 .087 2.264ZM45.216 3.108v20.12h-22.65V3.147c.18-.019.356-.04.534-.062.314-.04.629-.078.952-.097.274-.016.582-.065.902-.116.674-.107 1.4-.222 1.962-.055.129.038-.246.633-.55 1.117-.18.287-.336.535-.35.605-.061.34.457.286.752.256.065-.007.12-.013.154-.013h4.576c.225 0 .452.005.68.01.485.01.973.021 1.45-.016.169-.012.268-.138.368-.264.041-.053.083-.105.13-.15.495-.47 1.167-.65 1.831-.827.316-.084.63-.168.923-.282.037-.015.07-.025.098-.034.118-.039.161-.053.161-.23 0-.02-.002-.045-.004-.073-.01-.13-.025-.328.115-.33.623-.014 1.303.376 1.88.708.118.067.231.132.339.19.182.1.359.192.532.282.464.24.906.468 1.36.8.478.35.842.389 1.265-.005.326-.303.769-.526 1.17-.706.273-.123.536-.27.798-.415.206-.115.412-.229.622-.332ZM22.567 24.172V46.82h22.65V24.17h-22.65Z"/>
    <path fill="#B0C4DE" fill-rule="evenodd" d="M21.623 23.228H3.824c-.147.377-.117.886.128.944h17.671V46.82H4.353c-.086.434-.151.631-.3.944h17.57V66.28c.58.863.818 1.177.944 1.218V47.765h22.65v19.672c.296.282.48.377.943.437v-20.11h17.288c-.399-.414-.583-.617-1.078-.943H46.16V24.17h18.067c.022-.363.028-.57.028-.943H46.16V3.16c-.371-.2-.593-.214-.944-.053v20.12h-22.65V3.147c-.2.061-.401.07-.943.041v20.04Zm.944.944V46.82h22.65V24.17h-22.65Z" clip-rule="evenodd"/>
  </g>
  <path stroke="#35A" stroke-linecap="round" stroke-width=".3" d="M6.808 6.16c.377.238.634.664.684 0 .006-.081.052-.206.079-.287.063-.189.123.115.158.182.043.08.125.134.163.215.006.014.066.18.068.177.085-.127-.037-1.291.207-.355.041.157.152.61.355.665.279.075.189-.934.189-1.065 0-.44.061.924.068.529.005-.315.003-1.083.001-1.322m0 0a.493.493 0 0 0-.001.016v.034m.001-.05-.001.05m.001-.05c.004-.122.013-.23.033-.222.113.045.062 1.066.102 1.223.138.537.297-.052.355-.298.037-.158.219-1.006.28-.584m-.771-.07v.269m0-.268c-.003.131 0 .262 0 .268m0 0v.732m.771-.931c.004.027.008.059.01.097.026.331.034.663.034.995M9.55 5.018c.021-.085.04-.093.044.123.004.222.003.738.002.963M9.55 5.018c-.024.096-.05.29-.058.368-.007.07-.035 1.027-.018 1.024.038-.009.08-.134.12-.3m0 0a20.78 20.78 0 0 1 .002-.006m-.002.006.002-.006m0 0c.077-.323.146-.797.16-.88.025-.134.11-.703.11-.245 0 .275-.119 1.067.015.826.187-.335.19-.886.19-1.26v.807c0 .062-.01 1.252.188.763.06-.148.089-.857.12-.747.108.368.084 1.515.167 1.14.101-.457.051-.955.068-1.42.012-.352.087.7.12 1.05.118 1.237.219-1.622.34-.151.023.274.011.61.087.876.085.297.185-.358.234-.829m0 0c.012-.117.022-.223.027-.3.047-.73.007.043.007.298v.69c0-.158-.018-.428-.034-.688Zm0 0c-.027-.452-.047-.872.05-.614.166.445.108.97.173 1.435.08.573.149-.693.151-.751.009-.219-.164-.63.053-.653.02-.003.066.612.068.641.016.252-.09.822.083 1.039.216.27.05-.69.072-1.035.011-.194.116.665.132.782.024.182-.01.692.098.543.158-.217.185-.646.242-.898.02-.096.25-1.245.275-.714.018.387.032 1.53.132 1.155.101-.379.013-.786.083-1.166.014-.072.053.597.053.732 0 .113-.026.822.015.34.049-.567.053-1.129.053-1.697m0 0V5.17c0-.1-.017.021-.034.167m.034-.165-.034.165m.034-.165c.048-.22.114-.462.136-.304.078.566.068 1.144.068 1.714 0 .296.05-.59.098-.883.063-.391.216-.59.238-.076.004.082.032.845.14.408.087-.356-.051-1.053.204-1.336.131-.147.076 2.262.143 1.083a4.99 4.99 0 0 1 .113-.917c.081-.324.134.48.136.513.006.097-.002.82.03.687.114-.467.14-.962.287-1.42.113-.349.106.637.106.68 0 .295-.156 1.105.038.884.263-.302.217-.926.31-1.288.026-.105.257-.689.264-.275.005.337-.057.718.003 1.05.044.242.115-.481.148-.726.067-.51.052.625.052.718 0 .269-.111 1.045.016.808.16-.302.15-.655.286-.944.125-.265.106.649.106.713 0 .42.018 1.182.434.442l.001-.002c.03-.052.396-.704.434-.647.156.234.015.963.015 1.23 0 .444-.014.568.132.072.066-.228.14-.936.14-.698 0 .404.001.805.052 1.208.059.462.253-.303.283-.412.071-.257.14-.956.14-.275 0 .139-.115 1.115.098 1.14.312.036.383-.717.408-.906.01-.077.1-.883.106-.43.006.532 0 1.064 0 1.596 0 .249.064-.108.068-.124.076-.322.068-.645.068-.974 0-.083-.008-1.251 0-.612.003.329-.024.787.14 1.087.18.33.2-.58.2-.581.002-.335-.052-.72.03-1.05.07-.283.153.155.158.197.047.413.083.845.083 1.26 0 .335.068-.665.068-1V6.62m-6.014-1.281c-.014.126-.028.27-.03.305a9.732 9.732 0 0 1 .011-.192c.001-.013.009-.056.02-.113Zm6.014 1.281v-.308.308Zm0 0c.001.109.005.218.015.327.011.114-.01.435.053.34.026-.039.04-.293.042-.306.058-.356.137-.708.188-1.065.08-.551.064-.333.095.094.005.078.05.978.083.65.05-.495.043-.991.132-1.48.01-.057.07 1.57.242 1.57.026 0 .918-1.908 1.12-1.276.108.333.022.69.11 1.023.062.232.116.292.16.259m0 0c.066-.05.11-.3.123-.493m-.123.493c-.028.14-.05.282-.061.425-.025.303.117-.311.2-.792m-.139.367c.034-.166.077-.33.123-.493m0 0V6.26c.01-.132.014-.362.016-.581m-.016.584.016-.053m0-.531c.003-.378 0-.727 0-.5v.5Zm0 0v.53m0 0v.18m0-.18c.015-.054.031-.109.048-.163m-.048.343v.022c0 .23.028-.111.043-.309m-.043.287c.018-.106.033-.205.043-.287m0 0 .005-.056m-.005.056a2.51 2.51 0 0 0 .008-.067m-.003.01.004-.062V5.98c.014-.193.015-.775.015-.581 0 .206.003.413-.015.619l-.001.017m-.003.01.003-.01m0 0c.038-.127.075-.254.11-.38.053-.184.048.633.058.756.05.657.044-.097.056-.31.017-.296.064-.324.064-.015 0 .242-.122.836.068 1.027.124.123.084-1.657.306-1.79.002 0 .1 1.05.102 1.163 0 .03-.014.624.113.385.223-.415.332-.882.574-1.291.29-.491.197.304.197.476 0 .357-.039 1.425.015 1.072.058-.388.096-.764.18-1.148.003-.011.008.566.008.721v.555c0-.47.023-.953.136-1.412.082-.33.132.611.136.684.007.109-.02.534.102.615.064.042.098-.49.098-.506.011-.304-.045-.65.057-.944.087-.25.01.529.019.793.036 1.052.107-.717.404-.732.313-.017.024 1.44.422.687.064-.12.542-.938.563-.872.114.363-.03.859-.034 1.241m0 0v.016-.022m0 .006v-.006m0 .006c.003.224.037.41.325.19.183-.141.293-.372.392-.574.014-.027.108-.272.114-.25.085.334.052.709.052 1.05 0 .136.136-.417.136-.54v.895c0 .693.285-.088.386-.347.04-.106.226-.741.226-.612 0 .43-.017.862 0 1.291.017.434.529-.738.559-.88.024-.117.053-.474.053-.354m-2.243.125v-.13.13Zm2.243-.125v.592m0-.592v-.333m0 .925c0 .365.219-.034.287-.173.023-.05.312-.563.32-.506.04.282-.112.78.072 1.019.109.141.412-.7.438-.778.043-.128.012.46.05.533.043.088.088-.045.124-.218m-1.291.123v.223m1.29-.346c.002-.003.002-.007.003-.01m-.002.01c0 .042 0 .029.002-.01m-.002.01v-.035m.002.024a4.47 4.47 0 0 0 .01-.048m-.01.048v-.024m.01-.024a4.51 4.51 0 0 0 .056-.407c0-.435-.022-.175-.053.09-.004.032-.009.237-.012.34m.008-.023a.247.247 0 0 1-.008.024m.008-.024c.03-.09.105-.387.125-.452.104-.342.13-.519.136-.068.004.338.03.678.083 1.012.031.201.064.743.188.581.083-.107.204-.952.204-.751 0 .284-.023.64.083.91.098.249.046-.533.057-.8.038-.942.068.155.098.483.005.05.035.691.117.581.251-.338.377-.868.514-1.26 0-.002.015.622.015.792 0 .746.064.167.068-.219.003-.32-.114-.874.034-1.17.056-.112.033.248.037.373.011.317.045.628.095.94.09.574.143-.245.158-.415.013-.14.017-1.142.234-1.125.295.024.188.745.193.921.005.18.171 1.3.306.59.008-.047.016-.093.021-.14m-2.774-.76c-.002.005-.003.005-.003 0m0 0v-.977m2.777 1.737c.046-.368.009-.758.009-1.125v.51c0 .155-.047.417-.009.615Zm0 0a.38.38 0 0 0 .077.177c.063.074.136-1.01.136-1.14 0-.47.022-.197.083.106.07.348.126.703.189 1.05.088.488.258-1.91.407-1.436.038.12.117 1 .272.967.242-.052.123-.805.14-.967.016-.156.22.38.238.423.035.092.082-.806.113-.966.051-.262.418 1.228.464.207.026-.56.072-.305.132.087.031.2.021.904.182 1.05.154.14.424-.948.453-1.042.133-.434.223.505.249.642.116.62.126-.321.132-.487l.003-.12m0 0v-.315.316Zm0 0v.131c.002.062.093.436.137.196.087-.478.068-.97.068-1.453 0-.367.007.735.052 1.098.026.201.15.295.185.042.258-1.803.156.564.714.54.132-.006.292-.193.437-.41m0 0c.04-.061.079-.124.115-.186m-.115.185c.073-.475.17-.956.273-1.424.063-.29.052-.107.028.132m-.301 1.292c-.01.057-.017.113-.026.17-.038.268.038.028.141-.355m0 0c.111-.186.202-.363.248-.442.005-.008.108-.244.17-.32m-.418.762c.11-.408.252-.979.318-1.267m.1.505a.099.099 0 0 1 .02-.02m-.02.02c-.002-.067 0-.151.004-.242M37 5.618c.003.076.011.13.028.143m-.008-.162c.014-.01.023-.004.026.025l.007.134m-.033-.16.008.163m-.008-.162a6.02 6.02 0 0 0-.016-.223m.049.382c.006.183-.004.368-.004.55 0 .228-.005-.168-.021-.547m.025-.003a.063.063 0 0 1-.004.002c-.008.006-.015.006-.021.001m.025-.003c.16-.123.031-.777.117-.594.166.351-.019.971.03 1.359.05.384.058-.272.06-.314.012-.159.18-1.094.197-.471.003.115-.01.755.11.807.171.077.233-1.152.268-1.287.137-.53.08 1.22.18.69.105-.548.355-1.09.616-1.58.176-.332.185.615.185.698v.656c0-.165.043-.654.064-.49.036.267-.16 1.062.02 1.26.199.223.06-.605.188-.875.084-.18.097.523.102.581.01.128.071 1.04.117.453.02-.265.04-.53.049-.796a4.63 4.63 0 0 0 .004-.178m-2.356-.3a2.614 2.614 0 0 0-.008-.07c-.018-.145-.055-.198-.096-.194m.104.263c.021-.488.101-1.16-.102-.273l-.002.01m0 0c-.045.003-.095.072-.132.16m0 0a.713.713 0 0 0-.058.238c-.007.183-.04.731.007.223.005-.052.032-.274.05-.461Zm2.592.404V5.59v.087Zm0 0v.004c0 .123.031.994.068.766.056-.354.068-.714.068-1.072 0-.328.041.655.068.982.092 1.15.256-.905.287-.763.069.326-.01 1.886.571 1.444m0 0a.834.834 0 0 0 .068-.058m-.068.058c-.104.009.031-.37.07-.527a.83.83 0 0 1 .048-.14m-.118.667a.08.08 0 0 0 .029-.01c.015-.007.028-.024.039-.048m0 0a1.326 1.326 0 0 0 .073-.075m-.073.075c.047-.106.055-.359.05-.609m.023.534c.082-.09.156-.189.224-.292m-.224.292a28.957 28.957 0 0 1-.022-.536m.022.536.005.086c.007.105.157.673.204.242.007-.067.012-.134.015-.202m0-.418a.193.193 0 0 1 .004-.006m-.004.006v-.34c0 .111.002.223.004.334m-.004.006v.418m.004-.424c.05-.077.096-.156.14-.237m-.14.237c.002.142.002.283-.004.424m.143-.661a3.52 3.52 0 0 0 .053-.104c.027-.054.076-.304.076-.113V7.25m-.129-.881c.024.068.044.15.06.24m-.06-.24c-.055-.161-.133-.246-.241-.18a.395.395 0 0 0-.148.179m.518.882v.098m0-.098-.004.016m.004-.016c.014-.066.027-.121.037-.102.054.104.167.7.167.608 0-.265-.052-1.053.015-.796.047.182.053.371.053.558m-.272-.17v.39c0 .21.013-.035 0-.39Zm0 0a8.967 8.967 0 0 0-.004-.082m0 0a5.28 5.28 0 0 0-.064-.651m.064.65c-.031.15-.064.32-.064-.222v-.428m0 0-.001-.005m0 .005V6.48m0 .13a8.258 8.258 0 0 1-.014.472c-.02.217-.19.712-.19.218m.204-.69v-.13m-.45-.111v.002m0-.002c-.014-.446-.025-.877-.025-.609 0 .085.02.347.025.611m.247.66v.27m0 0v.249m.204-1.07c0-.042 0-.05 0 0Zm.34.428c.046.396.132.778.2 1.17.06.354.202-.126.252-.241.027-.061.21-.58.36-.894m0 0c.112-.233.207-.352.207-.08 0 .113 0 .213.003.3m-.21-.22c.004-.306.051-.69.339-.643.055.01.068.24.057.512m-.396.131c-.002.118.003.224.003.29 0 .132.012.141.113.037.035-.035.066-.07.093-.106m0 0c.022 1.081.163.262.187-.352m-.186.352c.087-.113.142-.227.186-.352m0 0c.037-.105.065-.217.098-.342.007-.028.168-.613.185-.381.028.376.004.762.004 1.14 0 .57.139.324.269-.018m0 0c.05-.132.1-.28.138-.398m-.138.398c-.005-.328-.01-.659.033-.983.045-.352.105-.228.105.015v.57m-.138.398.002.293c0 .094.01.155.114.057.276-.264.355-.681.43-1.038.015-.073.204-1.22.204-.68v.967c0 .252.01.434.173.098.113-.231.14-.492.167-.744.032-.307.056-.383.071-.019.015.348.078.69.117 1.035.01.08.053.518.151.211.113-.35.145-.732.197-1.095.03-.212.005.428.007.642 0 .046-.02.603.102.589.158-.018.102-.868.102-.974l.003-.08m-1.702.34.035-.108m-.035.108v.374c0 .013.016-.314.035-.482m0 0 .018-.054c.063-.19.212-.465.212-.672 0-.23-.172.431-.22.657a.824.824 0 0 0-.01.07Zm1.667-.232c.005-.137.013-.37-.018-.131a5.612 5.612 0 0 0-.033.332m.05-.2c-.02.062-.038.128-.05.2m.05-.2c.08-.235.22-.43.372-.725.108-.21.458-1.353.343-.57-.047.324-.089.65-.14.974-.038.249.014.198.088-.008.1-.278.48-1.332.287-.426-.02.096-.096.735-.07.903m-.93.052c-.016.218-.02.436-.02.657m.02-.657c-.013.075-.02.157-.02.249m0 .408v-.408m0 .408v.17m0-.578v-.536m.95.235c.009.06.03.06.07-.039.198-.496.644-2.033.43-1.544-.152.346-.4 1.12-.5 1.583Zm0 0c-.068.317-.066.488.085.278.225-.312.349-.72.445-1.087.044-.168.083-.687.083-.513 0 .479-.036 1.916.004 1.438.04-.488.336-1.92.336-1.43 0 .219-.12 1.37.272.958.29-.305.489-.722.69-1.087.062-.112.098-.204.115-.164m0 0c.007.017.01.061.01.141v.022m-.01-.163c.015-.138.068-.3.082-.35.204-.715.093.067.029.496m-.111-.146a.349.349 0 0 0 .01.163m0 0c-.001.423-.043.97.068.197l.032-.214m-.1.017c.007.016.017.03.03.039.016.01.041-.013.07-.056m0 0c.112-.162.29-.61.312-.65.082-.151.211-.396.35-.51.037-.03.054.695.054.74 0 .118-.078.635.045.725.09.065.184 0 .264-.097m0 0c.095-.115.17-.277.2-.33l.11-.197m-.31.527c.057-.145.129-.279.204-.417.03-.054.078-.217.094-.158a.468.468 0 0 1 .011.048m-.31.527-.029.082c-.105.309-.332 1.295.128.513l.114-.194m.098-.928c.058-.105.117-.21.181-.313.126-.201-.099.465-.159.695a7.85 7.85 0 0 0-.1.439m.078-.82c.03.175-.015.417-.038.577-.008.058-.023.148-.04.243m0 0-.02.107m.02-.107-.017.102m-.003.005c-.015.079-.029.157-.042.236-.02.117.011-.048.045-.24m-.003.004.003-.005m0 0c.19-.326.379-.652.582-.971.197-.31.185-.04.185.192 0 .421-.337 1.623-.129 1.257a7.95 7.95 0 0 0 .363-.717c.011-.026.06-.15.113-.295m0 0c.116-.312.259-.722.128-.483-.047.088-.102.301-.128.483Zm0 0c-.037.267-.008.466.208.087.05-.088.099-.177.144-.267m0 0c.14-.276.253-.563.32-.869.096-.436-.127.258-.15.347-.035.131-.116.326-.17.522Zm0 0c-.05.182-.076.365-.02.498.049.113.523-.293.879-.616m0 0c.22-.2.394-.37.394-.366-.013.148-.069.3-.131.447m-.263-.081c.138-.247.313-.512.397-.449.07.052-.005.307-.047.432m-.35.017a5.383 5.383 0 0 0-.191.374c-.021.048-.294.713-.121.68a.42.42 0 0 0 .038-.01m.537-.963c-.042.098-.086.194-.122.286-.058.145.173-.283.188-.325l.021-.06m-.087.099c.028-.034.057-.067.087-.098m-.087.098c-.234.282-.397.641-.537.963m.624-1.061c.05-.052.104-.1.16-.145.23-.177-.003.265-.018.295-.14.275-.425.811-.766.911m0 0v.002a1.447 1.447 0 0 0-.125.74c.022.169.614-.279.743-.384m0 0a2.29 2.29 0 0 0 .347-.407m-.347.407c.085-.213.194-.446.204-.47.001 0 .095-.179.191-.343m-.395.813c-.096.24-.161.454-.018.301.16-.17.279-.376.35-.597m.015-.111.025-.04m-.025.04v-.013a2.93 2.93 0 0 1 .051-.297m-.051.31a2.15 2.15 0 0 1-.015.111m.04-.151c.04-.065.077-.131.108-.2m-.108.2c-.01.05-.024.101-.04.151m.04-.151a.98.98 0 0 0 .026-.27m.082.07c.053-.112.093-.23.117-.35.02-.098-.001-.101-.042-.056m-.075.407a5.783 5.783 0 0 1 .075-.407m-.075.407a1.657 1.657 0 0 0 0 .566c.004.019.011.03.02.036m.055-1.01a1.444 1.444 0 0 0-.125.183m.125-.182c.077-.343.1-.095.08.161-.012.152-.049.561-.135.848m-.07-.827-.035.058m.035-.058c.045-.215.079-.387.012-.266-.048.087-.05.207-.047.324m.035-.058-.032.154m-.003-.096.003.096m-.066.421c-.04.255-.12.644.023.53.06-.048.107-.151.145-.278m0 0c.03.02.084-.034.142-.111m0 0c.069-.093.143-.22.186-.294l.003-.005c.044-.076.086-.152.123-.23m-.312.529v-.005c.09-.485.253-.904.468-1.344.067-.134.046-.145.046.02v.017m-.514 1.312c-.06.328.017.147.114-.046.077-.156.142-.317.198-.482m0 0c.12-.247.199-.503.202-.784m-.202.784a6.091 6.091 0 0 0 .202-.784m0 0c.1-.448 0 1.194 0 1.753 0 .102.14-.298.143-.306.152-.323.274-.648.35-.996m0 0a2.323 2.323 0 0 0 .051-.537c0-.201-.032.214-.051.537Zm0 0-.014.249c-.009.228-.004.487.148.124.086-.208.14-.408.166-.617m0 0c.015-.118.022-.238.022-.364 0-.242-.015.001-.022.364Zm0 0c-.007.363-.006.846.026 1.085.057.426.21-.847.43-1.215.014-.023-.038 1.268.125.793.098-.286.187-.573.25-.869a.622.622 0 0 1 .006.152m0 0v.348m0-.348c-.01.131-.009.266-.005.4m.005-.4c.006-.078.017-.154.035-.227.035-.147-.017.394-.02.43-.002.042-.008.092-.014.145m0 0v.323c0-.088-.003-.18-.006-.272m.006-.05a5.266 5.266 0 0 0-.006.05m0 0c-.016.146-.027.31.013.42.043.117.222-.362.23-.393.24-.879.17.515.17.766 0 .194-.066.392.068.14.208-.388.455-.833.741-1.196m0 0c.061-.078.124-.152.189-.22m-.189.22c.057-.181.127-.386.249-.5.106-.099.05.054-.06.28m-.189.22-.05.16m.239-.38.003-.004c.034-.035.003.015-.046.09m.043-.086a7.585 7.585 0 0 1-.043.087m0 0c-.067.102-.17.25-.196.293m.196-.293c-.09.18-.202.39-.29.552m.094-.259-.003.005c-.064.105-.092.221-.134.333m.137-.338-.007.02c-.006.016-.054.13-.087.239m-.043.08c-.02.05-.041.099-.07.146-.067.106-.02.02.07-.147Zm0 0 .043-.08m0 0c-.04.13-.06.251.038.184.282-.192.49-.495.694-.762.01-.012.214-.292.22-.272.062.23-.125.598-.22.796-.131.276-.1.2.083.012.204-.211.365-.457.586-.653.24-.214.253-.186.241.147-.005.138-.109.58-.069.807m0 0c.009.05.025.09.05.114.144.134.526-.226.773-.5m-.823.386.103-.082c.252-.192.517-.362.759-.567a.93.93 0 0 0 .045-.046m-.907.695c-.17.142-.46.42-.286.54.207.143.95-.417 1.091-.52.273-.2.47-.39.631-.67m-.613.264c.11-.12.192-.225.216-.263.01-.014.064-.158.1-.277m-.316.54.001-.01c.012-.1.041-.2.083-.299m-.084.31c-.044.38-.001.276.198-.045.01-.017.244-.554.192-.543a.217.217 0 0 0-.074.047m0 0c.034-.112.053-.203.006-.15-.094.108-.179.24-.238.381m.232-.231c-.074.061-.174.17-.232.231m.53.045a2.14 2.14 0 0 0 .04-.074c.044-.084.358-.558.129-.257-.126.165-.211.31-.17.331Zm0 0c.026.015.108-.023.267-.142.098-.073.306-.363.438-.363.21 0-.11.558-.136.6-.02.033-.118.175-.185.27m0 0c-.066.093-.1.14 0 0Zm0 0 .011-.016c.187-.264.865-.959.642-.725-.165.173-.291.395-.412.6-.12.205-.23.416-.361.615m0 0a3.475 3.475 0 0 1-.073.106.89.89 0 0 1-.094.113c-.014.014.003-.04.015-.056.046-.058.097-.112.152-.163Zm0 0c.121-.114.258-.216.38-.324.028-.025.416-.402.416-.295 0 .195-.615 1.23-.113.744m0 0c.038-.037.083-.084.135-.14.011-.011.344-.404.329-.411-.014-.007-.438.443-.483.483-.119.103-.072.102.019.068Zm0 0c.11-.042.285-.132.302-.14.237-.114.478-.234.732-.31.396-.117-.32.32-.408.378-.056.038-.283.283-.056.193.312-.125.548-.427.88-.506.411-.099-.067.173-.197.276-.194.152.081.023.41-.19m0 0c.28-.18.6-.422.703-.603.165-.289-.347.238-.702.604Zm0 0c-.083.087-.158.164-.214.22-.049.049.654-.541.597-.408-.118.272-.381.523-.57.748-.211.25-.079.138.11.007.098-.07.271-.154.421-.252m0 0c.127-.084.238-.179.273-.284.045-.136-.142.1-.273.284Zm0 0a3.22 3.22 0 0 0-.09.131l-.001.002c-.038.06-.265.415-.184.39.06-.017.136-.035.212-.058m0 0c.147-.046.298-.11.35-.236.081-.189-.152.036-.165.05-.062.064-.125.125-.185.186Zm0 0c-.149.15-.286.3-.374.508-.213.503.465-.135.642-.253.098-.065.098-.001.098.082v.009c0 .19-.178.314-.302.438-.523.523.476-.362.6-.54.005-.006.21-.386.23-.246a.324.324 0 0 1-.003.114m0 0a.528.528 0 0 1-.083.182m.083-.182c-.03.06-.056.121-.083.182m.083-.182a.825.825 0 0 1 .09-.144c.402-.501-.426.781.064.43.099-.07.583-.299.28.016-.187.194-.852.642-.604.536.085-.037.17-.092.254-.157m-.167-.499c-.085.129-.21.246-.276.361-.094.165.097-.068.113-.086a1.01 1.01 0 0 0 .163-.275Zm.167.5c.153-.12.296-.273.403-.403.147-.178-.186.177-.21.203l-.002.001-.191.198Zm0 0c-.154.162-.306.327-.462.488-.067.07-.398.33-.426.46-.003.01.635-.283.675-.305.014-.007.57-.362.374-.2-.557.458-1.14.887-1.695 1.344-.042.034-.257.229-.064.211.457-.041.86-.333 1.246-.551.337-.19.21-.1-.018.05m0 0-.196.13m.196-.13c-.047.021-.093.043-.14.07m.14-.07c.1-.043.199-.08.305-.125.046-.02-.129.485-.25.588-.017.015-.107.086-.171.155m-.08-.489-.265.174m.265-.174a.545.545 0 0 0 .055-.06m-.055.06c-.077.072-.172.122-.265.174m0 0-.05.033m.05-.033a6.23 6.23 0 0 0-.035.02m-.016.013a3.45 3.45 0 0 0-.173.122m.173-.122c-.173.152-.312.306-.173.286.223-.032.463-.056.569-.004m-.396-.282.016-.014m-.19.136.156-.116m-.155.116a.823.823 0 0 1 .155-.116m-.155.116a.491.491 0 0 0-.068.08c-.105.162-.21.247-.37.37m.593-.566.08-.059m-.08.06.034-.02m.046-.04.196-.144c.038-.026.076-.049.113-.07m-.309.214-.046.04m.046-.04c.169-.142.342-.263.31-.214m.024.549c-.066.071-.104.14.002.14a.192.192 0 0 0 .041-.005m-.043-.135c.05.025.07.067.043.135m0 0c.187-.042.53-.319.427-.199-.09.104-.831.823-.773.88m.346-.681c-.026.065-.097.154-.227.273-.111.103-.762.526-.762.683 0 .027.4-.158.643-.274m0 0c.003.004.01.005.021.002.288-.056.582-.197.808-.38.331-.27-.592.257-.65.29l-.18.088ZM38.272 6.228c-.177-.198-.12-.703-.2-.959-.168-.53-.108 1.118-.035 1.669.126.945.543-.681.567-.959.003-.033.004-.063.005-.09m0 0c.007-.415-.27.005-.27.298 0 .056.123-.093.27-.298Zm0 0 .003-.005m0 0 .078-.11m-.078.11c.006-.258.042-.737.24-.66.033.013.045.051.044.105m-.284.555v.14m.078-.25c.058-.084.117-.17.17-.253m-.17.252a2.4 2.4 0 0 1 .072-.22c.007-.017.065-.116.134-.224m-.206.444c-.054.2-.079.4-.079.614 0 .12.025-.24.06-.355.015-.046.13-.3.19-.511m0 0c.114-.176.209-.333.233-.395.093-.233-.07 0-.198.203m-.035.192a.832.832 0 0 0 .035-.192m23.331 4.98c.028.01.223.064.4.127m0 0 .08.03m-.08-.03-.065.029m.065-.03c.075-.034.136-.06.112-.011a.193.193 0 0 1-.031.042m0 0c.115.046.207.094.212.134.004.03-.274.164-.304.176-.186.073.089-.22.103-.265.005-.014-.005-.024-.024-.031m.013-.014a.392.392 0 0 1-.013.014m0 0a.447.447 0 0 0-.133-.015m.133.014c-.158.157-.606.399-.289.361a5.57 5.57 0 0 0 .766-.14c.095-.024.48-.187.156-.022-.24.122-.472.251-.679.425-.091.077-.222.188-.014.14.202-.047.623-.207.867-.308m-.94-.47c-.164-.001-.404.03-.447.043-.109.031.228.004.341-.009a.418.418 0 0 0 .106-.034Zm.94.47c.17-.07.254-.112.117-.067a.676.676 0 0 0-.117.067Zm0 0c-.203.134-.556.415-.47.422.283.023.996-.414.833-.181-.232.33-.615.641-.97.819-.278.139.088.103.188.075.2-.055.411-.207.611-.238.066-.01-.084.106-.14.143-.16.107-.28.255-.438.363-.098.067.493.003.587-.028.078-.025.233-.188.223-.106-.028.243-.574.536-.748.665-.334.247.591-.08.497.014-.072.072-.636.492-.52.495.299.008.548-.09.162.137-1.567.923.218.268.134.511-.136.398-.787.406-1.048.699-.088.1.561-.22.25.034-.186.15-.426.23-.644.318-.034.014-.53.24-.262.179.975-.22-.44.264-.352.503.05.139.757-.058.76-.045.044.252-.454.519-.587.671-.106.121.337-.007.475-.09.096-.057-.252.302-.157.302.18 0 1.008-.26.526-.02-.267.134-.58.223-.828.39-.13.087.37.038.425.033.023-.002.221-.063.123-.011-.24.126-.45.307-.687.441-.136.077-.376.109-.492.204-.114.093.291.082.436.059.065-.01.426-.137.492-.067.04.042-.525.358-.556.377-.112.068-.465.192-.52.324-.055.13.537.03.578.02.047-.01.207-.058.36-.108m0 0c.175-.058.341-.119.32-.132a.279.279 0 0 0-.096-.036m-.224.168c.082-.06.162-.119.224-.168m-.224.168c-.17.122-.347.242-.377.262-.58.372.36.044.548-.031.406-.161-.023.205-.145.296-.096.071-.772.391-.735.52.036.125.847-.065.947-.084.037-.007.32-.163.274-.098-.17.24-.494.378-.732.534-.203.133-.417.331-.025.224.165-.046.875-.43 1.02-.285.118.118-.95.672-1.029.715-.047.027-.357.181-.111.179.353-.004.694-.135 1.017-.263.34-.134-.08.198-.162.263-.19.148-.422.33-.565.52-.106.142.582-.03.677-.087.028-.017-.49.3-.637.383-.309.172.023.05.15-.017.223-.116.445-.252.688-.324.206-.06.195.016.025.087-.121.05-.699.433-.6.441.08.007.627-.107.648-.086.186.186-.67.468-.677.57-.005.089.8-.328.344-.017-.112.076-.964.545-.517.581.232.02 1.015-.24.503.104-.06.04-.779.47-.704.539.091.084.36-.04.45-.075.832-.334-.285.505.02.59.223.061.348-.217.527-.238.216-.026.611-.314.336-.048-.054.052-.488.44-.243.447.012 0 .023 0 .032-.002m-.723-5.768a.565.565 0 0 0-.17-.004m.17.004c.083-.066.132-.113.11-.115-.087-.011-.195.068-.28.111m0 0c-.291.034-.57.224-.036.017a.398.398 0 0 0 .036-.017Zm.893 5.772c.027-.006.035-.016 0 0Zm0 0a.572.572 0 0 0-.038.02 4.508 4.508 0 0 1-.9.401c-.354.107.188.003.454-.051m0 0a7.57 7.57 0 0 0 .127-.027c.145-.033.634-.243.196-.106-.11.034-.217.082-.323.133Zm0 0c-.11.053-.217.109-.325.158-.036.016-.67.262-.414.276.206.012 1.474-.306 1.492-.276.016.025-1.09.51-1.184.573-.278.184.274.087.34.075.247-.045.48-.139.719-.212.368-.114-.72.279-1.076.424-.215.088.539-.018.629-.047.47-.15-.57.488-.573.511-.002.007.002.011.008.014m0 0c.08.03.673-.2.54-.159-.068.02-.309.082-.54.159Zm0 0c-.245.081-.478.18-.478.269 0 .137 1.184-.226 1.328-.288.348-.153-.663.377-.964.61-.19.145.352.089.4.08.11-.02.21-.12.32-.12.058 0-.68.509-.81.6-.254.18.622-.03.928-.086.295-.054-.275.36-.322.389-.008.005-.437.263-.377.293.16.08.51-.001.67-.045.273-.073.725-.258.18.028-.252.132-.513.235-.772.352-.027.013-.488.24-.26.274.191.029.41.012.601 0 .133-.008.436-.197.392-.072-.028.078-.905.467-.9.47.368.144.879-.102 1.227-.208.358-.109-.638.416-.998.52-.03.01-.375.14-.375.14.275.06.611-.073.878-.126.212-.042-.548.336-.548.411 0 .141.794.066.889.078.215.027-.43.06-.637.123-.118.036-.343.089-.095.118.241.027.813-.15.489.218-.197.223-.33.35.08.335.028-.001.303-.084.2.02-.023.022-.371.379-.367.382.144.128.52-.058.702.014.036.015-.394.365-.44.4-.082.064.003.133.074.145.013.003.229.002.212.028-.203.311-.67.535-.981.727-.264.163.632.063.93-.022.213-.061-.377.304-.419.33-.424.258-.406.458.126.371.05-.008.805-.164.797-.137-.054.166-.462.454-.612.537-.162.089.373.033.472.033.093 0-.165.143-.19.165a5.148 5.148 0 0 1-.688.517c-.199.123.315.073.397.073.204 0-.385.133-.57.218-.068.03-.425.136-.425.254 0 .086.982-.014.978.053-.01.196-.525.13-.536.33-.01.167.753.127.889.15l.018.004c.163.03.246.044.026.103-.233.063-.486.113-.698.235-.25.144.115.147.198.167.312.078-.592.256-.9.347-.226.067-.083.107.093.13m0 0c.125.015.267.02.307.02.23 0 .025-.019-.307-.02Zm0 0c-.383-.004-.933.017-1.18.116-.403.162.034.156.187.156h.791c-.331 0-.717.023-.99.24-.2.162.56.163.624.163.476 0-.08.183-.265.212-.179.028-.88.027-.998.185-.025.033.084.005.126.005h.665c.064 0 .96-.055.771.106-.02.018-.3.216-.28.235.091.084.454.052.574.059.026.001.104.003.078.005a9.377 9.377 0 0 0-1.02.177c-.458.098.184-.028.184.223m-.15 0c-.187.243-.51.232-.694.447-.078.092.242-.041.403-.056.082-.007.908-.134.609-.03-.146.05-.78.148-.526.302.138.082-.791.375-.86.41-.186.095.245.104.57.041m0 0c.105-.02.199-.048.257-.083.062-.037.022-.06-.034-.036-.08.034-.154.074-.224.12Zm0 0c-.1.064-.19.139-.28.222-.227.21-.043.092.123.184.13.072-.643.432-.53.51.123.084.356.017.497.033.04.004-.08.03-.106.061-.095.113.282.09.313.09.04 0 .398-.03.223.072-.345.2-.734.33-1.095.495-.48.219-.378.249.055.137.395-.102.16-.02-.072.056-.1.032-.69.178-.699.324-.002.045.942-.174 1.051-.22.224-.097-.237.198-.257.209-.065.035-.515.294-.472.296.207.008.461-.075.654-.143.13-.046.303-.206.438-.22.118-.013-.092.259-.109.28-.106.132-.253.228-.394.32-.015.01-.379.234-.369.244.1.089.662-.226.375-.05-.097.058-.255.08-.335.161-.033.033.316-.059.346-.072.456-.199.104.032-.078.19-.184.159-.36.344-.512.534-.08.099.325.044.36.041.128-.007.553-.135.367.068-.083.09-.076.156-.115.257a.2.2 0 0 1-.018.036m0 0c-.115.18-.557.405-.373.405a1.9 1.9 0 0 0 .4-.031m-.027-.374c.278.005.582.035.516.154-.083.148-.363.24-.498.324-.114.07-.23.17-.355.242m.337-.72c-.094-.002-.186 0-.259 0m.286.374c.031-.007.062-.015.092-.025.072-.022.285-.195.268-.19-.122.04-.244.126-.36.215Zm0 0c-.079.06-.155.122-.227.171l-.145.093m0 0c-.12.08-.262.179-.193.164a.689.689 0 0 0 .201-.082m-.008-.081c-.094-.103-.565-.012-.648-.033-.03-.007.556-.43.59-.452.118-.078.172-.135.144-.153m-.086.638c.018.019.023.046.008.081m0 0a.321.321 0 0 1-.055.085c-.096.112-.27.148-.355.265-.09.124.276-.133.408-.212.023-.014.904-.422.9-.38-.011.105-.28.266-.341.324-.109.103-.524.435-.54.595-.006.066.352-.087.364-.095.14-.089.222-.253.377-.321.216-.096.19-.041.067.126-.16.218-.335.463-.548.634-.095.077.1-.037.11-.042.287-.151 1.058-.73.852-.478-.28.342-.671.546-1.048.758-.045.025-.263.178-.045.064.293-.154.572-.343.852-.52.029-.018.44-.355.33-.156-.27.487-.729.919-1.199 1.213-.073.045-.115.047.008.039.173-.013.346-.07.504-.15m-.563-2.468-.1.002m.1-.002c-.013-.01-.046-.01-.1.002m0 0h-.053c-.085-.005.159-.078.207-.148.022-.032.073-.142.061-.182-.012-.043-.224.125-.229.129-.182.122-.713.22-.816.385-.036.058.137-.004.204-.017.186-.033.36-.091.54-.145.033-.01.062-.017.086-.022Zm.663 2.465c.071-.035.14-.075.203-.118.035-.022.115-.115.081-.092a5.553 5.553 0 0 0-.284.21Zm0 0c-.139.11-.275.222-.414.33-.16.124-.404.255-.503.441-.063.118.393-.057.418-.067.232-.088.44-.208.655-.33.256-.144.188-.017.003.11-.253.172-.53.304-.794.458-.073.042-.278.222-.463.36m0 0c-.133.101-.255.18-.311.173-.02-.002.182-.127.184-.128l.127-.044Zm0 0c.33-.112.66-.214.977-.366.125-.06.251-.123.37-.196m0 0c.063-.039.123-.08.18-.125.143-.113-.141.092-.18.125Zm0 0a5.702 5.702 0 0 1-.613.56c-.11.085-.426.266-.29.298.142.034.482-.214.623-.257.031-.01.104-.022.182-.04m0 0c.113-.027.237-.068.256-.133.047-.157-.083-.04-.256.133Zm0 0c-.161.161-.359.373-.484.46-.291.202-.604.374-.892.58-.243.175.18.086.252.065.254-.075.493-.198.732-.31.217-.102.39-.138.112.067-.217.16-.46.28-.676.441l-.006.005c-.105.077-.324.24-.05.2.432-.065.743-.387 1.157-.484.09-.021.102.039.058.112-.18.3-.504.514-.774.726-.005.005-.522.389-.29.386.394-.005.768-.324 1.087-.517.1-.061-.267.278-.327.338-.084.084-.24.217-.266.341-.014.07.13-.065.19-.103.2-.125.423-.255.59-.429m0 0 .045-.05c.086-.1.05-.058-.045.05Zm0 0c-.173.197-.542.614-.715.784-.144.14-.131.229.089.178.281-.064.494-.24.69-.441.077-.079.548-.624.406-.33-.17.35-.38.666-.576 1-.04.068-.019.115.067.073.224-.11.412-.284.548-.492.04-.06.33-.624.24-.2-.055.26-.176.473-.33.687-.095.133-.34.374-.34.556 0 .131 1.01-.532 1.1-.595.176-.122-.122.142-.142.165-.208.238-.449.411-.685.617-.521.456.328-.105.48-.201.199-.124.373-.243.49-.447.02-.036.134-.232.21-.185.041.027-.717 1.036-.937 1.317m0 0a2.194 2.194 0 0 1-.053.067c-.184.211-.06.013.05-.065.001 0 .002 0 .003-.002Zm0 0c.179-.123.408-.17.542-.353.043-.057.266-.418.238-.12-.027.285-.321.51-.52.682-.087.075-.447.29-.441.43.002.044.365-.19.39-.205v-.001c.267-.155.562-.254.82-.422.466-.304-.905.653-1.311 1.034-.005.004-.192.216-.062.193.198-.035.463-.26.627-.364.152-.096.358-.21.463-.363.008-.011.058-.186.104-.131.134.16-.341.673-.422.78-.18.237.338-.073.383-.098.164-.093.276-.197.41-.327.327-.316.466-.153.14.195a3.214 3.214 0 0 1-.018.02m0 0c-.277.29-.621.503-.977.684-.285.146.236-.166.263-.181.262-.15.477-.325.714-.503Zm0 0 .018-.014c.23-.172.71-.284.459.162-.239.422-1.418 1.313-1.018 1.04.308-.21.613-.43.833-.727.024-.032.063-.038.1-.045.175-.029-.227.274-.362.389-.246.207-.545.364-.76.606-.044.049-.139.192.008.16.395-.088.67-.497 1.053-.63.065-.022-.03.123-.039.143-.095.239-.309.434-.492.607-.109.103-.447.292-.486.452-.011.046.572-.232.612-.257.12-.075.32-.427.316-.285-.007.24-.154.416-.335.556-.08.062-.983.62-.492.389.084-.04.714-.47.612-.29-.192.334-.456.478-.735.715-.073.061.487-.27.486-.269-.152.394-.563.64-.92.816-.013.007-.53.264-.352.255.274-.014.512-.186.74-.316.365-.207.072.132-.075.243-.216.164-.512.29-.684.506-.049.06.22-.002.248-.006.083-.01.27-.054.101.062-.22.15-.443.299-.668.441-.036.023-.386.2-.358.28.03.083.583 0 .635-.006.216-.021.603-.103.27.23-.159.16-.387.31-.597.393-.042.017-.13.056-.028.06.117.003.864-.16.872-.14.062.155-1.548.97-.542.592.092-.035.732-.41.38-.09-.13.118-1.633.556-1.565.682.078.146.785-.068.916-.084.415-.05.227.046-.024.174l-.02.01c-.126.065-.915.414-.461.414.321 0 .629-.035.947-.078.259-.035.15.086-.006.182-.102.063-1.042.516-.47.489.099-.005.32.005.493-.024m0 0c.092-.016.17-.042.21-.088.014-.017-.132.049-.21.088Zm0 0a.494.494 0 0 0-.045.024c-.135.094-.262.185-.408.263-.021.011-.474.277-.352.288.22.02.501-.115.704-.188.315-.113.01.061-.106.11-.256.105-.557.19-.783.354-.107.079.26.09.291.09.047 0 .664-.055.486.123-.187.187-.501.24-.687.419-.22.212.63.162.693.173.097.017-.67.775-.511.791.137.014.28-.015.413-.056m0 0 .062-.02c.046-.015.318-.162.12-.06-.039.019-.104.047-.182.08Zm0 0c-.266.116-.679.3-.679.461m.352-.251c.118.129.313.232.391.385.106.207.072.465.163.682.072.174.05-.28.047-.338-.012-.186-.098-.35-.15-.525-.01-.032-.066-.105-.092-.17m0 0c-.016-.04-.021-.079.005-.101.035-.032.231.33.24.343a.28.28 0 0 1 .005.01m-.25-.252c.06.057.157.153.25.251m-.25-.25a.743.743 0 0 0-.057-.052c-.182-.115-.5-.246-.727-.182-.14.04.066.477.107.534.197.275.553.584.609.934.033.206-.402-.37-.436-.43-.06-.107-.198-.424-.207-.303-.012.173-.006.349-.002.523m.963-.774c.035.064.166.354.235.346.065-.007-.08-.18-.235-.346Zm-.963.774a7.225 7.225 0 0 1 0 0Zm0 0c-.018-.26-.13-.633-.39-.735-.19-.076-.074.963-.19.48-.032-.137.037-.52-.175-.29-.245.263-.324.703-.4 1.045a.284.284 0 0 1-.03.096m0 0c-.013.013-.018-.035-.02-.098m.02.098c.029.172.013.248-.073-.065a2.723 2.723 0 0 1-.055-.284m.127.35a1.816 1.816 0 0 0-.019-.099m0 0c-.002-.079 0-.18 0-.216-.003-.238-.044-.206-.085-.1m.085.316a6.944 6.944 0 0 0-.085-.316m0 0a1.02 1.02 0 0 0-.023.065m.023-.065a3.8 3.8 0 0 0-.055-.173m.032.238a2.101 2.101 0 0 0-.063.253c-.01.06-.03.66-.03.341v-.979m.093.385-.032-.238m-.061-.147v-.2c0-.175.024.064.06.347m-.06-.147c.019.035.04.087.06.147m-.06-.147c-.032-.058-.06-.07-.073.007-.067.364-.008.744-.03 1.112-.016.247-.116-.248-.121-.274-.012-.067-.144-.817-.268-.492-.104.27-.112.597-.112.883v-.46m0 0v-.266m0 .265v-.265m0 .265c0 .121-.002.23-.006.207-.046-.289-.064-.705-.246-.947-.123-.164-.13.644-.14.726-.035.347-.055.695-.086 1.043-.01.113.006.238-.05.338-.02.034-.041-.07-.048-.11a2.224 2.224 0 0 1-.027-.232m.603-1.29v-.115m-.603 1.405v-.008m0 .008v.018m0-.018c.004-.093.039-.282 0-.26m0 .252a3.828 3.828 0 0 1-.008-.247m.007.247v.026m0-.026v-.252m-.007.005c0-.17.007-.343.007-.51v.505m-.007.005a.038.038 0 0 1 .007-.005m-.007.005-.004.004c-.172.188-.227.605-.338.841-.016.035-.132.316-.143.277-.084-.318-.01-.739-.01-1.067 0-.18-.056-.232-.121-.023-.145.466-.16.988-.271 1.465-.071.305.123-.618.137-.931.023-.529-.203-.18-.403.095-.062.085-.223.409-.343.439-.055.013.155-.653.186-.75m1.317-.078v.844m-1.317-.766.004-.01c.012-.037.117-.635.103-.422-.01.16-.052.297-.107.432Zm0 0c-.039.096-.084.19-.13.291-.072.157.086-.349.039-.514-.026-.09-.135.128-.199.196-.2.211-.37.434-.553.66-.189.232.206-.564.338-.833.076-.157.124-.493-.087-.185-.124.181-.098.588-.327.68-.186.074-.131-.408-.14-.484-.038-.38-.183.254-.212.358-.034.12-.078.494-.078.368 0-.372.01-.745 0-1.117-.022-.768-1.149.933-.623-.118.108-.216.438-.84.26-.676-.225.206-.21.665-.43.866-.21.19.111-.558.209-.824.041-.113.26-.913-.087-.506-.005.007-.458.918-.483.668-.008-.082.004-.688-.165-.623-.25.096-.417.52-.613.733m0 0a.682.682 0 0 1-.041.04c-.017.016.014-.042.022-.064.076-.19.118-.39.19-.58.136-.36.106-.3 0 .038-.043.139-.09.386-.171.566Zm0 0a.544.544 0 0 1-.102.16c-.034.034-.028-.091-.028-.139-.003-.175.002-.35 0-.525-.004-.274-.158-.203-.32-.028m0 0a1.653 1.653 0 0 0-.086.103m.087-.103c.01-.102.017-.188.017-.215 0-.335-.042.113-.073.22l-.03.098m.086-.103c-.023.221-.068.525-.123.52-.032-.004-.034-.11-.022-.253m.058-.164a2.066 2.066 0 0 0-.049.066m.05-.066c-.017.05-.037.106-.06.164m.01-.098c-.13.181-.239.39-.239.48 0 .172.132-.12.23-.382m.01-.098a3.924 3.924 0 0 0-.01.098m.01-.098c.026-.248.079-.545.09-.605.03-.15-.03-.144-.131-.03-.222.25-.385.706-.663.89-.089.06-.14.036-.168-.029m0 0a.104.104 0 0 1-.002-.006m.002.006.004-.078m-.004.078c-.01.203-.039.557-.109.506m.107-.512c-.063-.155-.012-.523-.056-.593-.021-.034-.024.074-.025.117v.003c-.006.217-.025.432-.04.648-.002.037-.017.2-.016.295m.137-.47a2.387 2.387 0 0 1-.078.427.778.778 0 0 1-.029.085m.107-.512.006-.072m-.143.542c.001.061.009.093.03.042m-.03-.042.006.01a.097.097 0 0 0 .024.032m-.03-.042c-.16-.309-.163-.752-.235-1.088-.031-.15-.259-.872-.38-.355-.01.042-.018.096-.026.158m.784.743c.013-.166.014-.333.014-.502 0-.24-.009.403-.012.448l-.002.054Zm-.784-.743c-.046.37-.058.996-.058.739 0-.266.01-.524.04-.788.03-.266.025-.116.018.05Zm0 0c-.003.083-.007.169-.007.208 0 .289.062.661-.025.942-.001.002-.13-.657-.148-.797-.054-.422-.101-.321-.19.078-.057.254-.088.516-.157.766-.034.124-.034-.258-.034-.307v-.003c0-.228.096-.887-.01-.685-.116.219-.176.962-.19.716-.022-.367.011-.737-.004-1.104-.013-.338-.145.11-.148.215-.005.242.045.522-.005.76-.018.083-.25.498-.372.405-.077-.059-.222-.648-.226-.477-.005.162 0 .326 0 .489v.24c0-.617-.003.601-.05.55-.17-.179-.151-.526-.18-.749-.045-.357-.045-.247-.106 0-.044.18-.092.35-.109.534-.007.08-.018.316-.036.238-.075-.333-.08-.682-.12-1.02-.023-.19-.141.46-.143.489-.006.103.004 1.22-.086 1.19-.13-.043-.319-1.674-.327-.626-.002.25-.012.498-.026.746-.001.029-.025.574-.025.188 0-.277.036-.58 0-.855-.03-.23-.161.434-.251.648-.065.155-.333-.731-.355-.808-.034-.12-.069-.254-.126-.366-.022-.043-.042.196-.045.207-.088.447-.199.898-.324 1.336-.066.233-.005-.485-.005-.727 0-.117.028-.462-.012-.352-.057.16-.06.353-.089.52-.021.122-.05.54-.05.168s.08-.837-.006-1.2c-.039-.164-.288.522-.296.551-.028.101-.055.41-.14.487-.087.078-.011-.235-.011-.353 0-.079-.017-.554-.03-.536-.11.133-.105.341-.222.464-.101.107-.298.04-.368-.067-.223-.34.057-.791-.04-1.152-.029-.11-.304.657-.318.727-.042.206-.08.414-.108.623m0 0a7.407 7.407 0 0 0-.012.095c-.006.045-.02.131.002.059.124-.388-.099.284.095-.3.093-.277.246-.608.246-.908 0-.111-.049.219-.083.325-.08.244-.17.485-.248.73Zm0 0a5.998 5.998 0 0 0-.077.26c-.012.045-.044.178-.044.131v-.754c0-.053.046-.52-.045-.562-.01-.005-.022-.001-.033.009m0 0c-.067.059-.145.334-.168.421m.168-.421c-.005-.133-.015-.263-.023-.378-.019-.283-.094.384-.145.8m.168-.422c.008.219.002.445-.054.625-.022.073-.075.046-.137-.027m.023-.177a1.692 1.692 0 0 0-.033.164m.033-.164a14.19 14.19 0 0 1-.023.177m-.01-.013a2.371 2.371 0 0 0-.023.35c0 .227.028-.297.03-.318a1.8 1.8 0 0 0 .003-.02m-.01-.012.01.013m-.01-.013a2.995 2.995 0 0 1-.325-.583c-.032-.117-.192-1.033-.425-.978-.318.075-.223 1.314-.226 1.52 0 .003-.004.086-.006.197m0 0c-.005.28 0 .74.087.541.083-.189.146-.38.19-.575m-.276.034c.048-.269.088-.54.15-.8.116-.485.056.432.076.575 0 .008.023.096.05.19m-.276.035c-.05.274-.11.544-.216.798-.107.258-.033-.557-.033-.835 0-.417.015-.836-.006-1.252-.018-.35-.119-.119-.168.058-.164.596-.054 1.2-.14 1.8-.044.31-.236-.58-.33-.877-.016-.054-.095-.586-.117-.395-.043.379-.095 1.518-.095 1.138 0-.373.005-.745 0-1.118-.005-.372-.222-.125-.296.098-.076.23-.11.478-.134.718m1.812-.168c.037-.164.06-.332.072-.505.04-.636.005.282.005.444v.275m-.078-.213a1.3 1.3 0 0 0 .078.213m0 0c0 .132.002.264.011.396.001.015.036.246.04.09.003-.183.003-.366.003-.549m-.055.064c.012.02.022.028.03.015a.338.338 0 0 0 .025-.079m0 0-.003-.462m.003.462c.029-.139.002-.329-.003-.462m0 0v-.23.23Zm-1.94.48s0-.001 0 0Zm0 0a.92.92 0 0 0 0 .107m0-.108a5.517 5.517 0 0 1-.044-.18m.044.18c.1.385.255.877.156.648a2.48 2.48 0 0 1-.156-.54m0 0c.005.145.02.363-.022.434-.055.091-.096-.19-.129-.29a1.195 1.195 0 0 1-.018-.062m.169-.082a5.535 5.535 0 0 1-.044-.288m-.125.37a1.866 1.866 0 0 1-.044-.61c.007-.097.01-.253.062-.343.058-.099.063.11.07.291m-.088.662c-.008-.09-.032-.193-.027-.268.009-.118.025-1.084.1-.512l.016.118m-.09.662c.009.093 0 .171-.076.19-.058.015-.214-.273-.23-.302-.2-.38-.306-.79-.533-1.162-.038-.063-.02.145-.02.218 0 .272.038 1.084-.01.816-.049-.264.015-1.05-.079-.8-.098.261-.032.596-.064.87-.012.1-.047-.368-.048-.417-.005-.276-.1-.484-.1-.078 0 .43-.151-.488-.151-.61 0-.078.017-.6-.05-.234-.04.215-.07.434-.098.651-.027.204.021.792-.079.612-.129-.232-.025-.753-.025-1.011 0-.533-.083 1.063-.14 1.593-.028.271-.029-.25-.039-.316-.014-.099-.022-.259-.084-.344-.072-.1-.138.383-.14.391-.022.151-.018.927-.178.984-.18.063-.083-1.516-.073-1.618.078-.744-.069.069-.123.305-.033.146-.179.846-.179.335V64.28c0-.28-.21.518-.28.788-.01.043-.043.603-.17.413-.195-.292-.035-.911-.055-1.252-.02-.318-.147.132-.16.196-.046.235-.047.586-.179.794-.011.018-.06-.456-.061-.503-.002-.22.088-.841-.03-.657-.203.315-.239.864-.3 1.227-.124.738-.035-.725-.148-.663-.216.12-.231.957-.266 1.166-.11.676-.065-.183-.058-.389.001-.05.054-.328.014-.377a9.238 9.238 0 0 0-.285.42c-.075.133-.094.255-.134.396-.035.12 0-.25.01-.374.015-.151.05-.297.082-.445.005-.025.017-.05.014-.075-.002-.018-.012.033-.017.05-.035.133-.06.255-.084.391-.025.144-.034.287-.056.43-.02.13 0-.26 0-.39v-.685c0-.238-.28.376-.301.416-.234.43-.302.19-.302-.162 0-.061.071-.548.04-.48m5.335.293a1.8 1.8 0 0 0 .013.176c.005.033.013.072.023.115m-.036-.29c.012.096.023.194.036.29m-5.37-.584a.526.526 0 0 0-.022.07 11.15 11.15 0 0 0-.124.547m.145-.617c-.01.058-.04.148-.051.195-.025.1-.06.256-.094.422m.145-.617c.007-.043.003-.068-.026-.05-.279.164-.514.605-.663.877-.045.083-.26.84-.257.402.001-.109.006-.216.016-.32m.785-.292c-.046.228-.089.457-.136.685-.055.268.044-.244.136-.685Zm-.785.291a3.18 3.18 0 0 1 .18-.797c.095-.263-.066.429-.18.797Zm0 0c-.014.049-.029.091-.041.125-.12.328-.126-.435-.126-.508 0-.155.086-.798-.12-.867-.045-.015-.222 1.108-.232 1.169-.02.125-.096.496-.1.368-.008-.234 0-.47 0-.704 0-.237.09-.928-.009-.712-.17.37-.197.803-.372 1.17-.143.303.022-.593.167-.983m0 0c.01-.03.021-.056.032-.078.204-.444.086-.17-.032.078Zm0 0a7.514 7.514 0 0 1-.04.084c-.042.084-.257.754-.25.408.011-.47.144-.89.252-1.342.004-.015.06-.188-.02-.09-.207.26-.346.588-.475.891l-.002.007c-.122.287-.2.647-.372.911-.04.06-.035-.224-.034-.24.004-.067.122-.69.098-.702-.024-.012-.521.946-.542.984-.418.775.061-.347.145-.548.02-.048.232-.458.202-.52-.021-.041-.046.082-.068.123-.11.209-.084.167-.206.42-.06.121-.23.644-.411.676-.108.019-.073-.523-.07-.57.002-.029.003-.07.007-.112m0 0c.006-.084.022-.18.066-.23.097-.11.034.031-.066.23Zm0 0c-.096.189-.225.43-.28.559-.084.192-.153.472-.272.651-.065.097.013-.236.05-.347.101-.302.244-.594.378-.883.002-.004.192-.322.13-.251-.16.187-.315.363-.457.547m0 0a3.476 3.476 0 0 0-.434.702c-.194.43.146-.133.196-.23.022-.041.158-.292.238-.472Zm0 0c.073-.164.1-.27-.042-.114-.334.366-1.087 1.62-.945 1.146l.218-.722m0 0c.076-.252.15-.505.218-.76.03-.113.115-.36.061-.06-.071.399-.279.795-.279 1.204v-.384Zm0 0v-.572c0-.04.033-.672-.162-.422-.228.291-.265.753-.335 1.104-.06.302.013-.617.033-.925.04-.612-.087.027-.14.251-.017.072-.251.966-.251.545 0-.22-.023-.463 0-.691m0 0a1.37 1.37 0 0 1 .025-.157m-.024.157c-.164.293-.398.694-.507.895-.004.008-.197.374-.184.333.069-.231.2-.452.31-.665.039-.076.097-.197.158-.323m.223-.24c.154-.276.246-.456.116-.284a3.72 3.72 0 0 0-.092.127m0 0a1.1 1.1 0 0 1 .014-.054c.056-.201-.111.142-.26.45m.246-.396c-.088.128-.17.261-.247.397m0 0c-.12.21-.23.425-.343.636-.062.116-.03-.582-.028-.646.004-.067.111-.625.045-.676-.036-.029-.078.053-.106.09-.092.117-.172.244-.26.365m0 0-.003.003c-.231.314-.913 1.26-.71.928.222-.362.43-.77.702-1.096.035-.042.026.103.01.165Zm0 0a.136.136 0 0 1-.003.009c-.068.23-.215.433-.318.648-.142.297-.174.475-.174.09m-.05-.654c0 .276.004.55-.084.816-.027.083-.103.349-.201.39-.023.01.048-.528.053-.564l.019-.141m0 0 .015-.106m-.015.106c.066-.15.152-.432.168-.49.058-.203.015-.195-.033-.094m-.135.584a.457.457 0 0 1-.041.078m.055-.184c.02-.14.046-.275.096-.415a.701.701 0 0 1 .025-.063m-.12.478c.05-.166.108-.37.12-.478m-.12.478-.053.175-.003.009m.176-.662c.008-.07-.005-.099-.056-.043-.046.05-.084.102-.121.154m0 .55c-.028.04-.045.016-.036-.126.01-.14.026-.282.036-.424m0 .55c-.048.157-.134.26-.145.011-.004-.11-.006-.222-.013-.331m.158-.23c.01-.131.013-.263 0-.394-.018-.198-.278-.138-.396-.075m.396.47c-.054.076-.102.155-.158.229m-.238-.699a1.565 1.565 0 0 0-.426.366m.426-.366c.02.019.04.043.059.072.13.194.166.407.18.627m-.24-.699c-.117-.112-.24-.054-.356.079m-.07.287a3.055 3.055 0 0 0-.092.116m.093-.116a7.637 7.637 0 0 0 .069-.287m-.07.287c-.039.151-.082.3-.12.452-.003.009-.009.043-.016.08m.044-.416c-.038.05-.076.102-.113.155m.113-.155a6.166 6.166 0 0 1-.107.305m.107-.305c.035-.107.068-.215.099-.323m-.212.478a6.03 6.03 0 0 0-.022.031m.022-.031c.022-.076.041-.138.048-.157l.053-.143m-.1.3a7.579 7.579 0 0 0-.021.072m-.002-.04a.773.773 0 0 0-.008.01m.008-.01.002.04m-.002-.04a6.215 6.215 0 0 1-.002-.087m-.006.097-.11.16m.11-.16a.908.908 0 0 1-.013-.058m.013.058.009.032m-.12.128c-.029.042-.058.084-.088.124-.107.146.038-.13.177-.396m-.088.272c.028-.064.06-.139.097-.218m-.098.218c-.03.068-.055.124-.074.16-.017.032-.126.395-.162.397-.09.006-.111-.191-.112-.384m.437-.445.026-.05m-.026.05a1.35 1.35 0 0 1-.012-.227c.006-.224.031.083.038.177m-.026.05.01.055m.016-.105c.055-.107.107-.208.138-.275.117-.251.048-.064-.011.095m-.127.18.001.024v.04m.126-.244c.035-.064.073-.124.11-.178m-.11.178c-.045.079-.087.163-.125.245m.004.127-.001.002m0-.002v.005m0-.003c-.052.183-.104.387-.049.26.02-.044.04-.09.057-.136m-.008-.124v.003m.008.12.02-.047m-.02.048.013.114c.023.159.052.042.07-.05m-.083-.064a2.872 2.872 0 0 1-.007-.121m.026.073a.727.727 0 0 1-.026-.073m.026.073a.53.53 0 0 0 .063.111m.143-.739.054-.188c.094-.332.045-.066.009.108m-.063.08c.02-.029.042-.056.063-.08m-.206.82c.11.144.29.19.555.03a.858.858 0 0 0 .246-.23m-.894-.117-.019.04m-.446.39c-.001-.157.011-.31.011-.348l.002-.157m-.013.505c.042-.15.028-.588.018-.575m-.018.575c-.008.027-.017.044-.028.049-.07.03.007-.153.014-.23.01-.108.019-.216.027-.325m0 0a.313.313 0 0 1 .005-.07m-.005.07.005-.07m0 0 .018-.222c.012-.125.12-.636-.097-.366-.224.277-.294.63-.459.94-.196.367-.123-.21-.123-.35 0-.05.02-.743-.022-.74-.114.004-.223.123-.317.28m0 0a2.91 2.91 0 0 0-.287.72c-.038.17.396-.706.287-.72Zm0 0c-.018-.002-.05.019-.102.071-.197.201-.239.48-.26.75-.008.094-.002-.456-.003-.543 0-.082.003-.317-.123-.162-.126.154-.76 1.184-.967 1.098-.096-.04 0-.68.028-.768.046-.143.077-.215.098-.238m0 0c.07-.079.018.407.011.587a6.643 6.643 0 0 0-.003.116m-.009-.703c.037.217.01.456.01.668v.035m-.01-.703a.886.886 0 0 0-.041-.16c-.123-.332-.196.147-.223.283-.033.161-.093.736-.291.785-.082.021-.178.025-.276.022m.84-.227c-.002.122 0 .201 0 0Zm-.84.227c-.089-.002-.18-.01-.266-.015m.266.015c-.093.195-.254.295-.266-.015m.266.015a.698.698 0 0 0 .052-.15c.018-.082.028-.165.034-.25m-.352.385a2.558 2.558 0 0 0-.134-.007.465.465 0 0 1-.078-.006m.212.013v-.037c0-.085.06-.71-.062-.73-.135-.022-.11.484-.117.534-.01.074-.021.147-.033.22m0 0a.27.27 0 0 1-.029-.007m.03.007a7.482 7.482 0 0 0-.013.083m-.017-.09a.137.137 0 0 1-.103-.103m.103.103c-.02-.25-.01-.502-.01-.752l-.001-.034m.011.786v.002c.002.016.01.05.017.088m-.12-.193a.36.36 0 0 1-.01-.08m.01.08-.009.056m.01-.056c.03-.192.056-.455.072-.599m-.083.52c-.002-.052.002-.112.002-.179v-.004m-.002.183.002-.183m-.002.183.001.135m0-.318v-.064m0 .064v-.064m0 .064c.029-.112.057-.225.082-.337m-.082.337s0 0 0 0Zm0 0c-.026.105-.053.21-.078.317l-.001.007m.08-.388c-.001-.147-.004-.233 0 0Zm-.001.382c.001.046.003.094.006.14m-.006-.14a1.48 1.48 0 0 1-.02.098m.026.042c.011.147.036.284.092.368.041.06.011-.13.013-.218m-.105-.15c.039.059.079.118.105.15m-.105-.15a5.643 5.643 0 0 1-.027-.041m.132.19.001-.016c.005-.046.01-.091.017-.136m-.018.153c.016.018.026.027.03.022.015-.028.001-.11-.012-.175m.576-.454v-.013m0 .013v-.148m0 .147c0 .195.002.164 0-.012m0 0c.008-.114.006-.23.004-.346m-.003.346-.001-.135m.004-.21c-.002-.084-.004-.167-.004-.248v.448m.004-.2-.004.2m.004-.2c.003-.31-.012-.816-.214-.765-.298.074-.327.362-.377.617a5.633 5.633 0 0 1-.017.084m.604.264v.01m0-.01v.01m-.604-.274a8.417 8.417 0 0 1-.019.084m.019-.084c-.002-.05-.008-.007-.019.084m-.161.66c-.052.21-.268.75-.11.614.102-.087.136-.397.167-.517l.001-.004m-.058-.092.058.093m-.058-.093a4.515 4.515 0 0 1-.018-.03c-.065-.122-.197-.72-.378-.72-.322 0-.516.498-.63.8m0 0-.001.004m.002-.005a2.77 2.77 0 0 0-.002.095m.002-.095c.008-.258.036-.514-.198-.173a1.931 1.931 0 0 0-.059.091m.255.087-.05.132c-.115.281-.353 1.145-.353.841 0-.224.091-.413.19-.61.099-.193.213-.834.213-.617v.254Zm0 0v.09m0 0v.53m-.255-.707c-.074.122-.052.127 0 0Zm0 0c.016-.039.034-.09.054-.153.016-.054.156-.624.114-.598-.19.117-.286.417-.31.623-.034.291-.006-.068-.006-.159 0-1.163-.064.273-.15.23-.066-.034.007-.808.01-.878.004-.067.114-.798-.019-.467-.067.169-.142.334-.215.5-.076.174-.196.706-.23.52-.054-.304.032-.647.048-.953.01-.17 0-.2-.098-.047-.109.17-.219.338-.323.511m0 0c-.03.05-.06.1-.088.15m.088-.15c-.026.05-.056.1-.088.15m.088-.15a.96.96 0 0 0 .041-.087c.005-.01.013-.044.009-.033-.051.11-.107.216-.169.318m.031-.049-.002.005c-.078.136-.256.572-.218.419.022-.09.068-.177.12-.265m.1-.159-.03.05m-.07.11.07-.11m-.07.11.07-.11m-.07.11a4.291 4.291 0 0 1-.204.286c-.014.018-.456.572-.48.48-.098-.35.265-.884.427-1.165.126-.218.208-.323-.059-.075a1.55 1.55 0 0 0-.023.022m0 0c-.265.251-.55.598-.675.942-.11.297.117-.054.159-.117.163-.248.414-.526.516-.825Zm0 0a.875.875 0 0 0 .034-.134c.038-.22-.555.113-.592.143-.053.043-.101.09-.151.137-.056.052-.147.23-.168.156-.003-.013.005-.034.022-.06m0 0c.065-.103.248-.282.31-.349m-.31.349a5.53 5.53 0 0 0 .146-.158l.165-.19m-.31.348c-.137.14-.285.274-.115-.004.081-.132.535-.511.461-.696-.034-.086-.377.317-.565.55m.529-.199a2.04 2.04 0 0 0 0 0Zm-.53.198-.105.135m.106-.135a.744.744 0 0 1-.106.135m.106-.135a.432.432 0 0 0 .04-.085c.056-.168-.09.067-.247.314m.1-.094a1.194 1.194 0 0 1-.144.163m.145-.163a1.577 1.577 0 0 1-.101.094m-.044.068a3.57 3.57 0 0 1-.177.161m.177-.16.044-.069m-.044.068a4.143 4.143 0 0 1-.32.448m.143-.287c-.119.1-.209.162-.142.086.047-.053.107-.105.172-.159m-.03.073c-.043.099-.09.196-.142.287m.142-.287.03-.073m0 0c.062-.05.129-.102.19-.156m-.19.156c.08-.194.145-.393.197-.576.051-.175.134-.575-.178-.386-.195.118-.376.28-.543.457m.352.865c-.163.212-.407.533-.223.321.083-.095.157-.204.223-.32Zm-.352-.865a6.653 6.653 0 0 0-.446.539m.446-.539a.085.085 0 0 1 .031.058m-.03-.058a.134.134 0 0 0-.067-.03m-.38.569-.046.06c-.064.087-.052.105-.005.089m.051-.15c.092-.086.184-.173.273-.263.07-.07.137-.143.204-.217m-.477.48c-.07.068-.142.134-.213.201-.008.008-.157.143-.185.188-.019.03.068-.027.098-.048.03-.02.13-.094.249-.191m0 0c.093-.033.323-.2.36-.237.194-.188.34-.447.5-.662.032-.041.096-.147-.016-.05a3.755 3.755 0 0 0-.316.319m-.528.63c.236-.193.546-.48.528-.63m-.098-.088c-.236-.034-.614.523-.687.624-.055.075-.246.29-.246.402 0 .015.412-.427.425-.444.088-.11.393-.373.508-.582Zm0 0a.29.29 0 0 0 .045-.147c-.009-.17-.752.435-.802.489-.065.068-.217.308-.17.226.064-.114.142-.217.229-.316.153-.173.633-.482.642-.74.008-.217-.743.29-.762.304-.001 0-.523.37-.523.366.007-.25.57-.694.732-.872.038-.041.266-.22.19-.324-.103-.142-.277-.035-.435.126m0 0c-.169.172-.32.403-.353.458-.027.047-.06.115-.095.183m.448-.64a4.347 4.347 0 0 1-.28.449l-.168.191m.448-.64c.064-.124.098-.22.036-.205a.98.98 0 0 0-.341.194m-.143.651a.648.648 0 0 1-.14.195c-.082.066.024-.062.14-.195Zm.143-.65a2.91 2.91 0 0 0-.208.184m.208-.185c.077-.136.102-.199.005-.102a1.425 1.425 0 0 0-.213.288m.208-.186c-.132.232-.414.676-.495.896-.078.21-.044.076.011-.04.095-.198.212-.416.259-.64m.017-.03-.014.013m.014-.014-.017.03m.003-.016a5.189 5.189 0 0 0-.142.146c-.055.06-.271.514-.154.36.113-.146.197-.323.293-.49m.003-.016a.754.754 0 0 1-.003.016m.003-.016a.915.915 0 0 0 .017-.172c0-.123-.559.383-.603.422-.166.145-.326.297-.492.441-.123.108.132-.268.15-.31.06-.13.065-.274.086-.413m0 0a.717.717 0 0 1 .08-.258c.065-.113-.007.076-.08.258Zm0 0-.107.265c-.083.212-.221.543-.095.095.054-.194.303-.716.148-.587-.157.13-.287.47-.36.654-.116.285-.11.416-.146.017-.018-.191.004-1.221-.42-.755-.193.213-.372.474-.424.76-.025.138.006-.28-.003-.419-.01-.166-.083-.396-.238-.156-.108.169-.257.746-.257.545l.003-.055m0 0c.01-.149.042-.494.042-.356 0 .117.023.253-.042.356Zm0 0a.232.232 0 0 1-.011.016c-.179.238-.153-.328-.16-.406 0-.003-.055-.39-.078-.324-.032.094-.04.273-.038.435m0 0c.004.233.027.431.027.289 0-.098-.01-.194-.027-.289Zm0 0c-.04-.237-.11-.468-.124-.709-.01-.173-.057.32-.072.397-.004.017-.032.314-.081.224-.154-.282-.21-.608-.338-.9-.13-.293-.344-.314-.361.033-.017.34.135.435.265.71.012.024.042.137.063.166m0 0c.011.016.02.006.021-.06.005-.202 0-.808 0-.606 0 .222-.01.444-.021.666Zm0 0c-.014.266-.029.532-.029.798 0 .13-.037-.038-.056-.084-.112-.272-.192-.555-.324-.818-.048-.097-.023.281-.023.324 0 .173 0 .346.012.52.016.248-.09-.132-.118-.174-.196-.305-.602-.76-.967-.872-.047-.014.278.774.38.929m0 0a.23.23 0 0 0 .009.013c.07.09.245.387.187.288a2.902 2.902 0 0 1-.255-.574m.058.273-.058-.273m.058.273c.074.345.134.648.09.474-.079-.319-.285-.629-.45-.91-.305-.526-.253.15-.253.413m.555-.25a2.861 2.861 0 0 1-.1-.407c-.027-.165.031.09.1.407Zm-.555.25v.549m0-.549v-.123m0 .672v.049m0-.05.008.014c.124.191-.008-.457-.008-.685m0 .672c-.128-.193-.278-.346-.35-.571-.1-.316-.101-.138-.103.098v.008c0 .06.008.905-.028.9-.072-.01-.21-.664-.263-.76-.087-.162-.145.271-.15.318-.005.042 0 .515-.062.478-.063-.038-.165-1.427-.277-.794-.015.089-.062.77-.078.392-.004-.092-.093-.582-.098-.232-.002.15.047.38-.005.525-.095.261-.095-.176-.095-.234 0-.575-.439.448-.26-.045a2.41 2.41 0 0 1 .287-.537c.065-.094.247-.257.252-.386.004-.094-.484.414-.517.456-.372.47.12-.32.103-.327-.178-.082-.725.583-.88.665-.427.226.059-.333.137-.397.048-.039.795-.658.766-.67-.127-.055-.244.127-.358.205m1.979.236v-.134m-1.98-.102-.002.001c-.035.023-.159.115-.273.201m.276-.202c-.196.337-.762.685-.984.842l-.093.07m1.076-.912a.438.438 0 0 0 .068-.217c0-.188-.904.262-.961.294-.03.016-.51.28-.28.109.1-.075.194-.185.29-.269.067-.057-.44.26-.544.336-.268.197-.067-.063.042-.151.07-.058.609-.412.276-.212-.375.225-.832.33-1.252.435-.578.145.42-.297.534-.357.32-.169.036-.2-.15-.151-.043.01-.102.03-.166.054m1.868.331c-.119.09-.226.174-.205.165.052-.02.374-.218.302-.198a.89.89 0 0 0-.097.033Zm0 0c-.285.116-.517.375-.705.601-.037.045-.07.08-.096.109m0 0c-.107.11-.13.101 0 0ZM8.454 63.72c-.216.08-.488.205-.343.192.107-.01.238-.103.343-.192Zm0 0a2.68 2.68 0 0 0 .115-.105c.017-.015.146-.114.04-.114-.087 0-.173.008-.259.021m0 0c-.266.042-.533.133-.79.189-.277.06.392-.063.79-.189Zm0 0c.074-.023.138-.046.185-.069.247-.116.002-.123-.122-.123-.169 0-.376-.008-.565.022m0 0a.83.83 0 0 0-.296.099c-.132.079.066.004.296-.1Zm0 0c.158-.071.33-.155.42-.212.154-.097.396-.212.094-.212-.249 0-.518-.029-.77-.002m0 0a1.525 1.525 0 0 0-.096.013c-.048.008.366-.127.447-.15.358-.104-.136.038-.238.086-.04.02-.077.036-.113.05Zm0 0a.62.62 0 0 1-.275.052c-.14-.004-.02-.121.047-.148.363-.145-1.557.004-1.17-.053.13-.02.248-.065.371-.112.17-.064.645-.15.752-.304.016-.024-.743.09-.8.103-.243.06.46-.314.526-.352.022-.013.663-.369.509-.461a.26.26 0 0 0-.204-.023m0 0c-.189.047-.39.24-.512.322-.189.126.2-.132.512-.322Zm0 0c.097-.06.186-.112.248-.145.216-.113.305-.124.014-.112a2.934 2.934 0 0 0-.79.165m0 0c-.227.075-.451.164-.671.24-.077.027-.17.064-.003.034.216-.038.46-.1.64-.232a.137.137 0 0 0 .034-.042Zm0 0c.013-.022.025-.045.044-.056.034-.018.23-.043.23-.09 0-.054-.633 0-.71-.033-.045-.019.063-.075.106-.097.26-.141.546-.231.819-.344.024-.01.746-.362.505-.352a2.796 2.796 0 0 0-.29.028m0 0c-.332.048-.671.143-.992.2-.264.048-.358.142-.025.118a2.758 2.758 0 0 0 1.04-.307c.007-.004-.003-.008-.023-.011Zm0 0a5.644 5.644 0 0 0-.478-.028c-.653 0 .042-.276.282-.414.045-.026.555-.314.498-.402-.122-.186-.666-.09-.847-.09-.476 0 .015-.22.198-.358.23-.172-.187-.098-.296-.086-.445.05-.868.169-1.32.19-.021 0-.053.02-.066.003-.043-.057.139-.033.207-.056.52-.176 1.028-.403 1.531-.62.157-.069.496-.111.436-.272-.02-.053-.123-.066-.225-.067m0 0c-.086 0-.171.009-.202.009-.243 0-.447.091-.674.1-.048.002-.161.01-.199-.008m1.075-.1a1.35 1.35 0 0 0 .088-.037c.084-.038-.66.045-.757.056-.106.012-.255.051-.406.08m1.075-.1a.945.945 0 0 1-.35.059m-.725.042c-.013-.006-.017-.015-.008-.028m.008.028-.075.014m.067-.042a.183.183 0 0 1 .056-.042c.082-.047.04-.017-.056.042Zm0 0-.067.042m0 0c-.161.097-.397.233-.52.282-.092.037.115-.142.045-.142-.135 0-.535.159-.154 0a1.8 1.8 0 0 0 .239-.167m.39.027c-.138.023-.271.032-.369 0-.018-.006-.023-.016-.021-.027m0 0c.053-.041.089-.073.074-.068-.011.004-.068.04-.074.068Zm-.22-.28h.065m0 0h.198m-.198 0c.085-.038.281-.062.45-.067m-.45.066c-.026.012-.042.025-.042.04 0 .009.115-.012.24-.04m0 0h.073c.155 0 .566.078.464-.039-.02-.024-.143-.032-.284-.027m-.253.066c.094-.02.193-.046.253-.066m0 0c.058-.02.078-.034.016-.034-.154 0-.452.125-.23-.076.285-.256-.242-.138-.38-.103-.159.04.34-.093.37-.1.165-.043.68-.073.508-.073h-.676c-.247 0-.18.001.017-.028.338-.05.672-.122.995-.24.146-.055.194-.084.039-.084h-.59c-.05 0-.424.011-.215-.101.118-.064 1.235-.546.676-.553-.14-.002-.913.05-.414-.05.116-.024.226-.051.344-.051H6.2c-.11 0-.44.014-.33 0 .145-.018.266-.07.402-.126.118-.047 1.089-.176.631-.176-.244 0-.975.024-.732 0 .18-.018.362-.043.54-.078.082-.017.583-.123.234-.123-.144 0-1.244.037-.642-.126.308-.084.623-.15.936-.215.132-.027.394-.062.095-.062-.259 0-.616.07-.867-.002-.136-.04.563-.348.615-.372.234-.108.449-.275.062-.28H6.74m0 0h-.035.035Zm0 0c.31-.002.61-.032.918-.072.035-.005.406-.028.162-.028h-.836c-.032 0-.313.004-.12 0 .284-.005.57-.049.85-.1.037-.008.594-.132.33-.202-.265-.07-.56-.05-.83-.05-.092 0-.375-.007-.154-.14.509-.306 1.195-.233 1.75-.414.17-.055-.045-.05-.096-.05a2.2 2.2 0 0 1-.869-.17c-.08-.034-.179-.232-.045-.277.084-.028.07-.027-.036-.056-.268-.075-.551-.105-.827-.14-.042-.005-.26-.023-.187-.131.05-.077.335-.03.41-.03.073 0 .877.009.708-.104a.45.45 0 0 1-.128-.163m0 0c-.034-.075-.024-.126.108-.038.062.041.195.087.268.041.007-.004.003-.012-.007-.024m-.369.021c-.244-.12-.448-.512-.054-.301.013.007.078.044.153.09m-.099.211c.023.011.046.02.069.026.057.014.623.1.654.039.04-.08-.177-.03-.263-.056l-.09-.03m0 0a1.704 1.704 0 0 0-.27-.19m.269.19a.654.654 0 0 1-.239-.138.18.18 0 0 1-.03-.051m0 0c-.066-.148-.135-.518.02-.468.174.056.346.123.519.19m0 0c.15.058.3.116.453.167.09.03.18.057.268.09.115.042.16.064 0 .05h-.003c-.247-.022-.528-.047-.763-.131-.142-.052-.068-.172.045-.176Zm0 0h.006c.227 0 .435.098.654.142.264.053.21-.13.102-.297m0 0a1.076 1.076 0 0 0-.186-.22c-.014-.01-.145-.135-.201-.188m.387.408a.952.952 0 0 1-.293-.069c-.102-.057-.186-.235-.127-.35m.42.42c.033-.002.054-.012.051-.036-.023-.176-.235-.28-.371-.347a.743.743 0 0 0-.067-.026m0 0a2.572 2.572 0 0 0-.026-.024.18.18 0 0 0-.007.012m.033.012-.033-.012m0 0c-.116-.04-.279-.096-.314-.158-.043-.074.18-.016.257.023.15.076.966.544.685.095-.13-.208-.69-.641-.633-.536m0 0a.233.233 0 0 0 .023.032m-.023-.032.023.032m-.023-.032c-.103-.148-.197-.328-.04-.297.202.04.398.103.603.134.08.012-.361-.098-.439-.12-.04-.012-.355-.104-.305-.204.034-.066.392-.022.445-.022.696 0-.074-.022-.308-.104-.23-.081.062-.131.143-.148a2.25 2.25 0 0 0 .606-.196c.13-.067.115-.06-.03-.044l-.19.018m-.462 1.015s0 0 0 0c.052.064.106.122.164.176m-.164-.176c.054.074.106.135.12.146a.99.99 0 0 0 .044.03m0 0c.069.063.144.119.23.166.234.127-.1-.081-.23-.166Zm.297-1.19c-.187.017-.378.034-.558.07-.126.025.26.021.385-.011a.667.667 0 0 0 .173-.06Zm0 0c.103-.07-.433-.059-.544-.084-.077-.017.147-.06.21-.109.166-.128.38-.17.575-.237.507-.177-.109-.154-.285-.154h-.343m0 0h-.099.1Zm0 0a.446.446 0 0 0 .091-.011c.206-.05 1.018-.182.414-.19-.347-.005.18-.26.302-.29.213-.055.13-.222-.034-.087-.082.067-.145.15-.24.204-.107.06-.379.23-.35.111.057-.227.29-.426.45-.58.235-.227-.381-.084-.016-.213.215-.077.439-.124.654-.201.043-.016.434-.146.19-.146-.164 0-.59.194-.358-.064.18-.2.64-.36.157-.341-.314.012-.61.08-.89.226l-.008.005m0 0c-.088.05-.191.175-.055.051l.055-.05Zm0 0c.18-.166.353-.33.562-.463.345-.22-.004-.008-.15.056-.085.036-.25.098-.336.134-.067.028-.211.145-.204.073.01-.106.166-.245.237-.313.08-.076.366-.181.389-.282.003-.013-.553.23-.59.248-.236.115-1.273.555-.598.04.132-.101.41-.207.503-.347.107-.16-.348.163-.508.268-.172.112-.35.202-.084-.022.169-.143.4-.257.545-.425.078-.091-.223-.049-.249-.045-.277.04-.525.185-.774.305-.155.074-.258.097-.064-.037.19-.13.377-.29.584-.393.18-.09-.115-.003-.143.008-.352.132-.662.36-1.023.475-.234.075.337-.32.341-.322.12-.073.833-.352.85-.505.01-.095-1.21.57-.794.293.256-.17.523-.296.794-.439.217-.115-.154 0-.182.012-.367.155-.718.353-1.11.447-.557.133.145-.33.269-.414.071-.049.58-.39.162-.193-.292.138-.595.376-.911.45-.043.01-.11-.001-.084-.061.082-.184.314-.183.425-.319.143-.176-.433.156-.615.29-.257.19.066-.052.123-.1.078-.065.686-.445.439-.461-.2-.013-.396.019-.584.087-.118.042.18-.176.288-.24.295-.18.615-.29.947-.38.203-.056-.211-.006-.24 0-.274.053-.529.168-.786.273-.19.078-.208.063-.053-.084.23-.218.531-.264.827-.343.092-.025.525-.094.593-.205.057-.092-.215.033-.321.056-.452.1-1 .218-1.46.218-.03 0 .321-.185.361-.2.402-.164.811-.335 1.2-.529.135-.068.09-.183-.048-.204-.243-.037-.517-.022-.762-.009h-.004c-.541.03.557-.367.715-.394.325-.053-.561.046-.413-.083.232-.203 1.2-.198.894-.232-.119-.014-.882-.08-.802-.257.086-.191.283-.262.478-.283.053-.005.136-.009.225-.01m0 0c.239-.006.518 0 .373 0h-.373Zm0 0h-.432c-.034 0-.626-.017-.564-.062.2-.148.558-.13.79-.137.032-.001.436-.003.176-.003-.432 0-.864.004-1.296-.003-.004 0-.91 0-.693-.17.328-.26.889-.29 1.285-.347.14-.02.324-.004.447-.087.268-.178-.534-.142-.66-.15-.214-.014.25-.048.27-.048.258-.002.611.066.86-.022.37-.131-.477-.194-.56-.218-.547-.163.312-.162.5-.162h.007c.464 0-.316-.155-.42-.18-.268-.06-.945-.26-.262-.32.078-.008 1.018-.054.567-.054-.183 0-1.354.08-1.308-.223.028-.184.366-.144.492-.154.253-.02.322.013.067-.07-.204-.067-.391-.144-.603-.181-.057-.01-.235-.037-.093-.101.291-.13 1.267-.021.953-.078-.156-.029-.302-.088-.452-.137-.034-.011-.304-.06-.246-.084.299-.13.678-.107 1.027-.09m0 0c.109.006.215.012.314.012.171 0 .137-.08.051-.158m-.365.147c.121-.051.245-.096.365-.147m-.365.147a3.187 3.187 0 0 0-.083.036c-.091.041-.374.12-.274.126.112.006 1.125-.09.78.229-.11.102-1.12.418-1.101.5.048.216.794.105.942.075m.101-1.113a.807.807 0 0 0-.224-.144c-.027-.01-.305-.05-.204-.1a.582.582 0 0 1 .191-.054m.237.298a2.68 2.68 0 0 0 .156-.072c.34-.17-.026-.216-.393-.226m0 0c.16-.02.339.003.482.003.244 0-.038-.018-.109-.025-.09-.01-.663.011-.69-.106-.087-.378 1.506-.09.483-.381m-.166.51c-.241-.007-.483.002-.524.002-.587 0 .018-.209.243-.308.15-.065.298-.136.447-.204m0 0c-.122-.035-.28-.078-.483-.13-.261-.07-.338-.11.006-.185.211-.047.423-.067.637-.074m-.16.389c.124-.057.25-.111.378-.159.007-.002.352-.115.31-.134-.116-.051-.318-.08-.528-.096m0 0c.09-.004.182-.005.274-.005h-.337m.063.005a4.31 4.31 0 0 0-.063-.005m0 0h-.62c-.264 0 .179-.027.62 0Zm-.429-.301c.052-.047.108-.09.167-.13m0 0c.168-.112.361-.197.546-.262.509-.18-.18.082-.305.14-.082.038-.161.08-.24.122Zm0 0c-.078.041-.155.084-.234.124-.084.043-.094.046-.141.07m0 0a8.478 8.478 0 0 0 0 0Zm0 0c.003 0 .005-.002.007-.003.459-.252.881-.508 1.263-.872.576-.548-.667.534-.749.397-.017-.029.062-.088.073-.104a5.11 5.11 0 0 0-.341.227c-.207.178-.398.38-.62.54-.176.125.116-.165.12-.168.009-.009.296-.266.237-.26-.082.008-.75.31-.464.12.354-.236.819-.347 1.14-.623.14-.121.04-.105-.065-.055m0 0a.729.729 0 0 0-.03.015c-.171.093-.338.194-.508.29m.538-.305c-.007.03-.064.072-.2.136-.078.036-.21.104-.338.17m.538-.306c.012-.046-.103-.057-.223-.066m-.315.371a6.092 6.092 0 0 1-.291.158c-.134.067.07-.043.291-.158Zm.315-.37a.78.78 0 0 1-.015-.002m.015.001c-.027.019-.035.022-.015 0m.015 0c.097-.065.426-.33.478-.371.051-.04.371-.287.112-.224l-.059.016m-.546.578c-.134-.01-.267-.019-.222-.074.04-.05.2-.163.379-.294m-.157.368a.61.61 0 0 1 .013-.013c.043-.043.386-.358.533-.565m-.389.21c.048-.036.098-.072.146-.11m-.146.11c-.252.143-.473.257-.547.3-.194.111.43-.268.492-.302.066-.036.133-.073.201-.107m-.146.109a9.67 9.67 0 0 0 .303-.18m-.157.07c.115-.086.226-.175.308-.255m-.308.256c.052-.026.104-.05.157-.07m.151-.186c.091-.089.146-.165.128-.213a.124.124 0 0 0-.098-.08m-.03.293c-.01-.026-.048-.034-.126-.014-.11.027-.321.142-.46.223m.586-.209c.009.024-.006.064-.036.113m.066-.406-.005-.001m.005 0c.11-.063.22-.126.316-.21l.002-.002m-.318.213a3.07 3.07 0 0 0-.13.08c-.178.116-.317.295-.485.422m.61-.503a.359.359 0 0 0-.14.009m.14-.01c.067-.04.121-.075.142-.091.023-.018.102-.08.181-.12m-.323.212c-.196.119-.502.286-.405.17l.046-.052m.219-.11a.887.887 0 0 0-.173.063m.173-.062-.154.078a1.878 1.878 0 0 1-.065.03m.219-.108c.09-.046.18-.092.271-.135.01-.004.125-.056.203-.098m-.647.295c-.104.05-.157.097-.046.047m.046-.047-.046.047m.046-.047c.273-.268.644-.437.905-.72.108-.116.214-.333-.025-.337-.274-.006-.524.134-.766.245-.33.153-.003-.154.101-.234.034-.027.381-.263.224-.263-.189 0-.507.04-.23-.19.072-.06.654-.622.531-.598-.113.021-.253.125-.374.24m.28 1.562c.046-.023.078-.044.072-.05-.011-.011-.05.028-.071.05Zm0 0a.462.462 0 0 0-.01.012m0 0c.08-.04.162-.059.188.014.054.148-.23.383-.572.605m-.55.096a.922.922 0 0 1-.096.064c-.082.047-.017.003.097-.064Zm.55-.096a.796.796 0 0 1-.029.042m.029-.042a7.191 7.191 0 0 1-.115.073m.086-.03c-.029.008-.058.018-.086.03m.23-2.267a1.721 1.721 0 0 0-.213.242c-.01.013.101-.11.212-.242Zm0 0c.135-.161.272-.335.186-.287-.294.169-.605.313-.897.484-.04.023.189-.181.235-.22.21-.183.425-.498.57-.722.213-.33-.128-.249-.29-.16-.04.022-.212.126-.355.213m0 0c-.18.109-.313.192-.084.056a1.03 1.03 0 0 0 .084-.056Zm0 0c.155-.114.285-.264.433-.358.299-.188-.064-.157-.277-.069m0 0a.397.397 0 0 0-.103.058c-.037.032.027-.005.103-.058Zm0 0c.13-.092.297-.235.042-.165-.373.101.252-.27-.1-.056-.184.111-.491.202-.7.257-.305.08.496-.39.738-.593.063-.052-.418-.014-.497 0-.103.019-.03-.043.022-.114.058-.079.119-.137.157-.17m0 0c.048-.04.063-.042 0 0Zm0 0a3.393 3.393 0 0 1-.19.12c-.262.153-.291.007-.073-.154.053-.04.275-.13.1-.073m-.452.151c.088-.264.682-.534.682-.794 0-.094-1.071.32-1.163.28-.004-.002.416-.601-.072-.14-.085.08-.315.333-.263.23a.858.858 0 0 1 .06-.103m0 0a.911.911 0 0 1 .253-.25c.18-.112.128-.085-.014.053a2.185 2.185 0 0 1-.238.197Zm0 0c-.135.098-.279.189-.412.287-.002.001.23-.41.302-.526.287-.463-.612.229-.721.28-.297.138.869-.977.62-.763l-.01.008c-.123.106-.27.232-.418.296-.022.01.264-.396.327-.472.065-.076.187-.147.18-.263-.008-.106-.609.176-.677.199-.016.005-.396.126-.274.039.356-.255.757-.446 1.13-.676.144-.09.273-.185.393-.305m0 0a.09.09 0 0 0 .003-.003c.057-.057-.02-.013-.128.05m.125-.047c.212-.089.45-.229.517-.338.008-.013-.159 0-.334.014m-.183.324a1.8 1.8 0 0 1-.125.048m0 0c-.065.039-.14.085-.203.121m.203-.121c-.028.009-.054.017-.078.023m-.125.098c-.03.018-.058.033-.08.043-.223.11-.29.239-.014.028l.094-.07Zm0 0c.04-.03.082-.063.125-.098m0 0c.143-.116.29-.25.386-.395m-.386.395a.536.536 0 0 1-.085.016c-.117.01-.006-.235 0-.352a.558.558 0 0 1 .031-.157m.44.098a.75.75 0 0 0 .074-.137c.047-.118-.202-.064-.479.027m.405.11a3.135 3.135 0 0 1-.376.02c-.036-.008-.04-.058-.029-.13m0 0-.035.012m.035-.012c.006-.034.015-.073.027-.114m-.062.126a6.012 6.012 0 0 0-.618.246c-.07.042-.16.174-.095.011.108-.268.399-.384.638-.508.062-.033.138-.067.206-.11m-.13.361a.661.661 0 0 1 .06-.126m.07-.235a.388.388 0 0 0 .18-.204c.013-.043-.046-.046-.133-.03m-.047.234a.816.816 0 0 0 .047-.233m-.047.233c-.022.077-.049.16-.07.235m.117-.468c-.13.024-.32.09-.433.13m.433-.13c-.003-.031-.015-.048-.041-.046-.123.011-.26.103-.392.177m0 0-.089.033c-.231.08-.454.167-.08.047a.957.957 0 0 0 .17-.08Zm.317.337c.095-.156.238-.277.299-.466.06-.19-.182-.138-.297-.129-.166.013-.616.248-.475.16.245-.154.567-.159.827-.286.28-.136-.424-.072-.47-.07-.083.006-.747.154-.485-.033.317-.227.72-.356 1.084-.486.538-.192-.634.222-.688.15-.066-.088 1.458-.521.85-.544-.273-.011-.531.086-.794.086-.037 0 .021-.078.05-.1.193-.148.448-.22.671-.302.048-.018.704-.21.476-.18-.232.032-.47.096-.705.09-.05-.001.361-.164.436-.19.047-.016.42-.111.213-.111H6.52c-.08 0-.554.048-.269-.104.333-.177.733-.231 1.096-.319.113-.027.398-.007.332-.103-.07-.103-.416-.077-.514-.078-.079-.002-.822.095-.615-.201.108-.155.437-.17.503-.358.02-.057-.977.135-1.076.148-.055.007-.369.054-.187-.056a6.76 6.76 0 0 1 1.006-.503c.056-.022.23-.07.053-.084-.289-.021-.588.033-.874-.008-.057-.008.43-.246.517-.288.214-.104-.256-.059-.31-.059-.316 0-.643.026-.956-.008-.07-.008-.228-.076-.174-.12.252-.206.857-.211 1.152-.274.109-.024 1.067-.14 1.067-.391 0-.024-.337-.012-.357-.012-.213 0-.474.082-.677.056-.313-.039.6-.21.87-.374.318-.195-1.42.128-1.116-.087.225-.158.631-.125.892-.176.493-.097.11-.116-.143-.123-.196-.005-.289-.098-.067-.201.124-.058.496-.06.386-.14-.123-.089-.512.018-.648.028-.216.016-.445-.019-.657.014-.247.038.055-.03.165-.084.258-.127.52-.244.78-.366.12-.056-.096-.056-.122-.056h-.002c-.102 0-.874-.037-.869-.044.096-.146 1.495-.653.788-.66-.058 0-.58.035-.47-.056.25-.205.548-.216.825-.346.088-.042.047-.16.168-.199.195-.062.059-.094-.087-.1-.036-.002-.46.035-.43-.056.06-.183.68-.295.844-.36.083-.035.508-.14.23-.14h-.65c-.044 0-.157.055-.133.016.13-.218.562-.333.754-.525.095-.095-.91.071-.606-.134.182-.123.42-.233.575-.389.134-.134-.35.013-.355.014-.053.011-.6.159-.318.062.26-.09.503-.24.754-.352.026-.012.55-.248.358-.252-.308-.006-.572.092-.847.218-.183.084-.472.044-.665.028-.173-.015-.09-.076.037-.133m0 0c.11-.05.256-.097.293-.107.206-.06-.112.079-.293.107Zm0 0c-.096.015-.154 0-.079-.09.133-.159.322-.231.498-.325.157-.083-.342.1-.509.162-.144.055-.525.318-.408.218.12-.102.545-.29.389-.27-.339.041-.6.333-.914.39-.2.037.115-.12.134-.131.08-.048.65-.44.497-.458-.33-.04-.64.13-.961.117-.13-.005.134-.286.168-.33a2.38 2.38 0 0 1 .068-.087m0 0c.073-.086.126-.114.29-.136.202-.028.404-.058.606-.092.003-.001-.353.077-.425.089-.11.018-.328.098-.47.139Zm0 0c-.11.031-.178.04-.116-.022.114-.114.255-.21.38-.313.11-.088-.037-.052-.003-.117.057-.105.151-.228.263-.266m-.453.151c.28 0 .612-.081.123-.1-.398-.016.417-.302-.002-.302-.118 0-.468.016-.353-.003.281-.047.564-.08.842-.145.04-.01.428-.083.184-.1-.318-.023-.643-.004-.961-.004h-.012c-.291 0-.366 0-.044-.14.198-.085.376-.187.562-.294l.013-.007c.207-.118-.203-.1-.22-.12-.12-.144.397-.25.03-.294-.16-.02.042-.167.084-.184.04-.017.523-.182.442-.243-.102-.077-.26-.085-.41-.07m0 0c-.101.01-.2.03-.275.047-.06.014-.49.087-.195.048.158-.021.315-.057.47-.095Zm0 0c.145-.035.29-.072.435-.1.025-.006.521-.167.278-.204m0 0a.497.497 0 0 0-.035-.004c-.255-.021-1.021.055-.766.05.26-.004.54-.003.8-.046Zm0 0a2.02 2.02 0 0 0 .083-.015c.19-.039-.017-.09-.087-.09-.27 0-.562.032-.83-.005-.107-.015.357-.188.439-.218.454-.166-.762-.047-.512-.09.294-.048.587-.124.878-.19.375-.083-.292-.16-.386-.173-.093-.011-.572.03-.62-.056-.105-.183.299-.171.369-.173.13-.003.26 0 .39 0 .242 0-.161-.073-.234-.1-.061-.023-.37-.069-.38-.151-.02-.168.326-.1.414-.1.124 0 .642.076.687-.104.045-.18-.232-.195-.344-.227-.038-.01-.352-.163-.318-.17.237-.053.502-.005.746-.053.58-.115-.825-.206-.934-.263-.143-.075.213-.241.235-.252a1.98 1.98 0 0 1 .71-.185m0 0a1.99 1.99 0 0 1 .134-.005c.078 0-.012.007-.135.005Zm0 0a1.106 1.106 0 0 1-.305-.035c-.169-.067-.065-.169.06-.17.21-.004.619.085.804-.023.094-.055-.277-.149-.302-.157-.136-.043-.255-.123-.388-.167-.002 0 .375-.036.46-.087.177-.104-1.026-.453-.675-.511.238-.04.496-.008.737-.011.096-.002.312-.05.09-.05-.086 0-.358.049-.38-.08-.033-.183.516-.12.609-.122.11-.002.14-.048.05-.134-.17-.163-.38-.214-.603-.257-.16-.031-.066-.146.056-.18.304-.084.677-.001.964-.156.03-.016-.376-.117-.425-.128-.367-.086-.738-.109-1.11-.151-.211-.024.292-.267.313-.274.143-.044.532-.06.612-.207.077-.14.272-.14.383-.246.132-.124-.521-.056-.575-.05-.09.01-.607.147-.291-.034.424-.242.906-.386 1.341-.614.282-.148-.239-.084-.346-.034-.18.084-.733.434-.308.048.434-.395-.325.126-.458.05-.134-.077-.072-.12.034-.227.039-.039.189-.137.2-.2.01-.049-.12-.007-.133.01-.134.16-.806.558-.403.19.512-.466-.078-.135-.318.017-.017.01-.195.146-.123.078.29-.272.615-.462.95-.67.14-.087.214-.211-.006-.129-.288.108-.52.352-.805.478-.313.14-.525.128-.206-.173.221-.21-.113.05-.17.095-.356.272-.154.066.047-.092.21-.167.525-.297.71-.481.084-.084-.24.02-.353.061-.095.036-.515.302-.598.258-.066-.036.216-.275.338-.374m0 0 .054-.043c.138-.106.198-.164.21-.187m-.264.23c-.097.03-.17.038-.12-.007.114-.102.287-.207.356-.23m-.236.237a.86.86 0 0 0 .26-.124c.07-.061.05-.09.004-.106m0 0c.007-.014-.004-.016-.028-.008m.028.008a.268.268 0 0 0-.028-.008m0 0c-.053-.012-.124-.017-.154-.034-.184-.102.419-.025.628-.025.024 0 .637-.079.484-.19-.264-.192-.871.258-.86-.263 0-.084.04-.127.098-.147m0 0c.1-.035.25-.004.354-.004h.318c-.223 0-.448.005-.672.004Zm0 0c-.085 0-.17-.001-.255-.004-.055-.001-.622-.166-.45-.223.265-.089.655-.043.93-.023.152.011.407.134.554.092.014-.004-.417-.36-.476-.427-.12-.139.351.118.51.212.292.174-.087-.085-.207-.162m0 0a.973.973 0 0 0-.168-.079m.168.08-.169-.08m.169.08c.125.056.25.105.368.105.186 0-.278-.247-.419-.369-.161-.139-.36-.255-.503-.413-.064-.071.421-.042.453-.04.038.004.42.073.553.071m-.62.567c-.153-.057-.335-.108-.238-.087.077.017.156.05.237.087Zm.62-.567H7.7m-.003 0c-.005-.226.03-.285.04-.133m-.04.133v.014m.003-.014c.026 0 .042-.004.042-.012 0-.05-.002-.09-.004-.12m-.038.132c.011-.044.024-.09.038-.133m-.038.133c0 .005-.002.01-.003.014m.04-.147c.05-.155.111-.277.111-.175 0 .097-.144.555-.15.327l-.001-.005m0 0a.75.75 0 0 0-.025.181c.012.292.28.099.377-.003.033-.034.068-.07.103-.109m0 0c.048-.052.096-.106.14-.16m-.14.16a1.653 1.653 0 0 1-.097-.38c-.027-.184.15.072.236.22m-.139.16c.027.066.059.129.098.188m.041-.348c.028-.034.054-.069.077-.102l.003-.005m-.08.107.022.039m.058-.146c.05-.072.03-.052 0 0Zm0 0a.492.492 0 0 0-.058.146m0 0-.001.007a2.618 2.618 0 0 0-.011.425c.002.067.061-.293.033-.386a.313.313 0 0 0-.021-.046Z"/>
  <path fill="#35A" fill-rule="evenodd" d="M13 15v16.575h2.617V17.617h13.957V15H13Zm.872 1.333v.314l.2-.233.245-.288.217-.254H14.3c-.14.146-.281.299-.428.46Zm1.465-.46-.556.65-.245.288-.664.778v.673a36.156 36.156 0 0 0 .873-.971v-.546h.455c.225-.28.446-.571.659-.873h-.522Zm1.261 0c-.2.301-.409.592-.622.872h.37c.194-.306.334-.59.433-.873h-.18Zm.823 0a4.386 4.386 0 0 1-.366.872h.562c.251-.308.504-.599.761-.873h-.957Zm1.813 0c-.089.086-.177.174-.265.265a38.38 38.38 0 0 1-.47.607h1.204c.253-.291.491-.581.711-.873h-1.18Zm1.978 0c-.22.286-.446.577-.675.872h1.188c.26-.3.514-.59.766-.873h-1.28Zm2.1 0-.148.163.225-.164h-.077Zm1.184 0h.322c-.24.292-.481.583-.723.872h-.856c.456-.353.874-.641 1.257-.873Zm.841.872c.288-.29.58-.58.876-.873h.845c-.253.29-.505.58-.756.873h-.965Zm2.433 0h.68l.252-.31v-.465c-.31.251-.62.51-.932.775Zm-13.025 1.469c-.302.334-.597.648-.873.94v.36c.322-.309.612-.595.873-.861v-.44Zm0 1.304c-.267.263-.557.542-.873.84v.603c.306-.306.596-.602.873-.888v-.555Zm0 3.01c-.29.292-.58.59-.873.899v.115c.289-.274.58-.564.873-.866v-.148Zm0 1.016c-.293.292-.585.57-.873.83v1.73c.3-.35.59-.693.873-1.028v-1.532Zm0 2.597c-.286.384-.577.781-.873 1.19v1.429c.28-.38.571-.764.873-1.15v-1.47Zm0 2.87a46.33 46.33 0 0 0-.873 1.3v.391h.54l.333-.375v-1.315Zm-.873-6.839.388-.595.262-.404c-.21.211-.426.428-.65.65v.35ZM37.425 15v2.617h13.958v13.957H54V15H37.425Zm.873 1.64v.105h.49c.22-.29.439-.58.658-.873h-.484l-.436.492-.228.277Zm1.911-.768c-.218.292-.437.583-.656.873h.377l.733-.873h-.454Zm1.25 0-.731.873h.854c.212-.29.422-.581.631-.873h-.753Zm1.505 0a1.144 1.144 0 0 0 .003 0h-.003Zm.828 0-.792.873h.36c.23-.29.458-.582.687-.873h-.255Zm1.03 0-.684.873h.342l.772-.873h-.43Zm1.246 0-.773.873h.597l.75-.873h-.574Zm1.38 0-.75.873h.254l.806-.873h-.31Zm1.142 0-.807.873h.818c.271-.292.543-.582.815-.873h-.826Zm1.77 0-.739.873h.806l.751-.873h-.818Zm1.624 0-.751.873h.576c.243-.29.487-.58.73-.873h-.555Zm1.144.249c-.291.349-.582.696-.873 1.042v.763l.873-1.034v-.771Zm0 2.581c-.292.296-.583.592-.873.889v.928l.873-1.008v-.809Zm0 2.008-.873.939v1.473c.293-.325.584-.644.873-.96V20.71Zm0 2.5c-.29.296-.58.596-.873.898v1.101l.873-.993V23.21Zm0 1.937c-.293.33-.584.66-.873.991v2.048c.297-.38.587-.76.873-1.14v-1.899Zm0 2.963a78.26 78.26 0 0 1-.873 1.187v1.048l.873-.977V28.11Zm0 2.555-.031.037h.03v-.037ZM13 39.425V56h16.575v-2.617H15.617V39.425H13Zm.872 1.372v-.5h.444l-.444.5Zm0 .92v.272c.291-.38.582-.758.873-1.133v-.12l-.873.98Zm.873.138c-.291.378-.582.758-.873 1.14v.087c.292-.279.583-.56.873-.843v-.384Zm0 1.235c-.29.28-.581.559-.873.834v.566l.873-1.036v-.364Zm0 1.312-.873 1.037v.61c.29-.33.58-.663.873-.995v-.652Zm0 2.001-.873.97v.697l.873-.915v-.752Zm0 1.637-.873.915v.234l.873-1.012v-.137Zm0 1.072-.873 1.012v.77l.873-.916v-.866Zm0 1.752-.873.912v.381l.873-1.02v-.273Zm0 1.213-.873 1.02v.85l.873-1.024v-.846Zm.25 2.178-.73.873h.643c.187-.212.374-.422.56-.63l.21-.243h-.682Zm1.502 0-.57.644-.2.229h.679l.837-.873h-.746Zm2.184 0-.775.873h1.464l.788-.873H18.68Zm3.02 0-.739.873h.413l.745-.873h-.42Zm2 0-.776.873h1.322l.777-.873h-1.322Zm2.282 0-.713.873h.908l.772-.873h-.967Zm2.153 0c-.284.29-.57.582-.858.873h.922c.168-.19.336-.377.502-.563v-.31h-.566ZM51.383 39.425v13.958H37.425V56H54V39.425h-2.617Zm.872 1.64v-.767h.661l-.325.409-.336.358Zm0 1.022v.838c.288-.336.579-.674.873-1.012v-.885l-.076.08c-.26.324-.525.65-.797.979Zm.873 1.127-.873.968v1.774c.303-.378.593-.745.873-1.104v-1.638Zm0 3.02c-.27.391-.563.792-.873 1.202v1.168c.3-.28.59-.541.873-.795v-1.574Zm0 2.749-.873.876v1.101c.307-.35.594-.667.873-.96v-1.017Zm0 2.338c-.303.352-.594.699-.873 1.036v1.287c.172-.187.354-.37.542-.546l.33-.327v-1.45Zm0 2.31c-.163.164-.323.326-.48.488a9.504 9.504 0 0 0-.795 1.009h1.275v-1.496Zm-2.252 1.497c.256-.288.522-.579.799-.873h-.95l-.251.317-.001.002-.002.002-.438.552h.843Zm-2.235 0c.27-.305.525-.595.768-.873h-1.452a49.56 49.56 0 0 0-.789.873h1.473Zm-2.386 0c.247-.303.487-.594.72-.873h-.405c-.247.29-.493.581-.737.873h.422Zm-1.481 0 .707-.873h-1.733l-.698.873h1.724Zm-3.034 0c.277-.28.558-.571.842-.873h-1.299l-.809.873h1.266Zm-2.661 0c.309-.284.618-.575.929-.873h-.49l-.756.873h.317Zm-.781-.397.412-.476h-.34l-.072.075v.4Z" clip-rule="evenodd"/>
  <path fill="#35A" d="M55.309 33.868v.11l.054-.05-.054-.06ZM55.309 46.675v-.137l.068.075-.069.062Z"/>
  <defs>
    <filter id="a" width="72.216" height="75.05" x="0" y="0" color-interpolation-filters="sRGB" filterUnits="userSpaceOnUse">
      <feFlood flood-opacity="0" result="BackgroundImageFix"/>
      <feColorMatrix in="SourceAlpha" result="hardAlpha" values="0 0 0 0 0 0 0 0 0 0 0 0 0 0 0 0 0 0 127 0"/>
      <feOffset dx="2" dy="2"/>
      <feGaussianBlur stdDeviation="2"/>
      <feComposite in2="hardAlpha" operator="out"/>
      <feColorMatrix values="0 0 0 0 0 0 0 0 0 0 0 0 0 0 0 0 0 0 0.4 0"/>
      <feBlend in2="BackgroundImageFix" result="effect1_dropShadow_248_51"/>
      <feBlend in="SourceGraphic" in2="effect1_dropShadow_248_51" result="shape"/>
    </filter>
  </defs>
</svg>
