<svg width="24" height="24" viewBox="0 0 24 24" fill="none" xmlns="http://www.w3.org/2000/svg">
<path d="M1.78829 1.43836C1.67498 1.47719 1.60852 1.66565 1.38998 1.82289M1.81318 1.45164C1.71347 1.57312 1.6008 1.68259 1.44209 1.87714M2.89388 1.3728C2.58922 1.95521 1.7463 2.71731 1.44538 3.23068M3.16178 1.39306C2.52843 1.9156 2.13469 2.36018 1.39608 3.23333M4.07091 1.22619C4.11197 2.50146 3.45112 2.9057 1 5.15452M4.13598 1.33292C3.4191 2.82279 2.14265 3.92386 1.50188 4.69411M6.01107 1.46511C4.56536 2.42641 3.58648 4.16091 1.88858 6.73194M5.8029 1.21534C4.80687 2.68922 3.74308 3.99048 1.44407 6.20193M6.58598 1.68698C5.57754 3.4342 3.45138 4.89039 1.37403 7.28407M6.71241 1.6312C5.17497 3.62828 3.17825 6.2402 1.49151 7.53226M8.62462 1.89378C7.24895 2.5686 4.96295 4.64668 1.56109 9.48301M8.0751 1.548C6.44903 3.24444 4.79268 5.44109 1.52373 9.23113M9.81361 1.52456C6.10099 5.13126 3.42478 8.27938 1.8446 10.8392M9.39801 1.43944C6.59489 5.01909 3.42167 8.01792 1.65968 10.8079M10.9775 1.90093C8.25411 4.03643 5.55384 6.98786 1.67398 12.3885M10.7838 1.41259C8.03381 4.46282 5.72188 7.55416 1.53562 12.1464M11.7788 1.58751C8.24622 5.88832 4.58816 10.7525 1.8331 13.2135M12.0415 1.43858C8.24772 5.98767 3.95259 10.4466 1.19623 13.4479M13.6338 1.49471C10.6177 4.2943 7.91556 7.2268 1.23321 15.0464M13.3284 1.37832C9.86889 5.52515 6.24793 9.76359 1.30547 15.2957M14.7952 1.37579C9.5712 6.86922 5.22085 12.4103 1.52582 16.7807M14.4496 1.55466C11.6289 4.72702 8.67614 8.19032 1.61393 16.4502M15.4786 1.74045C10.4277 7.51201 6.11571 12.3868 1.77187 18.1368M15.835 1.31837C13.057 4.81704 9.8415 8.24305 1.35442 17.8083M16.816 1.77952C11.8115 7.36789 6.45163 14.2455 1.0185 19.2027M17.1739 1.28207C14.2253 4.94211 10.7516 8.80668 1.60983 19.6861M17.9809 1C12.4086 8.60529 6.13541 15.3214 1.01424 21.2682M18.6847 1.23238C14.0224 6.82558 9.46438 12.0297 1.57446 20.7945M19.3867 1.28879C15.7451 6.53032 11.6615 10.9822 1.04363 22.0971M19.7362 1.62061C13.9492 7.95507 8.29815 14.2833 1.45512 22.2079M21.0908 1.0064C15.233 8.51479 8.78393 15.8296 1.32251 23.5392M21.1252 1.5111C14.236 9.26578 7.7593 16.8768 1.65831 24.0085M22.2896 1.84077C16.8942 7.66232 11.6502 13.5073 1.88576 25.1812M22.0742 1.30524C16.7051 7.56861 11.3 13.7117 1.44895 25.2831M23.5069 1.56835C17.6999 7.67365 12.6342 14.0049 2.36857 25.5481M23.4577 1.62933C16.6458 9.73082 9.32957 17.5294 2.32303 25.6235M24.9728 1.02147C17.5762 9.93561 10.4235 17.9919 3.61356 25.095M24.7414 1.23126C18.2067 8.80834 12.0072 16.1225 3.80343 25.3398M26 2.51746C19.3355 9.14073 13.2139 16.3352 5.48934 25.4526M25.4563 2.26544C21.209 7.33233 16.2244 13.0363 4.99985 25.4548M25.5781 3.86883C21.0005 8.84685 16.2631 13.6151 6.23852 25.3853M25.7324 3.46797C19.4749 10.6912 13.1998 18.0526 6.30849 25.7528M25.6291 5.31226C21.2417 9.73532 16.446 15.0495 7.84097 25.6289M25.5685 5.22689C21.937 9.11484 18.3339 13.6542 7.92633 25.3156M25.7232 6.22471C20.1293 12.3249 15.8586 18.6422 9.20873 25.2274M25.4764 6.47151C19.1997 13.5989 12.8258 21.062 8.93415 25.4287M25.2845 8.19375C21.5802 13.669 16.4159 18.213 10.7334 25.6242M25.382 8.09067C22.2485 12.4341 18.1361 16.3813 10.1122 25.4062M25.673 9.2069C20.7423 14.8093 16.2206 19.3052 11.2165 25.5489M25.6241 9.39146C20.8938 15.15 16.3427 20.5346 11.4384 25.3M25.4263 10.6253C22.0571 15.3067 17.6119 19.462 12.3592 25.9548M25.4973 11.0177C22.1878 14.5495 19.0814 18.5744 12.9136 25.5294M25.9123 12.4704C23.0486 15.1286 20.8369 17.3767 13.7882 25.0591M25.8521 12.2285C21.1031 17.2629 16.5692 22.7662 14.1268 25.4887M25.619 13.5045C22.212 17.8055 19.8039 20.7825 15.2053 25.5121M25.378 13.6703C22.7022 17.429 19.4771 21.0538 15.5998 25.5415M25.6537 15.4729C22.1859 19.0185 19.1698 22.8662 16.19 25.4363M25.707 15.124C23.7007 17.8562 21.5764 20.0902 16.7057 25.3466M25.6549 16.4102C22.46 20.0025 19.8999 23.4763 17.6824 25.5156M25.5218 16.808C23.9457 18.5577 22.0136 20.6028 17.9385 25.7737M25.2402 18.528C24.2431 20.4108 21.7625 22.9782 19.7054 25.522M25.5575 18.0884C24.1799 19.9474 22.3696 22.0271 19.3904 25.7379M25.9207 19.7406C24.4922 21.0539 23.1522 22.1719 20.1257 26M25.8237 19.8818C23.7573 22.0276 21.6873 23.9377 20.4872 25.4959M25.7763 21.171C23.9035 23.1334 22.703 24.9278 21.8175 25.8523M25.6974 21.1653C24.7102 21.9564 23.9874 23.0049 21.88 25.3464M25.7612 22.9626C24.4738 23.5498 23.2356 25.2854 23.4546 25.8749M25.7514 22.6952C24.6336 23.7096 23.6534 24.7454 22.9162 25.6597M25.6794 24.1793C25.4944 24.5334 24.9375 24.7968 24.2911 25.4573M25.5334 24.0813C25.3231 24.5471 24.8145 24.8729 24.2708 25.5296" stroke="#ED1414" stroke-width="0.3"/>
</svg>
