<svg width="55" height="55" viewBox="0 0 55 55" fill="none" xmlns="http://www.w3.org/2000/svg">
<g filter="url(#filter0_d_177_477)">
<path d="M11.761 4.60144C11.3295 4.84317 10.5464 4.49944 10.0024 4.26067C9.94789 4.23672 9.89575 4.21384 9.84661 4.1927C9.54758 4.06409 9.24783 3.93689 8.94807 3.80969C8.53531 3.63454 8.12231 3.45929 7.71139 3.28042C7.54478 3.20789 7.5453 3.10889 7.54612 2.95314L7.54624 2.91865C7.54624 2.52634 7.22833 2.17449 6.8227 2.10074C6.42209 2.0279 6.01884 2.02882 5.61406 2.02975L5.47787 2.02996C5.26439 2.02996 5.0468 2.02255 4.82795 2.01511C4.38645 2.00009 3.93985 1.98489 3.51173 2.02996C3.46576 2.0348 3.64173 2.16468 3.71846 2.22132C3.73586 2.23416 3.74816 2.24324 3.7516 2.24623C3.83463 2.31843 3.68547 2.44751 3.53023 2.58184C3.39105 2.70229 3.24698 2.82696 3.26099 2.91865C3.38639 3.73946 3.92197 4.31499 4.62155 4.71176C4.75296 4.78629 5.01382 4.82694 5.27968 4.86837C5.77967 4.94629 6.29734 5.02696 6.00479 5.34092C5.68386 5.68534 5.33244 5.80082 4.88384 5.94824L4.79365 5.97795C4.75121 5.99199 4.70768 6.00568 4.66373 6.0195C4.28061 6.13996 3.86564 6.27045 3.86564 6.73295V7.77893C3.86564 8.13572 3.71649 8.20442 3.56634 8.27359C3.41512 8.34325 3.26288 8.41337 3.26099 8.77879C3.2587 9.22082 3.08651 9.71171 2.92668 10.1674C2.87796 10.3063 2.83038 10.4419 2.78911 10.5719C2.7371 10.7357 2.96378 11.196 3.17672 11.6283C3.29771 11.874 3.41427 12.1106 3.47275 12.2788H11.761V4.60144Z" fill="white"/>
<path d="M3.51173 13.2788H11.761V37.2788H2.76294C2.65703 37.1982 2.59661 37.0779 2.63484 36.8698C2.66998 36.6785 2.71225 36.4928 2.75414 36.3087C2.85084 35.8838 2.94549 35.4679 2.94549 35.0138C2.94549 34.9466 2.94438 34.8787 2.94328 34.8105C2.93902 34.5479 2.93467 34.2799 2.99267 34.0268C3.05002 33.7766 3.17935 33.5578 3.30688 33.342C3.49988 33.0155 3.68878 32.6959 3.6179 32.2848C3.59359 32.1438 3.59417 31.9732 3.59477 31.7971C3.59582 31.4918 3.59692 31.1698 3.46848 30.9557C3.41661 30.8693 3.34688 30.8153 3.28122 30.7645C3.17921 30.6856 3.08705 30.6143 3.08705 30.4406C3.08705 30.2411 3.21544 30.0464 3.34067 29.8565C3.47894 29.6469 3.61335 29.4431 3.56678 29.2452C3.51542 29.0269 2.98436 28.4401 2.78426 28.325C2.01947 27.8853 1.78481 27.3439 2.21015 26.5319C2.58392 25.8184 2.59158 25.1636 2.59158 24.3849V22.6075C2.59158 22.2946 2.55011 22.0172 2.50748 21.7321C2.48713 21.596 2.46652 21.4581 2.45002 21.3138C2.44709 21.2882 2.44446 21.2623 2.44182 21.2365C2.42271 21.0491 2.40323 20.8581 2.26914 20.7161C2.16225 20.6029 2.06011 20.4771 2.11185 20.3071C2.17 20.1161 2.42387 19.9683 2.63619 19.8448C2.71683 19.7978 2.79153 19.7544 2.84718 19.7134C3.2241 19.4356 3.61861 19.123 3.81845 18.687C3.88958 18.5318 3.88382 18.3639 3.87801 18.1947C3.87202 18.0203 3.86599 17.8446 3.94428 17.6804C4.0042 17.5547 4.06409 17.4375 4.12227 17.3236C4.28913 16.9969 4.44204 16.6976 4.54199 16.3041C4.67119 15.7954 4.52975 15.5295 4.14876 15.1952C3.6303 14.7402 3.51173 14.3927 3.51173 13.7245V13.2788Z" fill="white"/>
<path d="M3.51931 38.2788H11.761V47.804C11.761 47.804 10.7434 47.94 10.423 47.9467C10.3573 47.9481 10.3039 47.9492 10.2674 47.951C9.71425 47.9775 9.14986 47.9854 8.59615 47.9628C8.41631 47.9554 8.19757 47.9395 8.05743 47.8094C7.85685 47.6231 7.63158 47.5324 7.39921 47.4389C7.23212 47.3716 7.06136 47.3028 6.89348 47.196C6.41195 46.8895 6.41265 46.5505 6.41365 46.0683L6.41374 46.0006C6.41374 45.9899 6.41533 45.971 6.4173 45.9475C6.42488 45.8573 6.43823 45.6983 6.39015 45.6702C6.19964 45.5591 5.85704 45.5472 5.56989 45.5372C5.45875 45.5333 5.35588 45.5298 5.27339 45.5208C5.21495 45.5145 5.11772 45.5122 4.99806 45.5093C4.48637 45.4971 3.56448 45.4751 3.51173 45.0883C3.502 45.0169 3.5134 44.9109 3.52553 44.7979C3.54594 44.6079 3.56845 44.3984 3.496 44.3018C3.37937 44.1463 3.18105 44.0792 2.9818 44.0117C2.79291 43.9477 2.60319 43.8835 2.48148 43.7434C2.16954 43.3844 2.47807 42.8397 2.73382 42.3882C2.83359 42.2121 2.92533 42.0501 2.96908 41.9189C3.08743 41.5638 3.08633 41.2097 3.08521 40.8494C3.08478 40.7089 3.08434 40.5674 3.09098 40.4246C3.10115 40.2059 3.148 39.9897 3.19471 39.7742C3.24714 39.5322 3.29939 39.2911 3.29939 39.0483C3.29939 38.8504 3.36835 38.6754 3.43805 38.4985C3.46657 38.4262 3.49521 38.3535 3.51931 38.2788Z" fill="white"/>
<path d="M12.761 46.8742V38.2788H36.761V46.0701C36.6348 46.1383 36.5275 46.2563 36.4171 46.3778C36.2147 46.6005 36.0018 46.8348 35.6421 46.7949C35.5918 46.7893 35.5348 46.7826 35.4719 46.7752C34.4955 46.6605 32.1109 46.3805 31.761 47.5302C31.6406 47.9257 31.324 47.8876 30.9754 47.8456C30.6539 47.8069 30.3052 47.7649 30.0585 48.0571C29.7042 48.4767 29.4326 48.5533 28.9142 48.3481C27.9943 47.984 27.3137 47.6718 26.7475 46.8224L26.7319 46.799C26.5462 46.5201 26.54 46.5107 26.2245 46.6376C25.8053 46.8061 25.3895 46.8342 24.9426 46.8342C24.873 46.8342 24.8032 46.8348 24.7333 46.8354C24.4104 46.8383 24.0844 46.8412 23.7668 46.7831C23.6413 46.7601 23.5093 46.7211 23.3745 46.6812C23.0422 46.5829 22.6924 46.4794 22.3787 46.5983C21.9672 46.7542 21.5868 46.981 21.2067 47.2077C20.9452 47.3636 20.6838 47.5195 20.4126 47.6521C20.3498 47.6828 20.2871 47.713 20.2245 47.7431C19.7737 47.9602 19.331 48.1733 18.9616 48.5251C18.9203 48.5644 18.882 48.6043 18.8446 48.6431C18.6918 48.802 18.5557 48.9435 18.3049 48.9576L18.2233 48.9625C17.8331 48.9863 17.3907 49.0134 17.1567 48.6588C16.9441 48.3366 16.7161 48.0132 16.4568 47.7268C16.1752 47.4159 15.8354 47.2261 15.4857 47.0307C15.3721 46.9673 15.2574 46.9031 15.1434 46.8342C14.9885 46.7405 14.8691 46.6116 14.7504 46.4835C14.6387 46.3629 14.5277 46.2431 14.3884 46.1539C14.2805 46.0849 14.1767 46.1707 14.0833 46.2479C14.0527 46.2731 14.0233 46.2975 13.9952 46.3151C13.6118 46.5561 13.1975 46.7529 12.761 46.8742Z" fill="white"/>
<path d="M37.761 46.4601V38.2788H47.0664C47.2113 38.6579 47.3133 39.0449 47.325 39.4258C47.3341 39.7205 47.3424 40.0277 47.325 40.3224C47.3185 40.4328 47.1322 40.5606 46.9471 40.6876C46.8025 40.7868 46.6585 40.8855 46.6015 40.9751C46.3922 41.304 46.3792 41.6161 46.3657 41.9373C46.3567 42.1525 46.3476 42.3719 46.2791 42.6031C46.2051 42.8527 46.1689 43.1507 46.1345 43.4339C46.1192 43.5602 46.1042 43.6837 46.0864 43.7985C46.0127 44.2734 45.9133 44.7449 45.8141 45.2155C45.7606 45.4694 45.7071 45.7231 45.6578 45.977C45.6517 46.0081 45.646 46.0398 45.6403 46.0715C45.5884 46.3602 45.536 46.6517 45.1977 46.6179C44.8705 46.5852 44.8604 46.6485 44.8313 46.831C44.8192 46.9067 44.8038 47.0029 44.7612 47.1212C44.5716 47.648 44.0647 48.1082 43.5068 48.1082C42.9051 48.1082 42.2483 48.0804 41.6547 47.9942C41.1688 47.9237 40.8364 47.7614 40.4318 47.5302C39.9122 47.2333 39.3294 47.0577 38.7531 46.884C38.5466 46.8218 38.3409 46.7598 38.1393 46.6926C37.9888 46.6425 37.8717 46.5559 37.761 46.4601Z" fill="white"/>
<path d="M46.6027 37.2788H37.761V13.2788H45.5557C45.6538 13.4617 45.7992 13.6131 45.98 13.8014C46.0166 13.8396 46.0548 13.8793 46.0942 13.9211C46.2203 14.0546 46.3508 14.1397 46.469 14.2168C46.71 14.374 46.9004 14.4982 46.9004 14.9317C46.9004 15.4941 46.9666 15.9085 47.0694 16.4456C47.1008 16.6094 47.0952 16.8016 47.0896 16.9988C47.0801 17.3277 47.0702 17.6702 47.2307 17.9163C47.3103 18.0384 47.3949 18.1563 47.4793 18.2737C47.7018 18.5835 47.922 18.8901 48.0407 19.2611C48.0605 19.3229 48.0798 19.3797 48.0979 19.4328C48.2104 19.763 48.2755 19.954 48.0997 20.3386C48.0876 20.365 48.075 20.3932 48.0618 20.4226C47.9513 20.6693 47.8005 21.0057 47.5964 21.1486C47.2765 21.3726 46.9417 21.5632 46.6081 21.7531C46.1611 22.0076 45.7161 22.2609 45.3117 22.5918C45.2507 22.6417 45.7009 22.799 46.1678 22.9622C46.6594 23.134 47.1694 23.3122 47.1206 23.3783C47.0084 23.53 47.2918 23.8774 47.5763 24.2264C47.8595 24.5738 48.144 24.9227 48.0407 25.0813C47.8726 25.3395 47.56 26.1029 47.5964 26.4297C47.5964 26.4297 47.9944 27.9754 48.0407 28.0805C48.2106 28.466 47.7225 28.4655 47.1485 28.4648C46.5937 28.4642 45.9587 28.4635 45.76 28.8112C45.61 29.0737 45.1591 29.055 44.8041 29.0403C44.4729 29.0266 44.2253 29.0163 44.3837 29.2412C44.6393 29.6041 44.638 29.8346 44.6358 30.2366C44.6357 30.2592 44.6356 30.2824 44.6355 30.3062C44.6354 30.3232 44.6354 30.3404 44.6354 30.358C44.6354 30.4977 44.6305 30.6417 44.6256 30.7873C44.6141 31.1265 44.6023 31.4746 44.6511 31.7972C44.7077 32.1716 45.0572 32.3233 45.3737 32.4606C45.4018 32.4729 45.4298 32.485 45.4572 32.4972C45.5176 32.5239 45.6065 32.5514 45.7068 32.5825C45.9905 32.6704 46.3655 32.7866 46.4442 32.9926C46.5713 33.3255 46.3113 33.7745 46.0907 34.1553C46.0011 34.31 45.918 34.4535 45.8701 34.5734C45.8301 34.6735 45.8184 34.8076 45.8072 34.9353C45.8009 35.008 45.7947 35.0786 45.7836 35.1396C45.6954 35.6245 45.9514 36.0801 46.1886 36.5025C46.2391 36.5924 46.2888 36.6807 46.3341 36.7676C46.3731 36.8423 46.4133 36.9185 46.4541 36.9958C46.503 37.0885 46.5529 37.1829 46.6027 37.2788Z" fill="white"/>
<path d="M45.4466 12.2788H37.761V2.51045C37.777 2.51531 37.793 2.5203 37.809 2.52542C38.0479 2.60221 38.2792 2.76403 38.5109 2.92607C38.8231 3.1444 39.1359 3.36312 39.4684 3.37479C40.1123 3.39739 40.7797 3.40097 41.4109 3.26469C41.8901 3.16122 42.5424 2.99749 42.9524 2.72204C43.0226 2.67485 43.1037 2.60855 43.1897 2.53823C43.364 2.39577 43.5584 2.23684 43.7231 2.18725C43.9338 2.12377 45.6819 1.91376 45.7679 2.17152C45.7984 2.26311 45.7173 2.41081 45.6368 2.55754C45.5286 2.75463 45.4214 2.94997 45.587 3.00516C46.0433 3.15727 46.2458 3.2988 46.4049 3.78375C46.6102 4.40951 47.1372 4.39129 47.6932 4.37207C47.8086 4.36807 47.9254 4.36404 48.0407 4.36572C48.8218 4.37712 48.7574 4.61637 48.4418 5.1915C48.2368 5.56513 47.9987 5.9015 47.7597 6.2392C47.5877 6.48217 47.4152 6.7259 47.2543 6.98461C47.2543 7.12077 47.2681 7.23908 47.2811 7.34933C47.308 7.57938 47.3309 7.77427 47.2149 8.02273C47.0714 8.33019 47.0058 8.69431 46.9436 9.03886C46.9268 9.13201 46.9102 9.22373 46.8925 9.31251C46.8534 9.50775 46.7361 9.67205 46.619 9.83598C46.49 10.0166 46.3613 10.1968 46.338 10.4175C46.3348 10.4485 46.332 10.4786 46.3292 10.5081C46.3118 10.6959 46.2969 10.8567 46.1807 11.0309C46.0895 11.1678 45.9988 11.2873 45.9135 11.3998C45.6989 11.6828 45.518 11.9213 45.4466 12.2788Z" fill="white"/>
<path d="M36.761 2.33983V12.2788H12.761V3.15848C12.9184 3.16091 13.0878 3.20827 13.252 3.30401C13.5069 3.45271 13.7426 3.48646 14.0295 3.52753C14.0744 3.53395 14.1205 3.54056 14.1682 3.54781C14.3744 3.57919 14.5807 3.6138 14.7872 3.64844C15.3193 3.73769 15.8528 3.82718 16.3899 3.86239C16.412 3.86384 16.4419 3.86632 16.4779 3.8693C16.7889 3.89506 17.5543 3.95846 17.6561 3.72083C17.6918 3.63756 17.687 3.53552 17.6824 3.4354C17.6736 3.24785 17.6652 3.06701 17.9235 3.02875C18.0733 3.00656 18.2048 2.97973 18.3308 2.95404C18.5725 2.90475 18.7935 2.85966 19.0832 2.85966C19.187 2.85966 19.2897 2.85711 19.3914 2.85458C19.8106 2.84414 20.2134 2.83412 20.6089 3.00516C20.7534 3.06765 21.1731 2.90041 21.5994 2.73055C22.0785 2.53963 22.566 2.3454 22.6802 2.47037C23.0015 2.82174 23.5852 2.94644 24.0614 3.04817C24.1306 3.06294 24.1975 3.07724 24.261 3.09167C24.4387 3.13206 24.7258 3.47526 25.0066 3.8108C25.3788 4.25567 25.7397 4.68709 25.8195 4.38145C25.9969 3.70132 26.7153 3.11915 27.4238 3.16638C27.4646 3.1691 27.5213 3.19758 27.5747 3.22438C27.6265 3.25042 27.6752 3.27487 27.703 3.27255C27.7789 3.26623 27.8926 3.20857 28.0075 3.15031C28.1105 3.09809 28.2144 3.0454 28.2929 3.02875C28.3955 3.00698 28.5 2.9842 28.606 2.96111C29.3565 2.79756 30.1795 2.6182 30.9275 2.66698C31.0381 2.6742 31.1147 2.75597 31.1913 2.83783C31.2395 2.88922 31.2877 2.94066 31.3443 2.9737C31.6102 3.12878 31.9709 3.1131 32.2922 3.09913C32.3727 3.09563 32.4506 3.09225 32.524 3.09167C32.8789 3.08887 33.1378 2.89723 33.4072 2.69788C33.6228 2.53838 33.845 2.37393 34.1284 2.29735C34.558 2.18123 35.0767 2.21421 35.5204 2.25803C35.7412 2.27983 35.969 2.29204 36.1989 2.30436C36.3858 2.31437 36.5741 2.32446 36.761 2.33983Z" fill="white"/>
<path d="M12.761 13.2788V37.2788H36.761V13.2788H12.761Z" fill="white"/>
<path fill-rule="evenodd" clip-rule="evenodd" d="M11.761 12.2788H3.47275C3.76099 12.7788 3.49651 12.8883 3.51173 13.2788H11.761V37.2788H2.76294C3.26991 37.5628 3.76099 37.7788 3.51931 38.2788H11.761V47.804C12.0684 47.7808 12.2418 47.0184 12.761 46.8742V38.2788H36.761V46.0701C37.261 45.7788 37.5946 46.2446 37.761 46.4601V38.2788H47.0664C46.9366 37.8965 46.8401 37.6789 46.6027 37.2788H37.761V13.2788H45.5557L45.5508 13.2514C45.4812 12.8653 45.4408 12.6407 45.4466 12.2788H37.761V2.51045C37.3929 2.42203 37.1702 2.3834 36.761 2.33983V12.2788H12.761V3.15848C12.1797 3.15848 12.261 4.27879 11.761 4.60144V12.2788ZM12.761 13.2788V37.2788H36.761V13.2788H12.761Z" fill="#B0C4DE"/>
</g>
<path d="M4.64111 2.96208C4.76841 3.13182 4.67388 3.42243 4.97821 3.34804C5.16508 3.30236 5.19955 3.13342 5.34218 3.03536C5.47808 2.94193 5.43256 3.32865 5.43256 3.39445C5.43256 3.65087 5.67619 3.02743 5.64997 3.49949C5.64249 3.63412 5.52376 3.98564 5.74035 3.80727C5.82816 3.73496 5.91232 3.65903 5.97485 3.563C5.97556 3.56191 6.02092 3.45761 6.03836 3.47506C6.21715 3.65384 5.73495 3.92919 6.13607 3.64605C6.23698 3.57482 6.36772 3.41535 6.35347 3.62895C6.34967 3.68601 6.24947 4.07925 6.38279 3.98803C6.45568 3.93816 6.60372 3.74834 6.60019 3.83658C6.59143 4.0557 6.51225 4.34169 6.42187 4.54254C6.34943 4.70352 6.35256 4.7518 6.4976 4.58895C6.63201 4.43802 6.82391 4.29579 6.92752 4.12483C6.99936 4.00629 6.9693 4.24935 6.97393 4.29338C6.98411 4.39007 7.13897 4.18042 7.18156 4.14925C7.39003 3.99672 7.0837 4.9326 7.49912 4.63047C7.55674 4.58857 7.61539 4.54226 7.66523 4.49124C7.70438 4.45115 7.75195 4.2995 7.76294 4.35444C7.79077 4.49362 7.76294 4.66375 7.76294 4.80635C7.76294 5.19728 8.18942 4.65879 8.19286 4.66223C8.24767 4.71704 8.20301 4.96183 8.22706 5.04085C8.27627 5.20257 8.56554 4.86604 8.62278 4.80879C8.64004 4.79154 8.80532 4.56161 8.81576 4.64513C8.83365 4.78827 8.76732 4.99547 8.82064 5.12879C8.86894 5.24953 8.93321 4.89354 9.00385 4.78437C9.08459 4.65958 9.03368 5.08038 9.03805 5.22895C9.04028 5.30494 9.3274 4.64427 9.34339 4.77215C9.36055 4.90941 9.29141 5.13269 9.36538 5.25337C9.42064 5.34355 9.57936 5.03534 9.62919 5.01398C9.65464 5.00308 9.61456 5.77685 9.74156 5.55627C9.77977 5.48991 9.87347 5.2916 9.87347 5.36818V5.97642C9.87347 6.5372 10.1149 6.04327 10.3083 5.89826C10.337 5.87674 10.3132 5.96987 10.3132 6.00574V6.32818C10.3132 6.36941 10.2941 6.54484 10.3889 6.51138C10.6716 6.41161 10.5906 5.94679 10.7871 5.83963C10.7889 5.8386 10.7968 6.0778 10.7968 6.08391C10.7968 6.17558 10.7788 6.29227 10.8066 6.38192C10.8575 6.54581 10.9825 6.1984 10.9922 6.17673C11.069 6.00524 11.1046 5.81805 11.1046 5.62956V6.00574C11.1046 6.14416 11.0067 6.51888 11.1046 6.421C11.2053 6.32032 11.231 5.96174 11.2585 5.82742C11.3227 5.51333 11.3404 5.69754 11.3587 5.90803C11.3658 5.99009 11.3495 6.51871 11.4808 6.51871C11.6544 6.51871 11.6078 6.12792 11.6762 6.02528C11.8294 5.79544 11.7927 6.27164 11.94 6.20849C12.093 6.14294 12.1252 5.79705 12.1696 5.66375C12.2611 5.38924 12.2432 5.94918 12.2576 6.03016C12.2802 6.1574 12.3236 6.1848 12.3333 6.03016C12.3488 5.78224 12.3326 5.53095 12.3357 5.28269C12.3378 5.12517 12.437 5.64631 12.4701 5.72482C12.5037 5.80469 12.5918 6.05668 12.6924 6.07902C12.9371 6.13341 12.9408 5.45088 12.923 5.10958M12.923 5.10958C12.9143 4.94266 12.9005 4.85735 12.9073 4.97979C12.9088 5.00634 12.9145 5.05332 12.923 5.10958ZM12.923 5.10958C12.9619 5.36668 13.0594 5.81769 13.0808 5.39994C13.0928 5.16626 13.0166 4.85352 13.093 4.63292C13.1479 4.4744 13.2139 4.86012 13.2151 4.87231C13.2199 4.9187 13.2165 5.16564 13.3031 5.16055C13.4468 5.1521 13.3855 4.72135 13.391 4.62803C13.4034 4.41757 13.4226 5.08027 13.5644 5.23627C13.5803 5.25372 13.6454 4.70454 13.6646 4.64269C13.7092 4.49908 13.7428 4.92564 13.7428 4.9407C13.7428 4.98947 13.7501 5.51342 13.8771 5.27536C13.9628 5.11462 13.9855 4.69235 14.1141 4.58406C14.1693 4.53757 14.2385 4.96507 14.2509 5.0091C14.286 5.13449 14.3406 5.27521 14.4365 5.09704C14.6118 4.77147 14.613 4.88771 14.6759 5.18498C14.7267 5.42495 14.798 4.85646 14.798 4.81612C14.798 4.30775 14.803 4.86506 14.8225 5.04574C14.8277 5.09477 14.8404 5.50733 14.9299 5.5123C15.0622 5.51965 15.1233 5.38441 15.1675 5.28676L15.1693 5.28269C15.2813 5.03526 15.3193 5.37914 15.3476 5.48299C15.3835 5.6144 15.4444 5.78951 15.6139 5.77612C15.8201 5.75984 15.8941 5.36706 15.9608 5.22162C16.0506 5.02575 16.1712 5.5862 16.1806 5.63444C16.1917 5.69145 16.1996 5.72001 16.2051 5.72816M16.2051 5.72816C16.2298 5.7651 16.2051 5.38198 16.2051 5.32666M16.2051 5.72816V5.32666M16.2051 5.72816V5.83475C16.2051 5.94774 16.2797 5.43183 16.293 5.35597C16.3102 5.25766 16.3809 4.88625 16.3809 5.19963C16.3809 5.42512 16.4037 5.64099 16.4249 5.86406C16.4369 5.99016 16.5137 5.89386 16.5373 5.82742C16.5934 5.6691 16.5762 5.38617 16.6692 5.25337C16.7169 5.18512 16.757 5.51351 16.7767 5.55627C16.8865 5.79525 16.9503 5.23392 16.9525 5.16543C16.9589 4.97165 17.0481 5.37574 17.0576 5.42192C17.11 5.67846 17.1844 5.86299 17.2359 5.46589C17.239 5.44195 17.2765 4.98063 17.3141 5.14589C17.3498 5.30327 17.405 5.46191 17.4337 5.61978C17.4575 5.75025 17.4798 5.53678 17.4802 5.50742C17.4809 5.45172 17.481 5.40669 17.4807 5.371M16.2051 5.32666V5.18986M17.4807 5.371C17.4791 5.1907 17.4678 5.24847 17.4807 5.371ZM17.4807 5.371C17.4881 5.44182 17.5037 5.53428 17.5339 5.6149C17.7173 6.10386 17.6919 5.1483 17.7098 5.01398C17.7388 4.79632 17.7722 5.87226 17.8515 5.38528C17.8623 5.31841 17.8592 4.77436 17.9199 4.96024C17.9592 5.08087 17.9908 5.33892 18.0054 5.04085C18.0089 4.96746 17.9748 4.44228 18.0273 4.65246C18.0535 4.75716 18.1668 5.2879 18.1837 5.2436C18.2777 4.99682 18.2239 4.19174 18.3156 4.94803C18.3429 5.17338 18.4029 4.52652 18.4035 4.46193C18.4039 4.41838 18.3806 4.02531 18.4133 4.27628C18.4371 4.45909 18.4915 4.64583 18.4915 4.83078V4.50589C18.4915 4.35315 18.5375 4.74825 18.5599 4.80879C18.6511 5.05567 18.7362 5.20789 18.7528 4.84299C18.7559 4.77525 18.8195 4.30985 18.8334 4.35444C18.8849 4.51919 18.7979 5.0215 18.9605 5.11902C19.1375 5.22526 19.3571 3.85404 19.3708 4.57429C19.371 4.58174 19.3943 5.01102 19.4392 4.97246C19.5777 4.85377 19.5028 4.39273 19.5028 4.23719C19.5028 4.21183 19.5027 4.18844 19.5025 4.16697M19.5025 4.16697C19.5005 3.9043 19.4877 3.92979 19.5025 4.16697ZM19.5025 4.16697C19.5039 4.19003 19.5056 4.21509 19.5076 4.24208C19.5115 4.29454 19.527 4.6424 19.5931 4.66223C19.6468 4.67834 19.7111 4.2875 19.7153 4.25429C19.7889 3.66533 19.7769 4.42803 19.8887 4.63292C19.9619 4.76717 20.1352 4.2809 20.1403 4.26162C20.2046 4.0193 20.2435 3.84072 20.3357 4.17124C20.3502 4.22328 20.3828 4.54365 20.4701 4.3691C20.5404 4.22845 20.563 3.79287 20.6411 3.92941C20.7138 4.05673 20.658 4.39701 20.6802 4.54986C20.7283 4.88182 20.8398 4.42272 20.856 4.32025C20.9489 3.73191 20.9292 4.83235 21.0075 4.64269C21.0544 4.52908 21.0768 4.4021 21.1076 4.2836C21.1127 4.26408 21.2117 3.95533 21.2127 3.95628C21.3345 4.07814 21.1077 4.47422 21.242 4.60849C21.4375 4.80404 21.4928 3.64826 21.6353 4.40818C21.7539 5.04099 21.9338 3.60989 22.0188 3.6949C22.0925 3.76861 22.1903 4.52235 22.3412 4.23719C22.4033 4.11988 22.4343 3.98879 22.4463 4.23964C22.4653 4.63903 22.5127 4.17267 22.5806 4.02712C22.5961 3.99394 22.6995 3.72645 22.7565 3.7633C22.8475 3.82218 22.8005 4.12035 22.8005 4.21277C22.8005 4.73046 23.0702 3.66812 23.0985 4.05154C23.1041 4.12744 23.055 4.79133 23.1376 4.80635C23.3606 4.8469 23.5081 4.44613 23.6261 4.32025C23.7715 4.16515 23.6485 5.46541 23.8777 4.87963C24.061 4.41127 23.8336 5.18679 23.9656 5.29246C24.0818 5.38542 24.166 5.13534 24.2075 5.06772C24.3108 4.89945 24.2696 5.56532 24.3394 5.62467C24.5555 5.80834 24.6472 4.49803 24.6472 5.80055C24.6472 5.99501 24.7175 5.95332 24.8133 5.80055C24.9105 5.64542 24.955 5.36732 24.955 5.70284C24.955 5.87464 24.9096 6.11196 24.9574 6.27932C24.9621 6.29573 25.0717 5.9274 25.0869 5.86406C25.2096 5.3516 25.0035 6.36943 25.3043 5.99352C25.429 5.83755 25.4375 5.79286 25.5168 6.03994C25.5375 6.10436 25.6136 6.4365 25.7269 6.24024C25.8198 6.07907 25.8783 5.87896 25.8783 5.69307V5.96665C25.8783 5.97838 25.862 6.15163 25.8881 6.16207C26.0227 6.21592 26.0542 4.52641 26.0542 5.69307C26.0542 5.90264 26.0768 5.79627 26.1226 5.65887C26.1836 5.47588 26.2162 4.93121 26.296 5.10681C26.3188 5.15691 26.423 5.64326 26.4792 5.59536C26.5287 5.55323 26.5593 5.46593 26.5777 5.36419M26.5777 5.36419C26.6298 5.07456 26.5818 4.66784 26.5818 4.85276C26.5818 5.02254 26.5765 5.19367 26.5777 5.36419ZM26.5777 5.36419C26.5782 5.44062 26.58 5.51691 26.5843 5.59291C26.6022 5.91624 26.7455 5.39682 26.7528 5.31444C26.7672 5.15304 26.8489 4.78702 26.958 5.15078C27.0621 5.49767 27.1268 4.95763 27.151 4.83078C27.1737 4.71156 27.2755 4.04988 27.2853 4.52544C27.2869 4.60186 27.2257 5.02764 27.2853 5.08727C27.3334 5.1353 27.3159 4.95482 27.3342 4.8894C27.3657 4.77693 27.3976 4.64292 27.4563 4.54009C27.5517 4.37324 27.4583 4.92443 27.4612 5.11658C27.4648 5.36087 27.638 4.75405 27.6762 4.66712C27.6822 4.65335 27.7588 4.42199 27.7665 4.53032C27.7792 4.70817 27.7704 4.8852 27.7934 5.06284C27.8916 5.82035 28.2195 5.02158 28.2917 4.69643C28.3533 4.4194 28.3401 4.91841 28.3406 4.97002C28.3443 5.34544 28.4436 5.28924 28.5604 4.95536C28.5893 4.87294 28.6923 4.22189 28.6923 4.46925C28.6923 4.55273 28.667 5.1463 28.7607 5.01398C28.9079 4.80622 28.9277 4.52333 29.0001 4.28605C29.0415 4.1505 29.0425 4.71707 29.0441 4.80879C29.0485 5.05605 29.1663 4.8517 29.22 4.73307C29.2574 4.65053 29.3934 4.08102 29.3959 4.27628C29.397 4.36538 29.3326 4.89576 29.4227 4.93582C29.6051 5.01688 29.6278 4.30154 29.6377 4.22986C29.7559 3.37594 29.7408 4.70699 29.8991 4.36177C29.969 4.20915 29.9947 3.70372 30.0114 3.87078C30.0322 4.07851 29.9431 4.36429 30.0212 4.55963C30.0405 4.60797 30.2368 4.21805 30.2508 4.17612C30.3503 3.87768 30.3458 4.402 30.3632 4.49612C30.3951 4.66859 30.4696 4.73606 30.6026 4.58406C30.6456 4.53485 30.7895 4.17877 30.8004 4.34223C30.8035 4.3883 30.7767 4.83924 30.8664 4.71597C30.9169 4.6465 31.05 4.18543 31.0569 4.21765C31.075 4.30192 31.0252 4.72302 31.1986 4.70376C31.3442 4.68758 31.4367 4.25137 31.4795 4.14193C31.5018 4.08507 31.3637 4.86611 31.6627 4.73795C31.8069 4.67617 31.9445 4.32675 32.0584 4.31536C32.0959 4.31161 32.0622 4.70177 32.0878 4.74528C32.168 4.88166 32.4646 3.84827 32.4737 4.27628C32.4749 4.33341 32.4928 4.73388 32.5006 4.72086C32.6161 4.52838 32.7449 3.88587 32.7791 4.10773C32.8108 4.31383 32.7568 4.50423 32.8499 4.70131C32.9249 4.86012 33.0413 4.60996 33.0624 4.53521C33.0802 4.47232 33.143 3.95224 33.187 4.20299C33.2035 4.29705 33.2267 4.6609 33.3824 4.54009C33.6225 4.35378 33.7752 3.92103 33.8685 3.64116C33.9337 3.44552 33.8802 3.90116 33.8832 3.96849C33.8893 4.10962 33.9407 4.35345 34.0126 4.08574C34.0635 3.8964 34.0721 3.70361 34.1103 3.98803C34.1687 4.42219 34.3716 3.95713 34.4401 3.75842C34.4661 3.68319 34.5146 3.10622 34.55 3.39689C34.5682 3.54562 34.5556 3.86576 34.6526 3.99048C34.7673 4.13788 34.9467 3.84129 34.9751 3.7633C35.0507 3.55536 35.0239 3.92248 35.0239 3.97338C35.0239 4.38617 35.0696 3.99061 35.1094 3.8146C35.1274 3.73519 35.1558 3.29796 35.1558 3.37735C35.1558 3.4509 35.1154 3.95568 35.2291 3.83658C35.3592 3.70029 35.4395 3.26355 35.6102 3.20147C35.6304 3.19413 35.6395 3.80234 35.6395 3.87567C35.6395 3.94188 35.6077 4.07551 35.7177 4.0491C35.8442 4.01874 36.1127 3.65617 36.1207 3.76819C36.1445 4.10056 36.1461 4.86978 36.4896 4.20788C36.6271 3.94295 36.5629 4.34483 36.5629 4.46437C36.5629 4.66501 36.7243 4.07031 36.7363 4.01246C36.7578 3.90868 36.7827 3.30109 36.7827 3.70956V4.46925C36.7827 4.52584 37.3142 3.96076 37.3836 3.88544C37.5432 3.71221 37.7015 3.51469 37.8771 3.35781C37.9561 3.28719 37.8841 3.57464 37.8819 3.58742C37.8403 3.83454 37.838 4.07784 37.838 4.32757C37.838 4.45299 37.8897 4.0783 37.9503 3.96849C38.0376 3.8103 37.9332 4.42204 37.9381 4.48147C37.9479 4.59897 38.106 4.40544 38.1232 4.38446C38.1304 4.37563 38.1784 4.30706 38.2242 4.24706M38.2242 4.24706C38.2552 4.20644 38.2855 4.16942 38.3021 4.15679M38.2242 4.24706C38.2403 4.19814 38.2729 4.13847 38.3021 4.15679M38.2242 4.24706C38.2101 4.29004 38.2087 4.32472 38.2337 4.29093C38.246 4.27424 38.2747 4.22556 38.3106 4.16453M38.3021 4.15679C38.3084 4.15196 38.3127 4.15069 38.3143 4.15414C38.3146 4.15485 38.3149 4.15564 38.3153 4.15652M38.3021 4.15679C38.3049 4.15859 38.3078 4.16114 38.3106 4.16453M38.3153 4.15652C38.3171 4.16163 38.3185 4.16957 38.3198 4.17957M38.3153 4.15652C38.3137 4.15923 38.3121 4.1619 38.3106 4.16453M38.3153 4.15652C38.352 4.09394 38.3957 4.01967 38.4369 3.95381M38.3198 4.17957C38.3253 4.22484 38.3256 4.31258 38.3246 4.37376M38.3198 4.17957C38.3408 4.22509 38.3303 4.30953 38.3246 4.37376M38.3198 4.17957C38.3188 4.17753 38.3178 4.17556 38.3167 4.17368C38.3147 4.17013 38.3126 4.16709 38.3106 4.16453M38.3246 4.37376C38.3236 4.42937 38.3216 4.46302 38.3216 4.42284C38.3216 4.40911 38.3229 4.39227 38.3246 4.37376ZM38.4369 3.95381C38.5002 3.8528 38.5577 3.77161 38.5757 3.78284C38.5862 3.78944 38.5191 3.86598 38.4369 3.95381ZM38.4369 3.95381C38.3296 4.06853 38.1966 4.20252 38.1775 4.22498C38.0488 4.3764 38.1018 3.84765 38.1018 3.78773C38.1018 3.35824 37.9818 3.76165 37.9259 3.92941M38.4974 3.97337C38.4974 4.09443 38.4154 4.71485 38.6073 4.75749C38.8302 4.80702 38.981 3.95512 38.981 4.18345V4.46681C38.981 4.58059 39.0778 4.37075 39.1081 4.32757C39.1284 4.29856 39.2063 4.09593 39.2058 4.11017C39.1986 4.31694 39.0455 4.55779 39.1203 4.76971C39.1827 4.94648 39.4647 4.13767 39.4647 4.32513C39.4647 4.44305 39.4461 4.57558 39.4671 4.69154C39.4792 4.7578 39.6 4.61386 39.621 4.59872C39.7471 4.50814 39.5668 5.33022 39.9288 4.88696C40.0659 4.71917 40.0803 3.98121 40.0803 4.55963C40.0803 4.90918 40.2693 4.82712 40.3661 4.54742C40.48 4.21827 40.4034 5.16555 40.4589 5.15322C40.6512 5.11048 40.8717 4.12667 40.8717 4.64024C40.8717 4.68666 40.8477 5.10826 40.945 5.09703C41.1112 5.07786 41.1633 4.60609 41.2259 4.48391C41.5094 3.93119 41.3038 4.71247 41.5093 4.8723C41.728 5.04239 41.7951 4.03015 41.7951 4.63291C41.7951 4.71625 41.741 5.05735 41.8732 5.07261C42.0174 5.08924 42.0486 4.88854 42.0809 4.79169C42.2406 4.31266 42.119 5.28717 42.2128 5.05795C42.3025 4.83869 42.3005 4.58171 42.3691 4.35444C42.4594 4.05538 42.4953 3.9933 42.4986 4.33978C42.5033 4.83392 42.6517 4.82331 42.8503 4.39841C43.0234 4.02836 42.9735 4.49801 42.9847 4.672C42.999 4.89385 43.1513 4.45616 43.1581 4.42284C43.2521 3.96327 43.1314 4.97337 43.2119 5.06284C43.24 5.09406 43.3339 4.27525 43.4415 4.24452C43.4636 4.2382 43.4481 5.08268 43.6027 5.01642C43.6883 4.97972 44.0375 3.79549 44.0375 4.37643C44.0375 4.51027 43.9937 4.73611 44.0375 4.86742C44.1075 5.07722 44.0815 4.42658 44.0815 4.20543C44.0815 4.19765 44.1105 3.97374 44.123 4.07353C44.1526 4.31013 44.0891 4.55907 44.1352 4.79413C44.1553 4.89636 44.5618 3.52096 44.4088 4.33978C44.2947 4.95049 44.5389 4.12469 44.6629 4.03688C44.8045 3.93655 44.5385 4.78961 44.6287 4.57917C44.6505 4.52815 44.8407 4.24908 44.7557 4.44238C44.6727 4.63092 44.5331 4.79538 44.4528 4.98467C44.4367 5.0227 44.6971 4.70155 44.7435 4.61581C44.7691 4.56846 44.9873 4.25892 45.0732 4.31047C45.1154 4.33575 44.8954 4.61718 44.8729 4.65734C44.8455 4.70641 44.8292 4.74039 44.8216 4.76231M44.8216 4.76231C44.7882 4.8581 44.919 4.72388 44.9951 4.61337C45.1753 4.35152 44.9381 4.59934 44.8216 4.76231ZM44.8216 4.76231C44.7982 4.79505 44.7796 4.82436 44.7703 4.84543C44.7416 4.91046 44.635 5.1432 44.8045 5.03352C44.9087 4.9661 45.1736 4.70569 45.0977 4.80391C44.9599 4.98221 44.8589 5.1835 44.7703 5.39016C44.6492 5.67271 45.1568 4.83202 45.4592 4.77704C45.5267 4.76475 45.3134 5.121 45.2895 5.16767M45.2895 5.16767C45.289 5.16871 45.2885 5.16959 45.2882 5.17032C45.2011 5.3563 45.1121 5.33816 45.2735 5.18253C45.2787 5.17755 45.284 5.1726 45.2895 5.16767ZM45.2895 5.16767C45.3994 5.06865 45.5689 4.97668 45.6302 4.84299C45.6849 4.72368 45.5792 5.05406 45.5618 5.08238C45.5363 5.12385 45.1817 5.58558 45.232 5.58558C45.3156 5.58558 45.4892 5.39899 45.5422 5.33642C45.7839 5.05167 45.3409 5.67667 45.3859 5.66864C45.4581 5.65575 45.8128 5.26814 45.7792 5.37306C45.7214 5.55356 45.5335 5.67547 45.4739 5.85428C45.4469 5.93515 45.7221 5.71371 45.745 5.69306C45.8757 5.57547 46.0232 5.60024 46.192 5.60024C46.2188 5.60024 46.4607 5.57375 46.4607 5.62955C46.4607 5.7655 46.2116 5.83437 46.2116 5.95199C46.2116 6.04645 46.3467 5.81998 46.4167 5.75657C46.5418 5.64334 46.6844 5.50357 46.8418 5.43413C46.9709 5.37719 46.8778 5.49844 46.8467 5.54161C46.7511 5.67439 46.584 5.74997 46.4998 5.87383C46.4052 6.01293 46.7679 5.79396 46.8003 5.781C46.8598 5.7572 47.026 5.62883 46.9639 5.78589C46.8699 6.02358 46.626 6.19785 46.4241 6.3355C46.1075 6.55137 46.4408 6.34255 46.5633 6.26955C46.7235 6.17409 47.1067 5.77188 47.0079 5.93001C46.8613 6.16448 46.6681 6.42303 46.4558 6.60176C46.4425 6.61295 46.3154 6.77153 46.3557 6.7581C46.6092 6.67358 46.2645 6.85936 46.2018 6.89489C46.1875 6.90299 46.1094 6.95865 46.0348 7.00919M46.0348 7.00919C46.0028 7.03089 45.9714 7.05165 45.946 7.06729M46.0348 7.00919C45.9847 7.01205 45.911 7.0427 45.8931 7.07747M46.0348 7.00919C46.052 7.00821 46.0664 7.0105 46.0748 7.01703C46.0935 7.0316 46.0369 7.04886 46.0137 7.05367C45.9912 7.05833 45.9686 7.06286 45.946 7.06729M45.946 7.06729C45.9123 7.0881 45.8891 7.09986 45.8891 7.09275C45.8891 7.08762 45.8905 7.0825 45.8931 7.07747M45.946 7.06729C45.9284 7.07074 45.9108 7.07413 45.8931 7.07747M45.8931 7.07747C45.744 7.10564 45.5937 7.12994 45.4445 7.15627C44.9596 7.24185 46.0406 7.14684 46.0406 7.18314C46.0406 7.20256 45.318 7.46251 45.7084 7.50069C45.9463 7.52397 46.1827 7.53489 46.4216 7.53489C46.5861 7.53489 46.0905 7.57109 45.938 7.6326C45.7551 7.70635 45.8745 7.7352 45.9966 7.75474C46.287 7.80121 45.4961 7.9156 45.4152 7.94039C44.7073 8.1574 45.742 8.06421 45.9209 8.10893C46.0568 8.14293 45.6551 8.20054 45.5178 8.22863C45.3807 8.25668 45.7733 8.2384 45.8256 8.2384C46.1935 8.2384 45.4313 8.62692 45.3419 8.67565C45.1819 8.76295 45.6661 8.77642 45.6522 8.78802C45.5848 8.84418 44.8299 8.98011 44.8827 8.99565C45.1385 9.07088 45.4095 9.11779 45.6766 9.11779C45.8798 9.11779 45.4786 9.26873 45.4592 9.27412C45.4038 9.28951 44.7886 9.45325 44.8168 9.47198C44.9239 9.54343 45.0522 9.55211 45.1709 9.59168C45.3896 9.66455 44.6628 9.82247 44.9022 9.87504C45.2586 9.95326 45.1211 10.0462 44.785 10.1193C44.6252 10.154 44.1422 10.1897 44.3038 10.2146C44.5448 10.2517 44.8097 10.2125 45.0537 10.217C45.1131 10.2181 45.1758 10.2521 45.1758 10.3245C45.1758 10.3544 44.808 10.3788 44.7606 10.3929C44.5366 10.4593 44.6651 10.6008 44.5212 10.7447M44.4773 10.7447C44.4914 10.8013 44.7301 10.8281 44.5359 10.9205C44.4523 10.9603 43.9218 11.2325 44.1182 11.3138C44.1379 11.322 44.7339 11.3788 44.5066 11.5361C44.3069 11.6744 44 11.7245 43.7738 11.7999C43.7487 11.8083 43.3781 11.8972 43.3634 11.9563C43.3393 12.0527 43.5622 11.9779 43.6614 11.9709C43.8809 11.9555 44.1863 11.8118 44.4089 11.8927C44.5403 11.9405 44.3174 12.1499 44.2574 12.1859C44.2218 12.2073 44.5053 12.1767 44.5164 12.1761C44.7919 12.1608 44.7217 12.2349 44.531 12.3324C44.3034 12.4489 44.0628 12.5513 43.847 12.6891C43.6352 12.8243 43.6617 12.8552 43.8812 12.8552C43.9495 12.8552 44.3607 12.8021 44.4235 12.865C44.5048 12.9462 44.1185 13.1237 44.0864 13.1654C44.0246 13.2458 44.0014 13.332 44.1255 13.3388C44.1525 13.3403 44.372 13.3579 44.3405 13.373C44.2243 13.4288 43.5836 13.7485 43.8739 13.8176C44.0458 13.8585 44.1576 13.8153 44.3129 13.7553L44.3161 13.7541C44.3226 13.7516 44.4406 13.7125 44.4455 13.7419C44.4657 13.8629 44.0047 13.9895 43.9252 14.0521C43.7447 14.1943 44.9686 13.9629 44.2574 14.2085C44.092 14.2656 43.6016 14.5345 44.0767 14.3746C44.2729 14.3085 44.5603 14.0863 44.768 14.0863C45.1602 14.0863 44.3874 14.434 44.3307 14.482C44.0665 14.706 44.5666 14.4967 44.6336 14.4845C44.8201 14.4506 44.7242 14.598 44.6238 14.6824C44.5516 14.743 44.3204 14.8519 44.3161 14.9608C44.3153 14.979 44.6099 14.9198 44.6434 14.912C44.779 14.8804 44.7976 14.7898 44.9634 14.7898C45.2955 14.7898 44.716 15.2037 44.7411 15.254C44.7647 15.3012 44.8424 15.2242 44.8925 15.2075C44.979 15.1787 45.0712 15.1652 45.1612 15.1514C45.5593 15.0901 44.84 15.3704 44.9951 15.442C45.3176 15.5909 45.8681 15.2796 45.2712 15.7572C45.2549 15.7701 45.0323 15.9474 45.088 15.9721C45.1498 15.9996 45.4012 15.8922 45.4886 15.8891C45.5779 15.8859 45.8121 15.7886 45.7548 15.8573C45.6474 15.9863 45.4594 16.0326 45.3176 16.1089C45.2981 16.1194 44.8531 16.3113 45.1026 16.3288C45.1229 16.3302 45.2938 16.3342 45.3574 16.3225M45.3574 16.3225C45.3721 16.3198 45.3811 16.3163 45.3811 16.3117C45.3811 16.3108 45.3723 16.3149 45.3574 16.3225ZM45.3574 16.3225C45.2812 16.3614 45.0462 16.4915 45.022 16.5071C44.8628 16.6098 44.4121 16.7424 44.8095 16.722L44.812 16.7219C44.9231 16.7162 45.0539 16.7095 45.1564 16.661C45.2254 16.6283 45.3403 16.5207 45.4251 16.5584C45.6417 16.6547 44.8834 17.0784 44.8412 17.1153C44.7968 17.1542 45.3154 17.061 45.4251 17.042C45.7018 16.9941 45.5628 17.0152 45.3762 17.0762C45.2874 17.1053 45.2134 17.1501 45.1393 17.2057C45.0156 17.2984 45.3001 17.2475 45.364 17.257C45.6316 17.2967 44.8109 17.6186 44.7606 17.6674C44.5823 17.8404 45.2535 17.7797 45.3542 17.7797C45.635 17.7797 45.2172 18.0381 45.149 18.0631C44.9035 18.1531 45.3618 18.1089 45.4544 18.0533C45.5218 18.0129 45.8155 18.062 45.8061 18.068C45.7468 18.1058 45.0206 18.3138 45.1319 18.3416C45.3392 18.3934 45.5914 18.3475 45.8061 18.3513C46.0992 18.3566 45.6618 18.6406 45.557 18.6567C45.3622 18.6867 45.9511 18.6591 46.1481 18.6591C46.5384 18.6591 46.2576 18.7968 46.0602 18.8814C46.0084 18.9036 45.5808 19.0793 45.8281 19.0964C46.0451 19.1113 46.1356 19.0739 46.2605 19.2649C46.3961 19.4723 45.8366 19.6064 45.7304 19.6631C45.5967 19.7344 46.0953 19.7087 46.1921 19.7144C46.3205 19.722 45.9557 19.9199 45.9429 19.9342C45.9379 19.9399 46.4952 19.9566 46.5438 20.0417C46.6307 20.1937 45.8907 20.3186 45.7964 20.3544C45.3018 20.542 45.9372 20.3676 45.9649 20.5058C45.9897 20.6298 45.3125 20.5938 45.2516 20.5938C45.2102 20.5938 44.9012 20.601 45.1026 20.6622C45.1308 20.6707 45.4956 20.7289 45.4935 20.7355C45.4621 20.8296 44.848 20.823 44.7215 20.882C44.3983 21.0329 45.0498 20.9439 45.1661 20.9455C45.3833 20.9487 44.8972 21.0335 44.8193 21.0335C44.6585 21.0335 44.2299 21.039 44.5408 21.2436C44.5847 21.2724 45.0697 21.305 44.9096 21.3657C44.6443 21.4663 43.9984 21.3316 43.8617 21.6051M43.9056 21.5611C43.9809 21.5778 44.1527 21.7138 44.2281 21.759C44.2928 21.7978 44.7155 21.9761 44.7117 21.9813C44.643 22.0757 44.3427 22.1043 44.2403 22.1303C44.063 22.1753 43.8821 22.1896 43.7053 22.2304C43.5309 22.2707 43.5752 22.4792 43.7493 22.4845C44.7261 22.5141 43.509 22.7019 43.5636 22.7703C43.6234 22.845 44.1546 22.8331 44.123 22.9437C44.0798 23.095 43.6806 23.0903 43.5807 23.2124C43.4852 23.3291 44.2471 23.3181 44.3453 23.3199C44.6504 23.3254 44.301 23.4923 44.2183 23.5446C44.2039 23.5537 43.958 23.7288 43.9887 23.7498C44.0625 23.8003 44.2188 23.7818 44.3548 23.7498M44.3548 23.7498C44.4379 23.7302 44.5135 23.7056 44.5578 23.6887C44.6891 23.6389 45.3344 23.4091 44.8388 23.5251C44.6534 23.5685 44.475 23.638 44.2916 23.6887C44.2877 23.6898 43.9813 23.7568 44.1206 23.7596C44.1557 23.7603 44.2466 23.7542 44.3548 23.7498ZM44.3548 23.7498C44.6031 23.7396 44.9425 23.7382 44.9072 23.8475C44.8805 23.93 44.4255 24.234 44.5065 24.3312C44.5594 24.3946 44.645 24.4035 44.7384 24.3834M44.7384 24.3834C44.9049 24.3478 45.0962 24.2203 45.171 24.1455C45.1776 24.1389 45.21 24.0872 45.1856 24.1064C45.0478 24.2155 44.8839 24.2869 44.7384 24.3834ZM44.7384 24.3834C44.7056 24.4052 44.6738 24.4283 44.6433 24.4533C44.4664 24.599 44.9617 24.4803 45.0097 24.4631C45.1298 24.4199 45.2375 24.3842 45.3615 24.3556C45.6296 24.2937 44.83 24.5767 44.6629 24.7953C44.5553 24.9359 45.1968 24.6924 45.2589 24.6585C45.3224 24.6239 45.8354 24.3747 45.8354 24.5071C45.8354 24.6083 45.5373 24.815 45.469 24.9223C45.3946 25.0392 45.9376 24.7075 45.9917 24.6878C46.3019 24.575 45.6979 25.0392 45.6693 25.0591C45.523 25.161 45.3973 25.279 45.2833 25.4158C45.188 25.5301 45.5032 25.3579 45.5423 25.3425C45.5848 25.3256 45.9846 25.0615 46.0504 25.1519C46.1016 25.2224 45.3708 25.7347 45.2785 25.8066C45.2525 25.8268 45.743 25.6989 45.8403 25.6942C45.9958 25.6868 45.7365 25.9088 45.723 25.9165C45.6994 25.93 45.4155 26.0708 45.4543 26.1242C45.4854 26.1669 45.6649 26.1233 45.701 26.1071C45.7586 26.0812 46.098 25.8769 46.1407 26.0264C46.185 26.1814 45.4664 26.3538 45.894 26.3538C45.9934 26.3538 46.4718 26.3545 46.4363 26.3733C46.1161 26.5428 45.8512 26.6024 45.4934 26.6518C45.3608 26.6701 45.5226 26.6612 45.5423 26.6616C45.7322 26.6647 45.9223 26.6894 46.1114 26.7055C46.4375 26.7333 46.2107 26.9291 46.0162 26.9645C45.938 26.9787 45.5822 26.9991 45.8549 27.0133C46.0461 27.0232 46.1595 27.1369 45.8989 27.1794C45.7089 27.2104 45.5092 27.1826 45.3175 27.1892C45.1902 27.1936 45.4952 27.4047 45.5227 27.4872C45.5497 27.5682 45.4086 27.5418 45.3664 27.5483C45.2441 27.5671 44.9032 27.6411 44.9868 27.6695M44.9868 27.6695C44.9904 27.6707 44.9948 27.6718 45 27.6728M44.9868 27.6695C44.94 27.6715 44.8984 27.6728 44.8656 27.6728H45M44.9868 27.6695C45.2696 27.657 45.7395 27.6188 45.5569 27.6948C45.4224 27.7509 44.7089 27.7808 44.7191 27.7828C44.8751 27.8128 45.5282 27.704 45.5325 27.9122C45.5377 28.1605 45.006 28.1481 44.8143 28.1907C44.7473 28.2056 44.4231 28.2857 44.531 28.2884C44.9861 28.2998 44.1626 28.4169 44.0375 28.4203C43.5984 28.4324 43.8726 28.4643 43.3047 28.4643H43.6076M45 27.6728C45.1748 27.7078 45.7133 27.6728 45.5349 27.6728H45ZM43.6076 28.4643H44.1206C44.1299 28.4643 43.748 28.4507 43.6076 28.4643ZM43.6076 28.4643C43.4181 28.4826 43.108 28.6012 42.9627 28.7257C42.9302 28.7536 43.4645 28.7657 43.5441 28.7745C43.6735 28.7889 43.4324 28.9116 43.4122 28.9186C43.2908 28.9607 43.159 28.9568 43.036 28.9919C42.9551 29.0151 43.3489 29.078 43.3169 29.1067C43.11 29.293 42.6899 29.2997 42.4302 29.2997H42.8675C42.9324 29.2997 43.263 29.2617 43.2852 29.3632C43.3159 29.5035 42.5848 29.4811 42.484 29.5635C42.42 29.6159 43.319 29.6515 43.0604 29.6515C42.8144 29.6515 42.6295 29.6414 42.4351 29.8005C42.3521 29.8684 42.642 29.8273 42.6598 29.8273H43.2436C43.0414 29.8273 42.6208 29.9196 42.5084 30.1107C42.4369 30.2322 43.0961 30.14 43.1899 30.14C43.3557 30.14 43.0955 30.2216 43.0849 30.2255C42.9348 30.2813 42.7634 30.3254 42.6403 30.4331C42.3681 30.6713 42.9279 30.6227 43.0702 30.6188C43.0851 30.6184 43.101 30.6167 43.1175 30.614M43.1175 30.614C43.2903 30.5856 43.5224 30.4492 43.1899 30.5822C43.1761 30.5877 43.1501 30.5989 43.1175 30.614ZM43.1175 30.614C42.9434 30.6943 42.5812 30.8826 42.8821 30.8826C43.0177 30.8826 43.1553 30.889 43.291 30.8813M43.291 30.8813C43.3078 30.8803 43.3246 30.8792 43.3414 30.8777C43.5231 30.8623 43.5039 30.7938 43.3389 30.8582C43.3303 30.8615 43.3137 30.8696 43.291 30.8813ZM43.291 30.8813C43.1081 30.9757 42.5318 31.3106 42.611 31.3809C42.746 31.501 43.3116 31.3535 43.4351 31.3189M43.4351 31.3189C43.4649 31.3106 43.4689 31.3088 43.4351 31.3189ZM43.4351 31.3189C43.388 31.333 43.2676 31.37 43.0409 31.4444C42.5486 31.606 42.8592 31.6301 43.1704 31.6301C43.4265 31.6301 42.9576 31.7547 42.9041 31.7693C42.8679 31.7792 42.7755 31.867 42.8284 31.9086C42.9365 31.9935 43.2553 31.9432 43.3829 31.9281C43.4018 31.9259 43.6662 31.856 43.6662 31.8768C43.6662 31.9162 43.2696 32.0301 43.2363 32.0454C43.2298 32.0484 42.9075 32.2173 42.9432 32.2359C43.0723 32.3033 43.3677 32.2457 43.5075 32.2457C43.6439 32.2457 43.8773 32.2009 44.0082 32.2554C44.0458 32.2711 43.7669 32.4151 43.7468 32.4264C43.617 32.4996 43.482 32.6085 43.334 32.6414C43.2514 32.6598 43.5034 32.6414 43.5881 32.6414C43.871 32.6414 43.7694 32.7169 43.5294 32.8148C43.4649 32.8412 42.7536 33.1557 43.0995 33.169C43.2622 33.1753 43.5513 33.1054 43.698 33.1788C43.7652 33.2124 43.3813 33.3871 43.3536 33.3986C43.064 33.5186 43.2454 33.5305 43.4464 33.5183C43.6858 33.5038 43.8907 33.3764 44.123 33.3473C44.3102 33.3239 43.9691 33.5737 43.9594 33.6087C43.9327 33.7048 44.9767 33.4653 45.0439 33.4524C45.352 33.3934 44.96 33.5672 44.8436 33.6331C44.7108 33.7085 43.82 34.2026 44.3942 34.024C44.4667 34.0014 43.6821 34.3303 43.7346 34.3904C43.7854 34.4484 44.1077 34.3985 44.1792 34.3904C44.2351 34.384 44.4974 34.2927 44.3038 34.366C44.2154 34.3994 43.4017 34.7907 43.8055 34.747C43.8898 34.7379 44.5676 34.4714 44.2525 34.769C44.1843 34.8334 43.9167 34.9221 44.1597 34.9278C44.4276 34.934 44.4128 34.9317 44.1743 35.045C43.9711 35.1416 43.751 35.2111 43.5539 35.3186C43.4868 35.3552 43.431 35.4289 43.549 35.3919C43.5945 35.3776 44.165 35.2296 44.0326 35.3431C43.8866 35.4682 43.4145 35.7161 43.8812 35.602C43.9787 35.5781 44.2194 35.3738 44.338 35.4628C44.459 35.5535 43.8648 35.7836 43.8177 35.8072C43.6485 35.8918 44.2208 35.7919 44.3698 35.6753C44.4341 35.6249 44.8395 35.5568 44.7093 35.6802C44.6425 35.7435 44.1225 36.0656 44.3058 36.0661M44.3058 36.0661C44.306 36.0661 44.3057 36.0661 44.3058 36.0661ZM44.3058 36.0661C44.3393 36.0661 44.4055 36.0416 44.4842 36.0076M44.3058 36.0661C44.3597 36.0476 44.4209 36.0277 44.4842 36.0076M44.3058 36.0661C44.1989 36.1029 44.1205 36.1347 44.1108 36.154C44.0584 36.2589 44.3455 36.1623 44.4626 36.1565C44.5609 36.1516 44.6526 36.1172 44.7508 36.115C45.0948 36.107 44.4662 36.3568 44.4528 36.4911C44.442 36.5995 45.1378 36.4013 44.7362 36.5498C44.5478 36.6194 44.3281 36.7006 44.1621 36.816C44.0039 36.9261 44.4394 36.9064 44.4675 36.9064C44.5674 36.9064 44.9771 36.7761 44.9072 36.9773C44.8846 37.042 44.3659 37.3824 44.4015 37.4121C44.4392 37.4435 44.7031 37.3703 44.7093 37.395C44.7358 37.5009 44.3096 37.6893 44.2501 37.7369C44.1896 37.7853 44.4047 37.7418 44.4821 37.7418H45.0733C45.3405 37.7418 45.9272 37.6917 45.3224 37.8884C45.2795 37.9023 44.5062 38.0578 44.7533 38.0887C44.8513 38.101 44.9577 38.0991 45.0547 38.0712M44.4842 36.0076C44.6888 35.9191 44.9802 35.7662 45.0146 35.8121C45.0346 35.8387 44.7419 35.9257 44.4842 36.0076ZM45.0547 38.0712C45.083 38.0631 45.1105 38.0527 45.1368 38.0398C45.1422 38.0372 45.1653 38.0193 45.1895 38.0004M45.0547 38.0712C45.108 38.0443 45.1555 38.0199 45.1895 38.0004M45.0547 38.0712C44.8423 38.1784 44.5378 38.3263 44.6238 38.3721C44.6649 38.3939 44.7151 38.4043 44.7684 38.4076M45.1895 38.0004C45.2325 37.9669 45.279 37.9302 45.2369 37.969C45.2283 37.977 45.2118 37.9877 45.1895 38.0004ZM44.7684 38.4076C44.871 38.4139 44.9852 38.3936 45.0684 38.3769C45.2268 38.3453 45.2428 38.2979 45.0635 38.3427C44.9668 38.3669 44.8675 38.3869 44.7684 38.4076ZM44.7684 38.4076C44.6517 38.432 44.5352 38.4574 44.4235 38.4918C44.3408 38.5172 44.214 38.5745 44.3746 38.5772C44.6476 38.5819 44.9097 38.5689 45.1807 38.543C45.6558 38.4978 45.099 38.6291 44.9487 38.7067C44.7608 38.8037 44.1512 38.929 44.702 38.929C44.7159 38.929 45.2273 38.9195 45.1486 38.9745M45.1486 38.9745C45.1409 38.9798 45.1275 38.9858 45.1075 38.9925C45.0362 39.0163 44.8099 39.0254 44.8827 39.0072C44.968 38.9858 45.0589 38.9775 45.1486 38.9745ZM45.1486 38.9745C45.1824 38.9733 45.216 38.973 45.2491 38.973C46.1839 38.973 44.7347 39.2723 44.8046 39.4469C44.8507 39.5622 45.297 39.3193 45.2687 39.5885C45.255 39.7185 44.9981 39.6765 44.9169 39.6765M45.0929 39.8084C44.8998 39.8191 44.7388 39.8985 44.5604 39.9598C44.2126 40.0794 44.3648 40.0535 44.6288 40.0746C44.7086 40.081 44.944 40.1456 44.9952 40.2139C45.1359 40.4014 44.1608 40.5523 44.4188 40.5559C44.5256 40.5573 45.0732 40.5562 45.0172 40.5827C44.9473 40.6159 44.4832 40.7562 44.7046 40.7733C44.8314 40.783 45.1727 40.8284 45.2615 40.932C45.3712 41.0601 44.7958 41.2574 44.7314 41.2789C44.6319 41.3121 45.0646 41.2862 45.1271 41.3229C45.3164 41.4338 44.7314 41.5747 44.6728 41.6209C44.5861 41.6892 45.2698 41.6941 45.3568 41.7333C45.3606 41.735 44.9224 41.9306 44.8291 41.9629C44.7221 41.9999 44.4722 42.1105 44.7339 42.1388C44.7699 42.1427 45.3503 42.2344 45.1687 42.2707C44.815 42.3414 44.4714 42.4056 44.1305 42.5296C43.9836 42.583 44.4492 42.4964 44.5995 42.5394C44.731 42.5769 44.2235 42.676 44.2233 42.6762C44.1063 42.7932 44.7873 42.6661 44.7021 42.8081C44.6659 42.8684 44.3737 42.8452 44.3162 42.852C44.168 42.8696 44.0961 42.9398 43.9766 43.0133C43.7946 43.1253 44.4602 43.1567 44.5287 43.1745C44.725 43.2254 44.2999 43.3531 44.2478 43.3699L44.2429 43.3715C44.1396 43.4047 43.618 43.5728 43.9058 43.5898C43.9965 43.5951 44.3868 43.6676 44.1598 43.7656C43.9006 43.8776 43.5759 44.0636 44.0817 44.0734C44.1671 44.0751 44.6529 43.9917 44.6044 44.1614C44.5556 44.3323 44.0403 44.2559 43.8887 44.3152C43.6184 44.421 44.1969 44.3812 44.2673 44.3812C44.6057 44.3812 44.0336 44.6525 43.9571 44.6817C43.7981 44.7422 43.4242 44.8059 43.8374 44.8551C43.8761 44.8597 44.385 44.8794 44.282 45.031C44.2002 45.1512 43.7083 45.0924 43.7397 45.1922C43.7857 45.3386 44.4792 45.5911 44.3259 45.7345C44.1401 45.9084 43.7037 45.8322 43.4783 45.8322C43.2509 45.8322 43.6178 45.8569 43.703 45.9421C44.0523 46.2913 43.4401 46.0762 43.3439 46.1937C43.2665 46.2883 44.049 46.8875 43.5711 46.8875C43.4201 46.8875 43.2928 46.8229 43.1632 46.7507C43.1499 46.7432 43.034 46.6543 43.0288 46.6749C43.0102 46.7496 43.064 46.9006 42.9262 46.8777C42.5941 46.8223 42.4301 46.4762 42.3326 46.1937C42.3271 46.1778 42.3163 46.5984 42.3326 46.7116C42.3482 46.8188 42.4295 46.8887 42.4475 46.9876C42.4486 46.9939 42.3326 46.7994 42.3082 46.7507C42.2591 46.6524 42.1492 46.2634 42.2105 46.5846C42.2364 46.7201 42.3616 46.9386 42.3204 47.0829C42.3022 47.1465 42.1145 47.0607 42.0884 47.0438C41.947 46.952 41.9711 46.754 41.9711 46.609C41.9711 46.5697 41.9925 46.3738 41.9027 46.3794C41.8595 46.3821 41.8832 46.6997 41.8832 46.7165V46.7751M41.8832 46.7751V47.42M41.8832 46.7751C41.8832 46.7207 41.8071 46.3701 41.7415 46.4331C41.6256 46.5443 41.6266 46.7173 41.5754 46.8581C41.5448 46.9423 41.4659 46.7231 41.463 46.7116C41.4278 46.5707 41.4435 46.4157 41.4435 46.2719C41.4435 45.8249 41.238 46.3871 41.1992 46.5357C41.1038 46.9016 41.1357 46.4569 41.1357 46.3158C41.1357 46.0644 41.0146 45.9921 40.9354 46.2914C40.9236 46.3361 40.8719 46.7955 40.8719 46.5357C40.8719 46.4748 40.8779 46.0468 40.8401 46.0642C40.6526 46.1508 40.5126 46.7712 40.4786 46.5675C40.4505 46.3987 40.4762 46.2067 40.4762 46.0349C40.4762 45.7223 40.3476 46.0054 40.2539 46.1424C40.2312 46.1755 40.1238 46.3991 40.0853 46.4087C40.0806 46.4098 40.1128 46.1311 40.1146 46.1155C40.1343 45.9506 40.148 45.8219 40.0267 46.0178C39.8394 46.3205 39.9152 45.9339 39.9485 45.7882C40.0477 45.3545 39.9443 45.7318 39.8606 45.9201M39.9046 45.7003C39.7809 46.1404 39.8116 45.4608 39.7458 45.4243C39.6851 45.3905 39.5266 45.6234 39.5102 45.7003M39.5102 45.7003C39.5095 45.7039 39.509 45.7072 39.5089 45.7101C39.508 45.7316 39.5088 45.7252 39.5102 45.7003ZM39.5102 45.7003C39.5167 45.5898 39.5366 45.1139 39.482 45.1018C39.3418 45.0706 39.2255 45.7481 39.1987 45.842C39.1729 45.932 39.0694 45.7151 39.0248 45.6216L39.0204 45.6123C38.9648 45.4961 39.0159 45.3717 38.9715 45.2606C38.897 45.0743 38.8228 45.2604 38.7561 45.3759M38.7561 45.3759C38.7403 45.4032 38.7249 45.4266 38.71 45.4402M38.7561 45.3759C38.7899 45.254 38.7691 45.0784 38.759 44.9675C38.7502 44.8707 38.7005 45.0573 38.6768 45.2262M38.7561 45.3759C38.751 45.3942 38.7447 45.4112 38.737 45.4267C38.7264 45.448 38.7174 45.4503 38.71 45.4402M38.71 45.4402C38.7043 45.4454 38.6986 45.4492 38.693 45.4511C38.6562 45.4641 38.6595 45.3499 38.6768 45.2262M38.71 45.4402C38.6908 45.4141 38.6812 45.3052 38.6768 45.2262M38.6768 45.2262C38.6743 45.1805 38.6735 45.1448 38.6735 45.1409C38.6735 45.1185 38.6605 44.3214 38.4878 44.4447C38.3543 44.5401 38.261 44.7839 38.2094 44.9333C38.2018 44.9551 38.1863 45.1656 38.1459 45.158C38.0308 45.1364 38.1636 44.562 38.0775 44.562C37.8579 44.562 37.9452 45.2639 37.8112 45.3681C37.6371 45.5035 37.6495 44.9156 37.6084 44.8746C37.5947 44.8609 37.5833 44.8535 37.5739 44.8516M37.5739 44.8516C37.4853 44.8334 37.5742 45.2976 37.5742 45.4804V44.8771C37.5742 44.8681 37.5741 44.8596 37.5739 44.8516ZM37.5739 44.8516C37.5653 44.5472 37.3984 44.9099 37.3984 45.0578C37.3984 45.15 37.3549 44.3711 37.2127 44.3372C37.0419 44.2966 36.9782 44.9098 36.9684 44.8991C36.8577 44.7773 36.8818 44.2431 36.6729 44.452C36.5004 44.6245 36.5547 45.1879 36.4139 44.6719C36.4044 44.6368 36.4065 44.4643 36.348 44.4643C36.1883 44.4643 36.169 44.6123 36.1672 44.733C36.1653 44.8643 36.174 45.321 36.0207 44.9284C36.0095 44.8997 36.0047 44.7097 35.9401 44.7501C35.791 44.8432 35.6623 45.135 35.5981 45.2923C35.5688 45.364 35.4637 45.7886 35.4637 45.7052V44.7623C35.4637 44.6635 35.4661 44.9681 35.4198 45.0554C35.2495 45.3759 35.1983 44.9129 35.112 44.772C34.9797 44.5562 34.8322 45.6896 34.7627 45.4462C34.7547 45.4183 34.7576 44.9127 34.7333 44.9235C34.6741 44.9498 34.6099 45.088 34.5941 45.1482C34.5892 45.1668 34.5884 45.3825 34.5501 45.373C34.4616 45.3508 34.6762 44.6895 34.384 44.8649C34.2067 44.9712 34.2726 45.6425 34.1886 45.4536C34.1335 45.3297 34.1567 44.7534 34.0372 45.1555C34.0178 45.2207 33.9107 45.6832 33.8906 45.5928C33.8216 45.2821 33.947 44.9367 33.8784 44.6279C33.8604 44.5471 33.7591 44.7855 33.7587 44.7867C33.7031 44.9533 33.7244 45.1164 33.6952 45.285C33.6255 45.6874 33.535 44.9028 33.5193 44.8307C33.4488 44.5062 33.2075 45.2995 33.1822 45.3754C33.148 45.4781 33.1773 45.1588 33.1773 45.0505C33.1773 44.9205 33.1366 44.9738 33.1114 45.0774C33.0879 45.174 32.9481 46.0943 32.8451 45.671C32.8206 45.5703 32.7858 44.8977 32.7279 44.9186C32.5649 44.9773 32.5831 45.3066 32.5178 45.4536C32.4293 45.6527 32.5024 45.2084 32.4469 45.3192C32.3738 45.4655 32.254 46.3387 32.254 45.8126V45.2215C32.254 45.1665 32.2895 44.7798 32.2149 45.0017L32.2084 45.0209C32.1141 45.3009 32.0176 45.5878 31.9535 45.8762C31.9231 46.0128 31.9462 45.8052 31.9462 45.7687C31.9462 45.6464 31.908 44.9118 31.7288 45.3241C31.6213 45.5713 31.6006 45.8504 31.5407 46.1107C31.5169 46.214 31.4625 46.512 31.4625 46.2328C31.4625 46.1924 31.4597 46.1479 31.4568 46.1018M31.4568 46.1018C31.4491 45.9838 31.44 45.8548 31.4723 45.754C31.491 45.6954 31.4705 46.0029 31.4568 46.1018ZM31.4568 46.1018C31.4553 46.1121 31.454 46.1202 31.4527 46.1253C31.4378 46.1876 31.4095 46.3575 31.3721 46.4136C31.2878 46.5401 31.3306 46.1113 31.3306 45.9592C31.3306 45.8618 31.3931 45.4743 31.3062 45.3998C31.2175 45.3238 31.0692 45.5931 31.0546 45.6392C31.0435 45.674 30.9994 46.141 30.9886 46.1302C30.8577 45.9993 30.8133 45.5699 30.6808 46.0081C30.6312 46.1723 30.6068 46.3439 30.5856 46.5137C30.5667 46.6648 30.5876 46.209 30.5807 46.0569L30.5805 46.0538C30.5779 45.9956 30.5601 45.5959 30.4683 45.6588C30.2835 45.7852 30.3614 46.0962 30.2949 46.2768C30.2374 46.4328 30.1886 45.963 30.1874 45.9299C30.1843 45.8464 30.0745 45.8694 30.0311 45.9152C29.8947 46.0594 29.8761 46.3575 29.8356 46.5406C29.7386 46.9798 29.7477 46.3645 29.7477 46.2377C29.7477 45.8797 29.5976 46.5171 29.5743 46.5968C29.5711 46.6075 29.5279 46.8567 29.5279 46.78C29.5279 46.5929 29.5234 46.4082 29.4937 46.223C29.4074 45.6863 29.0974 46.5302 29.0295 46.6823C28.9643 46.8286 28.9633 46.6841 28.9587 46.5943C28.9477 46.3797 28.9634 46.1642 28.9538 45.9494C28.9382 45.5973 28.7301 46.0937 28.6778 46.1962C28.6459 46.2587 28.576 46.5619 28.5386 46.3745C28.53 46.3317 28.5248 45.7758 28.4726 45.7882C28.3595 45.8151 28.0789 46.4104 28.0769 46.3403C28.0733 46.2152 28.1474 45.6263 28.0256 45.5806C27.9108 45.5376 27.7863 45.7095 27.7447 45.7882C27.7308 45.8143 27.6341 46.1321 27.6372 45.9983C27.6403 45.8638 27.6941 45.7426 27.7178 45.6123C27.7341 45.5225 27.6188 45.7661 27.5761 45.8468C27.5364 45.9219 27.545 45.3214 27.5444 45.3241C27.5206 45.4309 27.3383 45.9939 27.3294 45.6026C27.3256 45.4345 27.1878 44.9303 27.0851 45.3681C27.0599 45.4754 27.0592 45.5852 27.0241 45.6905C26.9839 45.811 27.0216 45.4365 27.0216 45.3094C27.0216 45.1181 27.0886 44.781 26.9092 45.114C26.8946 45.1412 26.7306 45.5001 26.6894 45.4658C26.5901 45.3831 26.7449 45.12 26.6503 45.031C26.6473 45.0281 26.3253 45.8857 26.3181 46.0081C26.3057 46.2186 26.3181 45.5863 26.3181 45.3754C26.3181 45.347 26.3355 45.0812 26.2839 45.1018C26.1361 45.1609 26.0642 45.3424 25.9908 45.4682C25.9668 45.5093 26.0427 45.2468 26.0543 45.2166C26.1078 45.0771 26.3163 44.6908 26.2106 44.7965C26.0914 44.9156 26.0279 45.1523 25.9663 45.3046C25.9556 45.3312 25.8154 45.6724 25.8002 45.627C25.7555 45.4927 25.8315 44.6175 25.5511 45.1116C25.52 45.1663 25.4387 45.4004 25.4387 45.3852C25.4387 45.3273 25.4577 45.158 25.4363 45.2117C25.4344 45.2165 25.4325 45.2215 25.4306 45.2268M25.4306 45.2268C25.375 45.3854 25.3576 45.7352 25.3525 45.9163M25.4306 45.2268C25.4284 45.3323 25.4212 45.4303 25.4192 45.4462C25.3994 45.6044 25.3611 45.7578 25.3525 45.9163M25.4306 45.2268C25.4339 45.0715 25.4263 44.8998 25.3752 44.9479C25.2579 45.0583 25.1943 45.2453 25.1334 45.3901C25.1229 45.4148 25.0414 45.6995 25.0186 45.693C24.922 45.6654 24.9736 45.0287 24.8867 45.0603C24.7411 45.1132 24.587 45.9474 24.6815 45.2655C24.6982 45.1448 24.7564 44.784 24.7352 44.9039C24.6955 45.1289 24.55 45.3473 24.4567 45.5537C24.4359 45.5999 24.449 45.0996 24.425 44.9552C24.4042 44.8306 24.2025 44.964 24.166 45.0065C24.0965 45.0876 23.9877 45.3796 23.9877 45.2728C23.9877 44.845 23.8143 45.2506 23.7435 45.4609C23.7309 45.4982 23.6799 45.8631 23.6799 45.6954C23.6799 45.5246 23.6838 45.3532 23.6799 45.1824C23.673 44.8768 23.3563 45.3382 23.3331 45.4389C23.2972 45.5944 23.2901 45.8319 23.1987 45.969C23.1093 46.1031 23.2019 45.6463 23.1938 45.4853C23.191 45.4288 23.1953 45.2182 23.1328 45.1824C22.9713 45.0901 22.7956 45.3182 22.7322 45.4267C22.6789 45.5179 22.6247 45.8303 22.6247 45.7247V45.4267C22.6247 45.1416 22.5366 45.6263 22.5319 45.6441C22.4971 45.773 22.3058 46.3054 22.3853 45.8737C22.4134 45.721 22.5145 45.1414 22.3389 45.6221C22.3282 45.6514 22.2192 46.0713 22.1606 46.0471C22.094 46.0197 22.141 45.5658 22.141 45.5049C22.141 45.5 22.1549 45.3004 22.1117 45.3436C21.964 45.4913 21.8133 45.7096 21.7111 45.8908C21.6981 45.9139 21.616 46.1544 21.6134 46.013C21.6098 45.8177 21.6193 45.6219 21.6134 45.4267C21.6024 45.0643 21.1744 45.7959 21.1395 45.8859C21.1047 45.9758 21.1502 45.5352 21.1248 45.4462C21.0988 45.3553 20.9036 45.8263 20.8879 45.8688C20.8241 46.0414 20.7247 46.1923 20.69 46.3745C20.6543 46.5618 20.6475 46.0111 20.6461 45.9494C20.639 45.6529 20.6222 46.5833 20.436 46.8142C20.3577 46.9112 20.3799 46.6336 20.3798 46.631C20.3707 46.3978 20.3524 46.1626 20.3358 45.9299C20.3201 45.7095 20.0859 45.9254 20.0329 46.0081C19.8794 46.2474 19.8295 46.5255 19.7691 46.7971C19.7463 46.8996 19.7667 46.587 19.7667 46.482C19.7667 46.4227 19.808 46.1717 19.7129 46.1497C19.6059 46.125 19.5629 46.2695 19.5473 46.4253M25.3525 45.9163C25.3516 45.9496 25.351 45.9772 25.3508 45.9968M25.3525 45.9163C25.3514 45.937 25.3508 45.9578 25.3508 45.9788C25.3508 45.9855 25.3508 45.9915 25.3508 45.9968M25.3508 45.9968C25.3502 46.0375 25.3507 46.0441 25.3508 45.9968ZM19.5473 46.4253C19.53 46.5993 19.5468 46.7874 19.5468 46.7702C19.5468 46.6506 19.551 46.5181 19.5473 46.4253ZM19.5473 46.4253C19.541 46.2634 19.5107 46.2225 19.3929 46.5821C19.3762 46.6331 19.2671 47.0425 19.239 47.1554M19.239 47.1554C19.231 47.1878 19.2296 47.1958 19.239 47.1638M19.239 47.1554V47.1638M19.239 47.1554V47.0291C19.239 46.9527 19.2802 46.529 19.1218 46.7653C18.9818 46.9741 18.9647 47.2106 18.8677 47.4322C18.8135 47.5562 18.8433 47.1621 18.8433 47.0267C18.8433 46.5629 18.6728 47.5083 18.6454 47.4566C18.6028 47.376 18.5943 46.6192 18.472 46.6871C18.2471 46.8121 18.1541 47.1932 18.047 47.4053C17.9042 47.688 18.0673 47.0849 18.0763 47.0145C18.0851 46.9453 18.0903 46.7947 18.0931 46.7043M19.239 47.1638C19.244 47.147 19.2519 47.1192 19.2635 47.078C19.3291 46.8436 19.274 47.0603 19.2586 47.1659C19.2424 47.2772 19.2395 47.5567 19.239 47.6319M19.239 47.1638V47.6203C19.239 47.6246 19.239 47.6285 19.239 47.6319M19.239 47.6319C19.2389 47.6551 19.239 47.6588 19.239 47.6319ZM18.0931 46.7043C18.0951 46.6391 18.0958 46.6052 18.0958 46.6554C18.0958 46.6718 18.0949 46.6881 18.0931 46.7043ZM18.0931 46.7043C18.0788 46.8338 18.012 46.9577 17.9688 47.078C17.794 47.565 18.2021 46.1967 17.8564 46.736C17.8325 46.7733 17.7057 47.0722 17.7001 46.8923C17.6952 46.7347 17.7001 46.5762 17.7001 46.4184C17.7001 46.087 17.2308 46.9397 17.1822 46.8386C17.128 46.7255 17.1828 46.5019 17.2287 46.3965C17.2571 46.3311 17.5562 45.7843 17.4192 45.903C17.3687 45.9468 17.0058 46.4513 17.0015 46.4502C16.9471 46.4366 17.1161 46.0402 17.1261 46.0154C17.1279 46.0107 17.2385 45.7842 17.2067 45.7736C17.1272 45.7471 16.8585 46.1296 16.8158 46.1888C16.7428 46.2902 17.1995 45.5627 16.8207 45.798C16.6957 45.8756 16.2858 46.2611 16.4714 45.8126C16.494 45.7581 16.6252 45.5328 16.4787 45.6441C16.3634 45.7317 16.0625 46.0442 16.1514 45.9299C16.284 45.7595 16.5786 45.3144 16.2589 45.7687C16.1262 45.9572 16.0732 46.0087 16.0732 45.7882M15.8266 45.7693C15.8515 45.7466 15.8746 45.7233 15.8959 45.699M15.8959 45.699C15.9489 45.6386 15.9905 45.5719 16.0196 45.4921C16.0501 45.4081 15.9604 45.572 15.8959 45.699ZM15.8959 45.699C15.877 45.7361 15.8603 45.7701 15.8494 45.7939C15.8151 45.8683 15.7409 46.1109 15.8511 45.9202C15.8863 45.8593 16.1488 45.4023 16.0968 45.3763C15.9317 45.2938 15.6519 45.9539 15.4301 45.8254C15.3595 45.7846 15.5002 45.2887 15.3284 45.4851C15.3144 45.5011 15.2407 45.622 15.2091 45.6079C15.1649 45.5883 15.2058 45.3982 15.2138 45.3614L15.2143 45.3588C15.2267 45.301 15.3748 44.9232 15.2248 45.1781C15.1768 45.2598 15.1307 45.3469 15.0898 45.4325C15.0614 45.4917 15.0687 45.5404 15.0687 45.4325C15.0687 45.337 15.106 45.1429 15.0354 45.0605C14.9588 44.9713 14.6098 46.0774 14.6968 45.3272C14.7057 45.2507 14.7213 45.0203 14.7213 45.0974M14.7213 45.0974V45.2921M14.7213 45.0974V44.9798C14.7213 44.9176 14.6769 44.905 14.6336 44.9588C14.5631 45.0465 14.5404 45.183 14.5336 45.2921C14.517 45.5577 14.479 45.2188 14.4442 45.1272C14.427 45.0822 14.3932 44.8545 14.3757 45.0114C14.3671 45.0894 14.3871 45.1613 14.3494 45.2325C14.3044 45.3174 14.2995 45.0545 14.2915 45.0255C14.2245 44.7798 14.1529 44.8098 14.0968 45.043C14.0664 45.1694 14.0612 45.2962 14.0582 45.4254C14.0553 45.5486 14.0284 45.5317 13.9459 45.4465C13.9008 45.3999 13.7185 44.9993 13.6547 45.0886C13.625 45.1303 13.6263 45.5195 13.56 45.4956C13.4448 45.4541 13.4806 45.1466 13.4073 45.057C13.2695 44.8886 13.3003 45.1871 13.3003 45.264C13.3003 45.3927 13.3567 45.763 13.2951 45.65C13.1921 45.4612 13.0082 45.1981 12.8126 45.0956C12.4453 44.9032 12.6412 45.5027 12.6845 45.65C12.7332 45.8153 12.5204 45.3434 12.4056 45.2149C12.3221 45.1215 12.353 45.3355 12.353 45.3763C12.353 45.5157 12.3622 45.6484 12.3982 45.7831M12.3982 45.7831C12.3995 45.7879 12.4008 45.7926 12.4021 45.7974C12.4165 45.8488 12.413 45.8328 12.3982 45.7831ZM12.3982 45.7831C12.367 45.6785 12.2856 45.4244 12.2161 45.336C12.1971 45.3118 12.1951 45.3006 12.1951 45.2693V45.4605C12.1951 45.6255 12.2608 46.1015 12.1846 45.9553C12.1615 45.9112 11.7998 45.358 11.7846 45.3763C11.7636 45.4015 11.7502 45.4374 11.742 45.4798M11.742 45.4798C11.7118 45.6362 11.753 45.8806 11.753 45.9974C11.753 46.1342 11.7564 45.7236 11.753 45.5868C11.7521 45.5535 11.7479 45.5149 11.742 45.4798ZM11.742 45.4798C11.7238 45.3722 11.6898 45.2972 11.6898 45.5061C11.6898 45.5432 11.7203 45.9839 11.7039 45.9886C11.5806 46.0238 11.5184 45.6372 11.4618 45.5763C11.4434 45.5565 11.4081 46.0529 11.4057 46.1611M11.4057 46.1611C11.4057 46.1649 11.4056 46.1682 11.4056 46.171C11.4056 46.2414 11.4057 46.215 11.4057 46.1611ZM11.4057 46.1611C11.4058 46.0933 11.4058 45.982 11.4056 45.9658C11.4055 45.958 11.4032 45.7706 11.3583 45.8254C11.2773 45.9244 11.3118 46.1589 11.3109 46.2746C11.3106 46.3139 11.3573 46.66 11.2442 46.5658C11.1877 46.5186 10.9082 45.9988 10.9004 46.1763C10.8989 46.2098 10.8977 46.2433 10.8969 46.2769M10.8969 46.2769C10.8902 46.5387 10.9004 46.8025 10.9004 47.064V46.55C10.9004 46.4893 10.9036 46.368 10.8969 46.2769ZM10.8969 46.2769C10.8875 46.1487 10.8586 46.0802 10.7741 46.3237C10.7197 46.4801 10.689 46.6429 10.6793 46.8079C10.6737 46.903 10.6555 46.8527 10.6477 46.7886C10.6319 46.658 10.6779 46.2156 10.5776 46.1307C10.5144 46.0772 10.3568 46.7387 10.332 46.7728C10.3155 46.7954 10.2688 46.4588 10.2688 46.4254C10.2688 46.2037 10.1448 46.6666 10.1302 46.7202C10.0832 46.8926 10.1109 46.4878 10.1109 46.4395C10.1109 46.0564 10.0229 46.4938 9.96705 46.6219C9.89764 46.7811 9.92144 46.4426 9.92144 46.4026C9.92144 46.3342 9.93101 46.2566 9.91968 46.1886C9.91675 46.171 9.77656 46.3864 9.76354 46.4079C9.75673 46.4191 9.62211 46.6718 9.61267 46.6675C9.57786 46.6517 9.64474 46.4337 9.65302 46.4061C9.68715 46.2924 9.65595 46.3134 9.5846 46.4079C9.48666 46.5376 9.41597 46.6907 9.31092 46.8149C9.20483 46.9403 9.45234 46.518 9.53548 46.3763C9.55856 46.337 9.57407 46.296 9.57407 46.25C9.57407 46.2004 9.45817 46.3691 9.45478 46.3728C9.38593 46.4469 9.30801 46.5087 9.22859 46.5694M9.22859 46.5694C9.19354 46.5961 9.15819 46.6227 9.12321 46.65C9.12105 46.6517 8.96999 46.7973 8.9811 46.7973C9.02512 46.7973 9.13625 46.6852 9.22859 46.5694ZM9.22859 46.5694C9.30622 46.472 9.37057 46.3721 9.37057 46.3342C9.37057 46.3113 9.08905 46.5656 9.08987 46.564C9.1567 46.4399 9.24935 46.2864 9.28285 46.1482C9.29672 46.091 9.26886 46.1079 9.23724 46.1377C9.07323 46.2923 8.89708 46.4434 8.75655 46.6202C8.62118 46.7905 8.79306 46.4457 8.81619 46.3974C8.96719 46.0816 8.74188 46.3102 8.62497 46.4324C8.51664 46.5457 8.28077 46.8038 8.48988 46.4956C8.54836 46.4094 8.62468 46.3368 8.6583 46.236C8.67081 46.1984 8.72179 46.0432 8.63725 46.1237C8.56597 46.1916 8.32456 46.5111 8.40918 46.2693C8.42977 46.2105 8.59062 45.8669 8.45831 45.8395C8.23886 45.7939 8.11148 45.9218 7.91797 45.957C7.86485 45.9667 8.01427 45.7527 8.01972 45.7026C8.03062 45.6023 7.84303 45.7836 7.82849 45.8009C7.7842 45.8534 7.77716 45.9371 7.73551 45.9833C7.72913 45.9904 7.80668 45.7145 7.83376 45.6623C7.93648 45.4642 7.80208 45.4182 7.64171 45.5481M7.64171 45.5481C7.64023 45.5493 7.63875 45.5505 7.63727 45.5518C7.54557 45.6277 7.13401 46.1219 7.44429 45.7798L7.45158 45.7718C7.51471 45.7022 7.58216 45.6279 7.64171 45.5481ZM7.64171 45.5481C7.71591 45.4488 7.77786 45.341 7.80393 45.2237C7.82224 45.1413 7.62499 45.4921 7.63025 45.4079C7.63784 45.2864 7.86677 45.1787 7.89691 45.043C7.9429 44.8361 7.57187 45.0769 7.51446 45.1132C7.42553 45.1693 7.17858 45.3954 7.36359 45.1693C7.4118 45.1104 7.51461 44.831 7.48289 44.8676C7.45922 44.8949 7.24079 45.0883 7.24079 45.0062C7.24079 44.9658 7.26585 44.9014 7.30066 44.8353M7.30066 44.8353C7.35056 44.7407 7.4205 44.6428 7.46534 44.6079C7.49104 44.5879 7.40735 44.7433 7.38991 44.7588C7.38438 44.7637 7.34244 44.8025 7.30066 44.8353ZM7.30066 44.8353C7.25272 44.873 7.20499 44.9027 7.21272 44.8641C7.23801 44.7376 7.36359 44.655 7.36359 44.522C7.36359 44.4791 6.85435 44.8005 6.78465 44.8535C6.69224 44.9238 6.995 44.6161 6.95658 44.5623C6.92826 44.5227 6.73124 44.6433 6.64376 44.7182M6.64376 44.7182C6.62335 44.7357 6.6089 44.7507 6.60396 44.7605C6.56356 44.8413 6.60067 44.786 6.64376 44.7182ZM6.64376 44.7182C6.67347 44.6715 6.70601 44.6189 6.71799 44.6009C6.74466 44.5609 6.62017 44.5765 6.57413 44.5904C6.47147 44.6213 6.39465 44.7049 6.29519 44.736C6.18932 44.7691 6.33016 44.4008 6.3601 44.3693C6.39396 44.3337 6.53554 44.2678 6.53554 44.2097C6.53554 44.1576 6.34321 44.214 6.33203 44.2184C6.15857 44.2878 6.01376 44.4177 5.86537 44.5272C5.66805 44.6729 5.86531 44.4529 5.90923 44.3974C5.96341 44.3289 6.01854 44.2629 6.0759 44.1974C6.0807 44.1919 5.85416 44.2126 5.83379 44.2184C5.7819 44.2334 5.26122 44.491 5.45485 44.2974C5.50573 44.2465 5.75104 43.9372 5.57415 44.0711C5.45464 44.1615 5.05708 44.4275 5.32503 44.1167C5.384 44.0483 5.56489 43.8863 5.36363 44.022C5.3155 44.0544 4.75718 44.3656 4.78118 44.2816C4.82771 44.1188 5.11297 44.088 5.15661 43.9571C5.17093 43.9141 4.31466 44.0062 4.62505 43.8588C4.712 43.8175 4.79969 43.7969 4.89346 43.7799C4.98322 43.7635 4.73101 43.6884 4.64083 43.6746C4.59268 43.6672 4.21628 43.6775 4.21628 43.5869C4.21628 43.484 4.39725 43.4495 4.46891 43.4395C4.64621 43.4148 4.80029 43.3841 4.97416 43.3378C5.05209 43.317 4.68071 43.31 4.63382 43.3132C4.62678 43.3137 4.40847 43.3394 4.41628 43.3062C4.43084 43.2443 4.59745 43.2187 4.64083 43.2132C4.72335 43.2027 5.32562 43.0851 4.9689 43.0851C4.92467 43.0851 4.45169 43.0957 4.69697 43.015C4.84096 42.9676 4.99202 42.945 5.13907 42.9097C5.23453 42.8868 4.92313 42.8957 4.89872 42.8957C4.11813 42.8957 5.16191 42.7256 5.14784 42.6904C5.11958 42.6198 4.32756 42.6785 4.47943 42.4851C4.4977 42.4619 4.71875 42.3619 4.60224 42.3588C4.55427 42.3576 4.06771 42.3448 4.12506 42.2571C4.17842 42.1755 4.3061 42.1773 4.37944 42.1202C4.45127 42.0644 4.49054 41.9846 4.59171 41.9799C4.93834 41.9638 3.92616 41.9221 4.52329 41.8062C4.82887 41.7469 5.75204 41.6384 5.44082 41.6325C5.21153 41.6282 5.01367 41.6144 4.78995 41.5711C4.73482 41.5605 4.44833 41.5615 4.45838 41.4676C4.47805 41.284 4.93206 41.2852 4.48996 41.2852M4.58485 41.2536C4.71223 41.2536 4.82793 41.2129 4.948 41.1764C4.99404 41.1624 5.07583 41.1589 4.97431 41.1589C4.799 41.1589 4.61916 41.1712 4.4445 41.1554C4.37622 41.1491 4.31379 41.1112 4.33924 41.0325C4.36433 40.955 4.48892 40.9647 4.55151 40.9518C4.85304 40.8898 4.41358 40.9062 4.33222 40.9062C3.97407 40.9062 4.41184 40.7364 4.53222 40.7027C4.5549 40.6964 4.78404 40.643 4.73397 40.608C4.71431 40.5942 4.27442 40.5861 4.45327 40.5133C4.5699 40.4657 4.71408 40.4397 4.83747 40.415C4.93068 40.3964 5.01892 40.4039 4.86203 40.3852C4.72902 40.3694 4.54795 40.4064 4.42695 40.3378C4.33816 40.2875 4.51117 40.2775 4.53572 40.2747C4.66681 40.2597 4.79928 40.2258 4.92519 40.187C5.22242 40.0952 3.72778 40.1148 4.01293 39.9905C4.09228 39.9559 4.64479 39.9199 4.51116 39.8326C4.45343 39.7948 4.12041 39.7701 4.1217 39.7694C4.15626 39.7507 4.67489 39.5674 4.64099 39.5238C4.58604 39.4532 4.33743 39.5527 4.25152 39.5098C4.20793 39.488 4.75016 39.2898 4.81291 39.2677C4.82403 39.2637 5.04771 39.2022 5.00589 39.1694C4.9349 39.1139 4.80885 39.1114 4.72519 39.108C4.6588 39.1053 4.23144 39.1502 4.42345 39.0045C4.52035 38.931 4.6227 38.861 4.73572 38.815C4.74129 38.8128 4.8111 38.7863 4.79712 38.7747C4.73912 38.7264 4.41709 38.7822 4.50766 38.601C4.52774 38.5609 4.64215 38.4802 4.61292 38.4291C4.58398 38.3784 4.13806 38.4702 4.26555 38.3063C4.40262 38.1301 4.65182 38.0872 4.83396 37.9765C4.90669 37.9323 4.69758 37.9379 4.68309 37.9379C4.44818 37.9379 4.60775 37.916 4.74274 37.8607C5.10052 37.7141 4.64289 37.7505 4.50415 37.7484C4.25561 37.7447 4.67226 37.5927 4.71116 37.5765C4.72404 37.5711 4.92081 37.4429 4.89537 37.4361C4.75044 37.3975 4.55931 37.4342 4.40941 37.4326C4.33287 37.4318 4.14103 37.3923 4.26555 37.2747C4.41717 37.1315 4.67873 37.1587 4.848 37.0537C4.94045 36.9963 4.44225 36.9905 4.39187 36.9905C4.25392 36.9905 4.29745 36.8976 4.40941 36.8642C4.58862 36.8107 4.81429 36.7063 4.48485 36.7063C4.41948 36.7063 4.29068 36.6458 4.41643 36.6098C4.47064 36.5943 4.8983 36.4164 4.89712 36.4081C4.88472 36.3212 4.32592 36.4575 4.2638 36.3677C4.19221 36.2643 4.71685 36.0899 4.76379 36.0712C4.82942 36.0451 5.02564 35.98 4.95502 35.98C4.90675 35.98 4.52387 36.0167 4.53397 35.9309C4.55228 35.7753 4.99755 35.7195 5.09185 35.6063C5.17349 35.5084 4.74058 35.6782 4.71291 35.5537C4.6673 35.3484 5.19147 35.2291 4.67958 35.2221C4.62559 35.2214 4.44286 35.2519 4.4059 35.2011C4.34838 35.122 4.61354 35.042 4.64099 35.0327C4.76015 34.9922 4.91479 34.9488 5.00238 34.8502C5.0152 34.8358 4.9066 34.8432 4.89888 34.8432C4.85343 34.8432 4.70036 34.8451 4.77081 34.7555C4.87431 34.6237 5.1916 34.5749 4.8901 34.4958C4.80553 34.4736 4.47446 34.4999 4.58134 34.3379C4.61945 34.2802 4.86615 34.1978 4.86905 34.1485C4.87409 34.0628 4.43064 34.0993 4.83747 33.8958C5.02965 33.7998 4.78966 33.8327 4.69888 33.8327C4.4678 33.8327 4.91623 33.7219 4.97607 33.7116C4.99444 33.7085 5.20878 33.7049 5.20589 33.6818C5.20366 33.664 4.97829 33.6748 4.95502 33.6748C4.76029 33.6748 4.89101 33.5854 5.01291 33.5204C5.14399 33.4505 5.56322 33.3274 5.41466 33.3274C5.24731 33.3274 4.75496 33.3652 4.91291 33.3099C4.97912 33.2867 5.58006 33.1457 5.56728 33.0818C5.55813 33.0361 5.16465 33.1199 5.16729 33.0538C5.17308 32.9091 5.58281 32.8958 5.68658 32.8467C5.81663 32.7853 5.42862 32.7906 5.42343 32.7906H4.99186C4.76786 32.7906 5.06268 32.6376 5.1287 32.6152C5.27735 32.5646 5.43585 32.5565 5.58834 32.5222C5.65727 32.5067 5.76477 32.4769 5.62693 32.4748C5.47497 32.4725 5.32277 32.4748 5.1708 32.4748C5.16064 32.4748 4.85538 32.4532 4.85853 32.4503C4.93494 32.3797 5.48896 32.1989 5.5322 32.2853M5.15329 32.2538C5.16826 32.2487 5.83489 32.0681 5.58837 31.9889C5.44775 31.9437 5.2933 31.9874 5.14978 31.9625C5.00196 31.937 5.22186 31.7937 5.26206 31.7696C5.32616 31.7311 5.59341 31.6525 5.3568 31.6099C5.29746 31.5992 4.81078 31.5696 4.82698 31.552C4.93018 31.4399 5.1783 31.428 5.31469 31.3766C5.38202 31.3512 5.46329 31.3172 5.43223 31.2292C5.3867 31.1002 5.13396 31.2415 5.05329 31.1608C4.9868 31.0943 6.20614 30.8643 5.61293 30.8643H5.12698C5.0463 30.8643 4.97678 30.8122 5.09014 30.7538C5.12499 30.7358 5.51977 30.6059 5.47609 30.5731C5.33415 30.4666 5.00172 30.4805 4.9147 30.3064C4.83438 30.1458 5.07466 30.0872 5.17785 30.0468C5.35433 29.9777 5.39687 29.9801 5.17961 29.9801C4.54135 29.9801 5.29885 29.8552 5.24101 29.6643C5.20966 29.5609 4.67538 29.6309 5.02873 29.4135C5.33766 29.2234 4.82551 29.2854 4.67962 29.2854C4.20108 29.2854 5.14816 28.9718 5.11119 28.9556C5.03739 28.9233 4.83283 28.9823 4.78839 28.917C4.72971 28.8307 5.23028 28.7164 5.2761 28.6994C5.51692 28.6104 5.18427 28.5964 5.09014 28.5924C4.89133 28.5842 4.57398 28.6576 4.3919 28.5714C4.27115 28.5142 4.75358 28.3593 4.77786 28.3521C4.79278 28.3476 5.17611 28.2114 5.10066 28.1872C4.92376 28.1303 4.18805 28.3107 4.14454 28.0714C4.1196 27.9342 4.60325 27.8012 4.46383 27.8012C4.33468 27.8012 4.20525 27.8038 4.07612 27.8012C3.9065 27.7979 4.39931 27.6447 4.43752 27.6363C4.60718 27.5989 4.7931 27.511 4.50067 27.4889C4.37184 27.4792 4.02708 27.5487 3.92875 27.4381C3.87135 27.3735 4.27726 27.2048 4.3112 27.1907C4.35395 27.173 4.69498 27.0381 4.49716 27.0188C4.2867 26.9982 4.06644 27.0383 3.85858 26.9942C3.67663 26.9556 4.08333 26.8737 4.1077 26.8679C4.14741 26.8584 4.39242 26.8062 4.40594 26.7521C4.42669 26.6691 3.98706 26.6666 3.93577 26.6644C3.61576 26.6507 4.3729 26.4223 4.37085 26.41C4.35489 26.3142 3.9672 26.3486 3.91472 26.3486C3.77739 26.3486 3.20854 26.4207 3.53227 26.2153C3.56653 26.1936 3.9463 26.0322 3.9463 26.0135C3.9463 25.9191 3.6545 25.9542 3.6849 25.8995C3.78068 25.7271 4.15315 25.6399 4.32173 25.5556C4.48892 25.4721 4.2602 25.496 4.1884 25.496C3.96875 25.496 4.0282 25.4314 4.21471 25.4048C4.34816 25.3857 4.48956 25.3937 4.61997 25.3557C4.64483 25.3484 4.4288 25.3381 4.39892 25.3381C4.27705 25.3381 4.13745 25.3572 4.01647 25.3381C3.89277 25.3186 4.34653 25.0977 4.37436 25.0855C4.77332 24.9109 3.66666 25.0314 3.98138 24.8136C4.07445 24.7491 4.17781 24.6983 4.28313 24.6574C4.28905 24.6551 4.56821 24.563 4.56383 24.5557C4.53099 24.5009 4.13841 24.5507 4.06209 24.5487C3.90071 24.5443 4.16738 24.3908 4.10419 24.3908C3.707 24.3908 4.2759 23.9531 4.36361 23.8857M4.26894 24.0434C4.21542 23.8828 3.83358 23.9513 3.69702 23.9487C3.59123 23.9466 3.78455 23.8762 3.79877 23.8697C3.93781 23.8068 4.09018 23.7874 4.22859 23.7259C4.44559 23.6294 3.893 23.6143 3.81807 23.6013C3.65594 23.5731 4.08362 23.3407 4.13561 23.3171C4.19368 23.2907 4.20929 23.2474 4.2549 23.2101C4.26032 23.2056 4.34595 23.1771 4.31806 23.1662C4.20766 23.123 3.566 23.1873 3.90052 23.0329C3.93175 23.0185 4.50014 22.8667 4.35841 22.8136C4.27947 22.784 3.89 22.8161 3.89 22.7417C3.89 22.5131 4.50718 22.469 4.17596 22.3241C4.04204 22.2655 4.15131 22.1908 4.2356 22.1645C4.45055 22.0973 4.01989 22.054 3.97421 22.054C3.75056 22.054 3.75089 21.9226 3.96017 21.8224C4.02026 21.7936 4.61262 21.6185 4.47069 21.5663C4.37577 21.5313 4.26908 21.5457 4.17069 21.5136C3.99959 21.4579 3.79949 21.3982 3.63737 21.3206C3.48322 21.2469 4.08186 21.0384 4.12333 21.0294C4.43563 20.9621 4.18758 20.8904 4.03561 20.7891C3.87133 20.6796 4.22241 20.5524 4.27245 20.5452C4.40151 20.5268 4.06187 20.5784 4.02333 20.4821C3.97184 20.3533 4.42388 20.3536 4.497 20.3014C4.50107 20.2985 4.50453 20.2957 4.5074 20.2932M4.5074 20.2932C4.53726 20.267 4.50421 20.2609 4.44322 20.263M4.5074 20.2932C4.59987 20.2811 4.69128 20.2669 4.68998 20.261C4.686 20.2431 4.62225 20.2373 4.53638 20.2381M4.5074 20.2932C4.42353 20.3043 4.33879 20.3136 4.32157 20.3136C4.26175 20.3136 4.34823 20.2885 4.44322 20.263M4.44322 20.263C4.33631 20.2666 4.14354 20.2951 4.05315 20.2838C4.01148 20.2786 4.33484 20.24 4.53638 20.2381M4.44322 20.263C4.47504 20.2544 4.50783 20.2458 4.53638 20.2381M4.53638 20.2381C4.55801 20.2322 4.57722 20.2269 4.59174 20.2224C4.6831 20.1944 4.84688 20.1777 4.91103 20.0961C4.95119 20.045 4.91503 20.0077 4.86015 20.0031C4.77166 19.9957 4.26587 20.0623 4.22859 19.9803C4.14745 19.8018 4.83215 19.8031 4.89349 19.7417C4.92324 19.712 4.38657 19.6231 4.36718 19.6154C4.18992 19.5451 4.37855 19.3025 4.46367 19.2488C4.55023 19.1941 4.6534 19.1738 4.74261 19.1242C4.75263 19.1186 4.65748 19.1111 4.64612 19.0838C4.61813 19.0167 5.25609 19.0033 5.23383 18.9031C5.22674 18.8712 4.90571 18.9106 4.85489 18.8453C4.76795 18.7335 4.9538 18.6484 5.02682 18.6119M5.02681 18.5803C5.11291 18.4942 5.33005 18.5693 5.44435 18.5312C5.50417 18.5113 4.82543 18.3244 4.93909 18.1611C4.99659 18.0784 5.14928 18.0566 5.23382 18.0119C5.29471 17.9798 5.31452 17.9411 5.3847 17.9102C5.453 17.8801 5.37964 17.8266 5.34435 17.8207C5.26269 17.8071 5.6138 17.701 5.6654 17.6979C5.74539 17.6931 5.81837 17.6819 5.87592 17.6172C5.94556 17.5389 5.66223 17.5699 5.62855 17.5681C5.57613 17.5653 5.38582 17.566 5.35663 17.4997C5.32428 17.4261 5.83041 17.338 5.89697 17.3242C6.35208 17.2301 5.63485 17.1734 5.70399 17.0962C5.79681 16.9924 6.03617 16.9775 6.15837 16.9558C6.2186 16.9451 6.66129 16.8573 6.3724 16.8453C6.28064 16.8415 6.03732 16.8971 6.03732 16.7646C6.03732 16.6935 6.10661 16.6184 6.16188 16.5804C6.31727 16.4735 5.38408 16.5393 5.77767 16.3699C5.93637 16.3016 6.1616 16.3104 6.29696 16.1997C6.30815 16.1905 6.01024 16.1804 5.96188 16.1804C5.53885 16.1804 6.64272 15.9916 6.15661 15.9348C6.10017 15.9282 5.7938 15.9651 5.78469 15.8892C5.77129 15.7775 5.91772 15.7563 5.99872 15.7172C6.10918 15.6639 6.44802 15.5692 6.32679 15.5506C6.27213 15.5422 5.88294 15.5733 5.88294 15.5295C5.88294 15.3648 6.21018 15.3074 6.31801 15.2997C6.3585 15.2968 6.51689 15.3189 6.54959 15.2769C6.58872 15.2266 6.43554 15.206 6.42503 15.205C6.24386 15.1873 6.05781 15.2049 5.87592 15.2015C5.72533 15.1986 6.17333 15.0539 6.21977 15.0366C6.43904 14.9547 5.82622 14.9488 5.76715 14.9488C5.73996 14.9488 5.42789 14.9867 5.47593 14.8787C5.5412 14.7318 6.127 14.6015 5.67066 14.6015C5.64417 14.6015 5.31666 14.623 5.32505 14.5699C5.3401 14.4746 5.70336 14.3552 5.78118 14.3138C6.03407 14.1792 5.46751 14.3946 5.50224 14.2383C5.51829 14.1661 5.8976 14.1278 5.65662 14.1278C5.54801 14.1278 5.38429 14.1128 5.52505 13.9769C5.57155 13.932 5.87479 13.7841 5.75662 13.7804C5.54657 13.7739 5.33522 13.7804 5.12506 13.7804C4.97919 13.7804 5.10651 13.7685 5.17769 13.7453C5.31565 13.7004 5.45182 13.6653 5.59522 13.6418C5.69082 13.6262 5.73296 13.6219 5.61803 13.6068C5.54104 13.5966 4.76901 13.6526 4.88822 13.4804C4.9362 13.4111 5.04076 13.3362 5.11453 13.2997C5.15462 13.2799 5.62296 13.1202 5.4268 13.1173C5.28226 13.1151 5.11467 13.1422 4.97243 13.1138C4.83435 13.0862 5.25269 12.8779 5.27418 12.8699C5.57061 12.7601 5.20762 12.8015 5.08295 12.8015C5.00655 12.8015 4.71395 12.8517 4.68647 12.7383C4.67363 12.6854 5.10588 12.3933 5.00576 12.391C4.97482 12.3903 4.70323 12.4016 4.7391 12.3559C4.84116 12.226 5.18133 12.201 5.33558 12.1577C5.53131 12.1026 5.0067 12.1756 4.94962 12.1875C4.79495 12.2196 4.34977 12.347 4.48121 12.2594C4.63916 12.1541 4.77177 12.0964 4.96015 12.0506C5.10978 12.0143 5.115 12.012 4.9812 12.012C4.78849 12.012 4.59483 12.0183 4.40226 12.012C4.23171 12.0065 4.4709 11.9002 4.52156 11.8857M4.49011 11.9805C4.50238 11.8373 4.5866 11.7196 4.70063 11.6331C4.86993 11.5047 4.75177 11.4812 4.58484 11.4752C4.23561 11.4627 4.64527 11.3144 4.77431 11.2857C4.85042 11.2688 5.03266 11.2466 5.07606 11.1664C5.09247 11.1362 4.67532 11.0668 4.61642 11.0647C4.25622 11.0518 4.99789 10.9205 4.89887 10.8875C4.73675 10.8335 4.57841 10.8154 4.40941 10.8121C4.22432 10.8084 4.44712 10.7053 4.50765 10.6928C4.58311 10.6772 5.0257 10.6813 5.03571 10.5612C5.03838 10.5292 4.4334 10.4103 4.3638 10.3893C4.18403 10.3349 4.35386 10.3087 4.44099 10.2998C4.49275 10.2945 4.9561 10.2467 4.78484 10.2437C4.64906 10.2413 4.6027 10.2124 4.48485 10.1682C4.40627 10.1388 4.15079 10.1583 4.23397 10.1472C4.33208 10.1341 4.97389 10.1019 4.96203 10.0366C4.92061 9.80884 4.41792 9.98709 4.40239 9.8577C4.38623 9.72303 5.56443 9.64713 4.92168 9.56473C4.82816 9.55274 4.6835 9.54786 4.6059 9.48578C4.49693 9.39861 4.96348 9.30766 4.99185 9.29631C5.08488 9.2591 4.82797 9.18894 4.81291 9.18578C4.78236 9.17939 4.44521 9.14927 4.4673 9.10508C4.50556 9.02858 5.04222 9.05961 4.94975 8.94193C4.86693 8.83652 4.64758 8.83757 4.59186 8.72614C4.52375 8.58993 4.88984 8.63316 4.94449 8.63316C4.97922 8.63316 5.2341 8.65847 5.24097 8.61211C5.25779 8.49858 4.95424 8.39504 4.87256 8.35598C4.76318 8.30366 5.11145 8.31257 5.2322 8.30159C5.2657 8.29855 5.66016 8.28942 5.63746 8.21563C5.6259 8.17808 5.06519 7.92535 5.18132 7.89283C5.20825 7.88529 5.47662 7.8836 5.44097 7.83669C5.34214 7.70665 5.10362 7.78029 4.99887 7.66125C4.9932 7.6548 5.45995 7.59586 5.52342 7.59283C5.60781 7.58881 5.74156 7.63324 5.71816 7.51038C5.69157 7.37081 5.53232 7.3931 5.43395 7.33845C5.27429 7.24975 5.68565 7.12948 5.72868 7.12442C5.78415 7.11789 6.14476 7.14996 6.11113 7.06828C6.06229 6.94966 5.93228 7.0403 5.86552 6.97355C5.81274 6.92076 6.02641 6.87948 6.05499 6.86478C6.13812 6.82203 5.9895 6.76904 5.96026 6.73145C5.88816 6.63875 5.82202 6.61605 5.97955 6.59636C6.04512 6.58816 6.48031 6.55471 6.44972 6.43847C6.4324 6.37263 6.0385 6.24616 6.27604 6.20865C6.33604 6.19917 6.54204 6.23732 6.58481 6.18233C6.63012 6.12408 6.46977 6.05314 6.44446 6.0262C6.3636 5.94012 6.70727 5.89911 6.74972 5.89287C7.06712 5.84619 6.45148 5.67626 6.45148 5.55252C6.45148 5.39739 7.0369 5.58623 6.90761 5.3034C6.83903 5.15338 6.71708 5.06645 6.93392 4.97008C6.99273 4.94394 6.85356 4.8622 6.84094 4.84376C6.8196 4.81257 7.25319 4.69954 7.29707 4.68587C7.5251 4.61485 6.79179 4.57157 7.13216 4.44903C7.28931 4.39246 7.42688 4.33851 7.17427 4.33851" stroke="#3355AA" stroke-width="0.3" stroke-linecap="round"/>
<path d="M27.2955 16.2334C27.7578 15.6829 28.2018 15.1461 28.6305 14.6194L28.1862 14.1258C27.7221 14.6397 27.2572 15.1554 26.7912 15.6731L27.2955 16.2334Z" fill="#3355AA"/>
<path d="M14.5666 30.2942C14.4738 30.1141 14.3855 29.9313 14.3019 29.746C13.8088 30.2684 13.3023 30.8037 12.7818 31.3528C12.8891 31.5565 13.0013 31.7571 13.1183 31.9546C13.6049 31.3958 14.0876 30.8424 14.5666 30.2942Z" fill="#3355AA"/>
<path d="M13.289 32.2352C13.3893 32.3957 13.4927 32.5539 13.5993 32.7098C14.0938 32.1956 14.5843 31.6847 15.0709 31.1766C14.9691 31.0151 14.8711 30.851 14.7771 30.6844C14.2851 31.1983 13.7892 31.7151 13.289 32.2352Z" fill="#3355AA"/>
<path d="M29.7921 14.1965C30.0338 14.3044 30.2713 14.4202 30.504 14.5437C30.9686 14.013 31.4345 13.4816 31.9019 12.9495C31.6612 12.8107 31.416 12.679 31.1664 12.5546C30.7103 13.1048 30.2523 13.6519 29.7921 14.1965Z" fill="#3355AA"/>
<path d="M29.9798 12.0313C30.1877 12.1115 30.3932 12.1965 30.5961 12.2863C30.3199 12.5909 30.0435 12.8958 29.767 13.2012C29.5734 13.4467 29.3769 13.6938 29.1772 13.9428C28.9704 13.8643 28.7608 13.7915 28.5486 13.7245C28.8144 13.4305 29.0799 13.137 29.3452 12.8439C29.5602 12.5712 29.7716 12.3006 29.9798 12.0313Z" fill="#3355AA"/>
<path d="M28.7917 11.6344C28.985 11.6893 29.1765 11.7483 29.3663 11.8113C28.8804 12.3842 28.3907 12.9595 27.8954 13.5392C27.7953 13.5139 27.6946 13.4899 27.5935 13.4672L27.7799 13.6743C27.3317 14.1986 26.8787 14.7266 26.4195 15.2601L26.0469 14.8461C26.9835 13.7576 27.8944 12.6917 28.7917 11.6344Z" fill="#3355AA"/>
<path d="M28.58 11.5761C27.7307 12.6809 26.8804 13.7641 26.0305 14.8279L25.6559 14.4117C26.4349 13.4358 27.2142 12.4435 27.9927 11.4332C28.1901 11.4766 28.3859 11.5243 28.58 11.5761Z" fill="#3355AA"/>
<path d="M28.773 9.28163L28.8891 9.38611L27.1841 11.2805C27.3748 11.3106 27.5642 11.3447 27.7522 11.3825C27.0336 12.2374 26.2623 13.1465 25.4137 14.1425L24.9786 13.6592C26.2501 12.1733 27.5144 10.7066 28.773 9.28163Z" fill="#3355AA"/>
<path d="M28.3281 8.88121L28.7388 9.25087C27.4409 10.7238 26.1498 12.1465 24.8696 13.538L24.498 13.1251C25.7682 11.7443 27.0466 10.3355 28.3281 8.88121Z" fill="#3355AA"/>
<path d="M27.7437 8.35526L28.1549 8.7254C27.0518 10.0882 25.8718 11.4805 24.4678 13.0916L24.0955 12.6779C25.4834 11.0844 26.6509 9.70596 27.7437 8.35526Z" fill="#3355AA"/>
<path d="M14.1308 20.5009C13.4832 21.2437 12.8003 22.0312 12.0776 22.8684C12.6968 22.2402 13.3168 21.6231 13.9351 21.0163C13.8085 21.3753 13.6988 21.7424 13.607 22.1165C12.8044 22.9135 12.001 23.7277 11.2021 24.5614C11.217 23.9869 11.2669 23.4211 11.3498 22.866C12.8069 21.1762 14.105 19.6844 15.2802 18.3508C14.8263 19.0214 14.4399 19.7413 14.1308 20.5009Z" fill="#3355AA"/>
<path d="M11.6577 21.3757C12.8268 20.1074 14.0695 18.653 15.3572 17.0955C14.5874 17.8918 13.8345 18.6641 13.1073 19.4099C12.6814 19.8468 12.2642 20.2746 11.8578 20.6928C11.9999 20.2506 12.1638 19.8182 12.348 19.3967C12.4772 19.2641 12.6072 19.1308 12.738 18.9966C13.5351 18.1793 14.3623 17.3309 15.2075 16.4551L16.0213 17.1588C15.9875 17.1999 15.9536 17.2409 15.9198 17.2819C14.3468 19.1887 12.8288 20.9595 11.421 22.4365C11.4862 22.0779 11.5653 21.7241 11.6577 21.3757Z" fill="#3355AA"/>
<path d="M12.5675 18.9194C13.3959 17.9642 14.168 17.0577 14.9003 16.1895L14.5578 15.8934C13.7693 16.8054 13.098 17.822 12.5675 18.9194Z" fill="#3355AA"/>
<path d="M11.2987 26.604C11.2572 26.2623 11.2283 25.9168 11.2122 25.568C11.9912 24.6569 12.7294 23.7935 13.4306 22.9734C13.3599 23.3966 13.3119 23.8274 13.2877 24.2646C12.6071 25.0624 11.9436 25.8432 11.2987 26.604Z" fill="#3355AA"/>
<path d="M12.5797 30.9535C12.4586 30.7042 12.3447 30.4506 12.2383 30.1931C12.5292 29.8611 12.8211 29.5281 13.1139 29.1941C13.3411 28.935 13.5687 28.6753 13.7969 28.4149C13.8861 28.7016 13.9859 28.9835 14.0959 29.2603C13.6011 29.8136 13.0959 30.3777 12.5797 30.9535Z" fill="#3355AA"/>
<path d="M13.6608 27.9419C13.1515 28.5441 12.6267 29.1654 12.0856 29.8068C11.9376 29.4154 11.8069 29.0154 11.6944 28.6079C12.2723 28.0218 12.848 27.4249 13.4215 26.8191C13.4833 27.1998 13.5633 27.5744 13.6608 27.9419Z" fill="#3355AA"/>
<path d="M13.3398 26.217C13.2934 25.7924 13.2695 25.361 13.2695 24.9239C13.2695 24.8967 13.2696 24.8695 13.2698 24.8424C12.6563 25.53 12.0176 26.2466 11.3517 26.9945C11.4181 27.4359 11.5054 27.8705 11.6125 28.2972C12.1821 27.5953 12.7581 26.9027 13.3398 26.217Z" fill="#3355AA"/>
<path d="M27.6175 8.24171L27.3489 8L23.6172 12.1464L23.7833 12.331C25.1785 10.9421 26.4722 9.58451 27.6175 8.24171Z" fill="#3355AA"/>
<path d="M32.1946 13.1232C31.7407 13.6486 31.2821 14.179 30.8176 14.7162C31.1079 14.8817 31.3906 15.0593 31.6648 15.2482C32.1374 14.7254 32.6044 14.2106 33.0673 13.702C32.7843 13.4984 32.4932 13.3053 32.1946 13.1232Z" fill="#3355AA"/>
<path d="M33.4158 13.9609C32.9595 14.4723 32.5002 14.99 32.0365 15.5152C32.2663 15.6871 32.4897 15.8673 32.7061 16.0553C33.1614 15.5355 33.6156 15.0153 34.0688 14.4945C33.8567 14.3102 33.639 14.1322 33.4158 13.9609Z" fill="#3355AA"/>
<path d="M34.4209 14.8112C33.9763 15.3403 33.532 15.8701 33.0871 16.401C33.2308 16.5372 33.3711 16.6771 33.5078 16.8204C33.9564 16.2953 34.4063 15.7672 34.8576 15.236C34.7152 15.0912 34.5695 14.9496 34.4209 14.8112Z" fill="#3355AA"/>
<path d="M35.1504 15.5428C34.7221 16.0706 34.282 16.6124 33.828 17.1698C33.851 17.196 33.8739 17.2222 33.8967 17.2486C33.9966 17.3641 34.0942 17.4815 34.1896 17.6009C34.6474 17.039 35.091 16.4931 35.5224 15.9613C35.5031 15.9386 35.4836 15.916 35.4641 15.8934C35.3615 15.7747 35.2569 15.6578 35.1504 15.5428Z" fill="#3355AA"/>
<path d="M35.6858 16.1563C35.21 16.6645 34.735 17.1756 34.2602 17.6902C34.3757 17.8376 34.4877 17.9878 34.5962 18.1408C35.0745 17.6222 35.5528 17.1071 36.0319 16.595C35.9194 16.4464 35.804 16.3001 35.6858 16.1563Z" fill="#3355AA"/>
<path d="M36.3289 17.0026C35.8563 17.5086 35.3735 18.0259 34.8786 18.5577C35.0182 18.7736 35.1509 18.9944 35.2764 19.2197C35.6034 18.8408 35.93 18.4623 36.2564 18.0841C36.4055 17.9113 36.5546 17.7385 36.7036 17.5659C36.5832 17.3749 36.4583 17.1871 36.3289 17.0026Z" fill="#3355AA"/>
<path d="M37.0447 18.137C36.5579 18.659 36.0617 19.1958 35.5541 19.7498C35.6726 19.9906 35.783 20.2362 35.8851 20.486C36.4048 19.8845 36.9006 19.3119 37.3777 18.7632C37.2719 18.5513 37.1609 18.3425 37.0447 18.137Z" fill="#3355AA"/>
<path d="M37.6369 19.3126C37.1245 19.8992 36.6136 20.4848 36.105 21.0684C36.1879 21.3069 36.2633 21.549 36.331 21.7943C36.8482 21.1684 37.3675 20.5444 37.8908 19.9222C37.8109 19.7166 37.7262 19.5133 37.6369 19.3126Z" fill="#3355AA"/>
<path d="M37.9999 20.2125C37.4937 20.8927 36.9766 21.573 36.4483 22.2565C36.5032 22.4929 36.551 22.7321 36.5914 22.9738C37.1438 22.2633 37.6845 21.5564 38.2136 20.8499C38.1474 20.6351 38.0761 20.4226 37.9999 20.2125Z" fill="#3355AA"/>
<path d="M38.2875 21.0978C37.7526 21.7341 37.1931 22.3833 36.6045 23.0539C36.643 23.2947 36.6742 23.538 36.6978 23.7835C37.3144 23.0853 37.8996 22.4109 38.4582 21.7515C38.4065 21.5315 38.3496 21.3136 38.2875 21.0978Z" fill="#3355AA"/>
<path d="M38.5679 22.2612C37.9543 22.9375 37.3435 23.6067 36.7347 24.2718C36.7465 24.4876 36.7524 24.7051 36.7524 24.9239C36.7524 25.2677 36.7377 25.6081 36.7088 25.9443C37.3871 25.1165 38.066 24.2844 38.7466 23.4495C38.704 23.0481 38.6442 22.6517 38.5679 22.2612Z" fill="#3355AA"/>
<path d="M38.7945 24.0068C38.1076 24.8104 37.3959 25.6059 36.6598 26.4068C36.5973 26.9029 36.5039 27.3893 36.3815 27.8641C37.2327 26.8622 38.0399 25.9184 38.8242 25.0166C38.8244 24.9857 38.8245 24.9548 38.8245 24.9239C38.8245 24.6158 38.8144 24.31 38.7945 24.0068Z" fill="#3355AA"/>
<path d="M38.8159 25.4137C38.0164 26.2718 37.2015 27.1945 36.2706 28.2647C36.1204 28.7718 35.9369 29.2644 35.7226 29.7403C35.8303 29.6158 35.9363 29.4934 36.0407 29.3728C37.0603 28.1955 37.9288 27.1996 38.7575 26.2921C38.7861 26.0018 38.8056 25.7089 38.8159 25.4137Z" fill="#3355AA"/>
<path d="M38.709 26.7176C37.5877 27.9383 36.4971 29.1412 35.4479 30.3088C35.0211 31.1341 34.4993 31.9023 33.8967 32.5992L34.0345 32.7183C35.4509 31.1269 36.9631 29.4437 38.5416 27.7179C38.6093 27.3886 38.6652 27.055 38.709 26.7176Z" fill="#3355AA"/>
<path d="M38.3567 28.5006C37.3497 29.5791 36.2832 30.6331 35.1677 31.7179C34.892 31.9861 34.6133 32.2561 34.3319 32.5288L34.33 32.5305C34.2497 32.6084 34.1691 32.6865 34.0882 32.7648L34.5078 33.1276C34.5767 33.0609 34.6454 32.9943 34.714 32.9279C34.9962 32.6545 35.2759 32.3835 35.553 32.114C35.6841 31.9864 35.8148 31.8592 35.9448 31.7322C35.5194 32.2353 35.0883 32.7393 34.6472 33.2481L35.0652 33.6095C35.699 32.8783 36.3123 32.1572 36.9173 31.4343C36.4003 32.1635 35.841 32.9308 35.2221 33.7452L35.4641 33.9544C36.8073 32.4009 37.8103 30.5439 38.3567 28.5006Z" fill="#3355AA"/>
<path d="M22.6964 41.4811L26.4386 37.7389L26.1178 37.3825C25.2015 38.3608 24.2776 39.3176 23.3433 40.2495C24.2099 39.1856 25.0664 38.1577 25.9156 37.1578L25.5427 36.7435C25.1376 37.2202 24.7308 37.7032 24.3221 38.1932C24.7205 37.6882 25.1148 37.1912 25.5051 36.7018L24.845 35.9682C24.1076 36.782 23.3417 37.6308 22.5457 38.5179C22.5977 38.5273 22.6498 38.5364 22.702 38.5452L21.1704 40.0768L21.5515 40.458C22.3587 39.5529 23.1366 38.6855 23.887 37.8528C23.1783 38.7513 22.4568 39.6756 21.7224 40.6289L22.4492 41.3557L22.5059 41.2851L22.6964 41.4811Z" fill="#3355AA"/>
<path d="M22.1168 38.4336C22.9809 37.5283 23.8168 36.6267 24.6295 35.7288L23.9885 35.0167C23.008 36.1422 22.0755 37.2093 21.2009 38.2051C21.5021 38.2913 21.8075 38.3676 22.1168 38.4336Z" fill="#3355AA"/>
<path d="M20.6039 38.0192C20.6584 37.9528 20.7129 37.8866 20.7672 37.8205C21.2254 37.304 21.6728 36.7987 22.11 36.3044C21.8888 36.2482 21.6702 36.1858 21.4542 36.1172C21.0907 36.5576 20.7218 37.0055 20.3472 37.4612C20.2435 37.5781 20.1393 37.6956 20.0345 37.8136C20.2224 37.8862 20.4122 37.9547 20.6039 38.0192Z" fill="#3355AA"/>
<path d="M19.3362 37.5214C19.821 36.9738 20.3037 36.4273 20.7845 35.8819C20.4301 35.7452 20.084 35.5917 19.7471 35.4225C19.2928 35.947 18.8296 36.4833 18.3571 37.0319C18.676 37.2075 19.0026 37.3709 19.3362 37.5214Z" fill="#3355AA"/>
<path d="M18.1774 36.9312C18.6381 36.3883 19.0943 35.851 19.5464 35.3192C19.2896 35.1839 19.0384 35.0393 18.7932 34.886C18.3391 35.3998 17.8756 35.9226 17.4024 36.4547C17.655 36.6217 17.9135 36.7807 18.1774 36.9312Z" fill="#3355AA"/>
<path d="M17.0401 36.2069C17.5009 35.6781 17.9562 35.1537 18.4067 34.6335C18.1088 34.4305 17.8207 34.2141 17.5433 33.9851C17.0723 34.4944 16.6017 35.0012 16.1314 35.5056C16.2727 35.6243 16.4165 35.7402 16.5626 35.8533C16.8339 35.5623 17.1053 35.2705 17.3769 34.9778C17.1177 35.2764 16.8568 35.5763 16.5941 35.8777C16.7405 35.9903 16.8892 36.1001 17.0401 36.2069Z" fill="#3355AA"/>
<path d="M15.716 35.1424C15.9389 34.8881 16.1598 34.6359 16.3789 34.3856C16.6149 34.1199 16.8511 33.8543 17.0873 33.5888C16.9491 33.4623 16.8139 33.3326 16.6819 33.1997C16.4467 33.4689 16.2093 33.7403 15.9696 34.0142C15.7496 34.2619 15.5297 34.5096 15.3099 34.7576C15.4426 34.8885 15.578 35.0168 15.716 35.1424Z" fill="#3355AA"/>
<path d="M14.973 34.4135C15.4307 33.8727 15.8803 33.3422 16.3224 32.8215C16.2557 32.7483 16.19 32.6742 16.1252 32.5992C16.0029 32.4577 15.8838 32.3133 15.7683 32.166C15.3192 32.6899 14.8625 33.2231 14.3978 33.766C14.4506 33.8293 14.5039 33.8921 14.5578 33.9544C14.6928 34.1105 14.8313 34.2636 14.973 34.4135Z" fill="#3355AA"/>
<path d="M14.1645 33.4786C14.6223 32.9434 15.0815 32.4066 15.5422 31.8683C15.4296 31.7151 15.3207 31.559 15.2155 31.4003C14.7498 31.9443 14.2857 32.4868 13.8232 33.0276C13.9339 33.1803 14.0478 33.3307 14.1645 33.4786Z" fill="#3355AA"/>
<path d="M21.807 35.6901L22.2338 36.1644C22.7058 35.6305 23.1658 35.1095 23.6142 34.6007L23.1437 34.078C22.7064 34.6037 22.261 35.141 21.807 35.6901Z" fill="#3355AA"/>
<path d="M22.7529 33.6438C22.2955 34.1651 21.8365 34.6875 21.3757 35.2109L21.1329 34.9411L22.673 33.555L22.7529 33.6438Z" fill="#3355AA"/>
<path d="M15.7592 17.2871L14.0611 20.6834C14.0425 20.7206 14.0288 20.759 14.0202 20.7997C13.9536 21.1128 13.6492 22.5779 13.5612 23.5704C13.4474 24.8552 13.4142 25.5918 13.5612 26.8732C13.6683 27.8067 13.7044 28.3522 14.0331 29.2324C14.4088 30.239 14.8068 30.7298 15.4486 31.5915C16.3824 32.8455 17.0151 33.5029 18.2795 34.4225C19.3078 35.1703 20.9961 35.8876 21.7141 36.1763C21.8786 36.2425 22.0544 36.1205 22.0544 35.9432C22.0544 35.8759 22.0276 35.8113 21.98 35.7637L21.4642 35.2479C21.2689 35.0527 21.2688 34.736 21.4641 34.5408L22.1725 33.8324C22.3677 33.6372 22.6843 33.6372 22.8796 33.8324L26.3975 37.3504C26.601 37.5538 26.5912 37.8865 26.3762 38.0776L22.8784 41.1868C22.6805 41.3627 22.3799 41.3538 22.1927 41.1666L21.4641 40.4381C21.2688 40.2428 21.2688 39.9262 21.4641 39.7309L21.9898 39.2052C22.2437 38.9514 22.1553 38.5207 21.822 38.3874L20.1761 37.729C20.1699 37.7266 20.1644 37.7245 20.1582 37.7222C19.9975 37.6646 17.6494 36.8134 16.3922 35.838C15.05 34.7967 14.5017 33.9499 13.5612 32.5352C12.3286 30.6811 11.611 29.5336 11.2021 27.3451C10.7608 24.9835 11.0984 23.5438 11.6739 21.2113C11.9531 20.0798 12.1148 19.4316 12.6176 18.3803C13.0061 17.568 13.7348 16.5565 14.1641 15.9889C14.3436 15.7517 14.6884 15.7328 14.8987 15.9431L15.6656 16.71C15.8177 16.8621 15.8555 17.0946 15.7592 17.2871Z" stroke="#3355AA" stroke-width="0.5"/>
<path d="M28.3532 14.299L27.7309 13.6766C27.7211 13.6669 27.7117 13.6569 27.7036 13.6457C27.6582 13.5829 27.538 13.3747 28.188 13.662C28.9418 13.995 29.6621 14.157 30.5472 14.6056C31.7323 15.2064 32.4386 15.5534 33.3782 16.493C34.2964 17.4112 35.2225 19.2386 35.264 19.3211L35.2668 19.3264C35.3097 19.4088 36.4329 21.5745 36.681 23.0986C36.8766 24.3004 36.7029 26.1766 36.6828 26.3828C36.6816 26.3958 36.68 26.4068 36.6776 26.4196C36.639 26.6267 36.2705 28.5536 35.7373 29.7042C35.3524 30.5351 34.6016 31.5653 34.1721 32.1255C33.9991 32.3512 34.0396 32.6774 34.2671 32.848L35.3507 33.6607C35.5663 33.8224 35.8719 33.7846 36.0365 33.5711C37.4759 31.7047 38.1075 30.2467 38.5683 27.8169C38.946 25.8255 38.9169 24.6234 38.5683 22.6268C38.2676 20.9048 37.9575 19.9321 37.1528 18.3803C36.4232 16.9731 35.9091 16.2036 34.7937 15.0775C33.3911 13.6614 32.3809 13.0275 30.5472 12.2465C29.841 11.9457 28.8617 11.6802 28.1529 11.508C27.7653 11.4139 27.6214 10.9258 27.9034 10.6438L28.724 9.82314C28.9392 9.60799 28.9139 9.25215 28.6705 9.06959L27.6124 8.27604C27.4044 8.12001 27.1115 8.1495 26.9387 8.34386L23.765 11.9143C23.5966 12.1037 23.5966 12.3892 23.765 12.5787L26.8378 16.0356C27.0479 16.2719 27.4218 16.2564 27.6115 16.0034L28.3997 14.9526C28.549 14.7535 28.5292 14.4749 28.3532 14.299Z" stroke="#3355AA" stroke-width="0.5"/>
<defs>
<filter id="filter0_d_177_477" x="0" y="0" width="54.6626" height="54.975" filterUnits="userSpaceOnUse" color-interpolation-filters="sRGB">
<feFlood flood-opacity="0" result="BackgroundImageFix"/>
<feColorMatrix in="SourceAlpha" type="matrix" values="0 0 0 0 0 0 0 0 0 0 0 0 0 0 0 0 0 0 127 0" result="hardAlpha"/>
<feOffset dx="2" dy="2"/>
<feGaussianBlur stdDeviation="2"/>
<feComposite in2="hardAlpha" operator="out"/>
<feColorMatrix type="matrix" values="0 0 0 0 0 0 0 0 0 0 0 0 0 0 0 0 0 0 0.4 0"/>
<feBlend mode="normal" in2="BackgroundImageFix" result="effect1_dropShadow_177_477"/>
<feBlend mode="normal" in="SourceGraphic" in2="effect1_dropShadow_177_477" result="shape"/>
</filter>
</defs>
</svg>
