<svg width="50" height="24" viewBox="0 0 50 24" fill="none" xmlns="http://www.w3.org/2000/svg">
<path d="M49.3898 13.0468C49.4631 12.3509 49.4631 11.6491 49.3898 10.9532L48.677 4.18128C48.5748 3.21059 47.7869 2.45543 46.8127 2.39455L45.5 2.3125L46.4894 11.8917C46.4964 11.9601 46.4964 12.0289 46.4894 12.0972L45.5 21.6765L46.8061 21.5996C47.7832 21.5422 48.5752 20.7859 48.6776 19.8125L49.3898 13.0468Z" fill="#3355AA" fill-opacity="0.72"/>
<path d="M1.63718 11.3213C1.2765 11.7012 1.2767 12.2989 1.63758 12.6786C5.74667 17.0023 8.84645 19.2494 14.5723 22.0519C15.1862 22.3524 15.8334 22.59 16.5086 22.6965C17.5772 22.8649 18.742 22.9523 19.2452 22.9848C19.4156 22.9958 19.5854 23 19.7562 23H23.5L31.5 22.5L45.5 21.6765L46.4894 12.0972C46.4964 12.0289 46.4964 11.9601 46.4894 11.8917L45.5 2.3125L40.5 2L31.5 1.5L23.5 1H19.6097C19.5366 1 19.4639 1.00076 19.3908 1.00316C18.9735 1.0168 17.4425 1.08139 16.2197 1.32253C15.7352 1.41807 15.2761 1.60735 14.833 1.82544C8.64204 4.87276 5.60177 7.14528 1.63718 11.3213Z" fill="white"/>
<path d="M40.4723 2.49923L45.0462 2.78511L45.992 11.9431C45.9956 11.9773 45.9956 12.0117 45.992 12.0459L45.0463 21.2023L31.4706 22.0009L31.4688 22.001L23.4844 22.5H19.7562C19.5935 22.5 19.4347 22.496 19.2774 22.4858C18.7784 22.4536 17.6319 22.3674 16.5864 22.2026C15.9749 22.1062 15.3764 21.8888 14.7921 21.6028C9.116 18.8246 6.06546 16.612 2.00001 12.3342C1.82246 12.1474 1.8224 11.8524 1.99979 11.6655C5.92037 7.53589 8.91146 5.29743 15.0538 2.27404C15.4797 2.0644 15.8939 1.89641 16.3165 1.81308C17.4958 1.58051 18.9911 1.51649 19.4071 1.50289C19.473 1.50073 19.5399 1.5 19.6097 1.5H23.4844L31.4688 1.99904L31.4723 1.99923L40.4688 2.49903L40.4723 2.49923ZM46.0578 21.1428L46.9867 12.1486C46.9973 12.0461 46.9973 11.9428 46.9867 11.8404L46.058 2.84835L46.7815 2.89357C47.5121 2.93923 48.1031 3.5056 48.1797 4.23362L48.8926 11.0055C48.9622 11.6667 48.9622 12.3333 48.8926 12.9945L48.1804 19.7601C48.1035 20.4902 47.5096 21.0574 46.7767 21.1005L46.0578 21.1428Z" stroke="#3355AA"/>
<path d="M19.5 5.5L23.5 9M23.5 15L19.5 18.5M26.5 9L29 5.5M26.5 15.2911L29 18.5" stroke="#3355AA"/>
<path d="M29 6V18C29 18.2761 28.7761 18.5 28.5 18.5H20.5C19.6716 18.5 19 17.8284 19 17V7C19 6.17157 19.6716 5.5 20.5 5.5H24H28.5C28.7761 5.5 29 5.72386 29 6Z" stroke="#3355AA"/>
<path d="M27 15.5H23V8.5H27V15.5Z" stroke="#3355AA"/>
<path d="M10.5 7.25H15.5C15.9142 7.25 16.25 7.58579 16.25 8V16C16.25 16.4142 15.9142 16.75 15.5 16.75H10.5C10.0858 16.75 9.75 16.4142 9.75 16V8C9.75 7.58579 10.0858 7.25 10.5 7.25Z" stroke="#3355AA" stroke-width="0.5"/>
<path d="M15 9.5V14.5C15 15.0523 14.5523 15.5 14 15.5C13.4477 15.5 13 15.0523 13 14.5V9.5C13 8.94772 13.4477 8.5 14 8.5C14.5523 8.5 15 8.94772 15 9.5Z" fill="#3355AA" stroke="#3355AA"/>
<path d="M12.5 10H7.5M12.5 12H7.5M12.5 14H7.5" stroke="#3355AA"/>
<path d="M32.7494 15.25H42.9836C43.2226 15.25 43.4458 15.3694 43.5784 15.5683C43.9545 16.1325 43.9545 16.8675 43.5784 17.4317C43.4458 17.6306 43.2226 17.75 42.9836 17.75H32.7494C32.6772 17.75 32.6097 17.7139 32.5697 17.6538C32.1039 16.9551 32.1039 16.0449 32.5697 15.3462C32.6097 15.2861 32.6772 15.25 32.7494 15.25Z" fill="#3355AA" fill-opacity="0.72" stroke="#3355AA" stroke-width="0.5"/>
<path d="M32.7494 6.25L42.9836 6.25C43.2226 6.25 43.4458 6.36945 43.5784 6.56831C43.9545 7.1325 43.9545 7.8675 43.5784 8.43169C43.4458 8.63055 43.2226 8.75 42.9836 8.75H32.7494C32.6772 8.75 32.6097 8.7139 32.5697 8.65381C32.1039 7.95512 32.1039 7.04488 32.5697 6.34619C32.6097 6.2861 32.6772 6.25 32.7494 6.25Z" fill="#3355AA" fill-opacity="0.72" stroke="#3355AA" stroke-width="0.5"/>
<path d="M34.5 19V18" stroke="#3355AA" stroke-width="2"/>
<path d="M34.5 15V14M34.5 10V9M34.5 6V5M41.5 5V6M41.5 9V10M41.5 15V14M41.5 18V19" stroke="#3355AA" stroke-width="2"/>
</svg>
