<svg width="100" height="24" viewBox="0 0 100 24" fill="none" xmlns="http://www.w3.org/2000/svg">
<g clip-path="url(#clip0_93_5)">
<path d="M29.5 5.27215L5.38336 10.1315C3.25898 10.5595 3.23732 13.5884 5.35536 14.0468L29.5 19.2721C29.5 19.2721 42.5236 21.5533 51 22.2721C60.3391 23.0642 65.6855 23.3143 75 22.2721C79.9874 21.7141 86.5249 20.0337 90.9719 18.7739C93.9818 17.9212 96 15.1505 96 12.0221C96 8.898 93.9733 6.13541 90.9642 5.29533C86.5235 4.05558 79.9998 2.39068 75 1.77215C65.6983 0.621426 60.3292 0.871366 51 1.77215C42.4992 2.59295 29.5 5.27215 29.5 5.27215Z" fill="white"/>
<path d="M45 7.27215V5.77215L46 4.89661L48 4.27215L51 3.77215H71H73.5L76.5 4.27215M45 16.7721V18.2721L46 19.2721L48 19.7721L51 20.2721H73.5L76.5 19.2721M51 1.77215C42.4992 2.59295 29.5 5.27215 29.5 5.27215L5.38336 10.1315C3.25898 10.5595 3.23732 13.5884 5.35536 14.0468L29.5 19.2721C29.5 19.2721 42.5236 21.5533 51 22.2721C60.3391 23.0642 65.6855 23.3143 75 22.2721C79.9874 21.7141 86.5249 20.0337 90.9719 18.7739C93.9818 17.9212 96 15.1505 96 12.0221V12.0221V12.0221C96 8.898 93.9733 6.13541 90.9642 5.29533C86.5235 4.05558 79.9998 2.39068 75 1.77215C65.6983 0.621426 60.3292 0.871366 51 1.77215Z" stroke="#3355AA"/>
<path d="M26 16L29.5714 16.5H32V8H29.5714L26.4952 8.43068C26.2112 8.47043 26 8.7133 26 9V9V16Z" fill="#3355AA" fill-opacity="0.72"/>
<path d="M33 7H29.5714M33 7V12V17.5M33 7L32 8M33 17.5H29.5714M33 17.5L32 16.5M29.5714 17.5L25 16.5M29.5714 17.5V16.5M29.5714 7L25 8M29.5714 7V8M25 8V16.5M25 8L26 9M25 16.5L26 16M26 16L29.5714 16.5M26 16V9M29.5714 16.5H32M32 16.5V8M32 8H29.5714M29.5714 8L26.4952 8.43068C26.2112 8.47043 26 8.7133 26 9V9" stroke="#3355AA" stroke-width="0.5"/>
<path d="M26 10H17M26 14.7637H17M26 12.385H17" stroke="#3355AA"/>
<path d="M76 8.5L72.4286 8H70V16.5H72.4286L75.5048 16.0693C75.7888 16.0296 76 15.7867 76 15.5V15.5V8.5Z" fill="#3355AA" fill-opacity="0.72"/>
<path d="M69 17.5H72.4286M69 17.5V12.5V7M69 17.5L70 16.5M69 7L72.4286 7M69 7L70 8M72.4286 7L77 8M72.4286 7V8M72.4286 17.5L77 16.5M72.4286 17.5V16.5M77 16.5V8M77 16.5L76 15.5M77 8L76 8.5M76 8.5L72.4286 8M76 8.5V15.5M72.4286 8H70M70 8V16.5M70 16.5H72.4286M72.4286 16.5L75.5048 16.0693C75.7888 16.0296 76 15.7867 76 15.5V15.5" stroke="#3355AA" stroke-width="0.5"/>
<path d="M76 14.5L85 14.5M76 9.73632H85M76 12.115H85" stroke="#3355AA"/>
<path d="M43 16L46.5714 16.5H49V8H46.5714L43.4952 8.43068C43.2112 8.47043 43 8.7133 43 9V9V16Z" fill="#3355AA" fill-opacity="0.72"/>
<path d="M50 7H46.5714M50 7V12V17.5M50 7L49 8M50 17.5H46.5714M50 17.5L49 16.5M46.5714 17.5L42 16.5M46.5714 17.5V16.5M46.5714 7L42 8M46.5714 7V8M42 8V16.5M42 8L43 9M42 16.5L43 16M43 16L46.5714 16.5M43 16V9M46.5714 16.5H49M49 16.5V8M49 8H46.5714M46.5714 8L43.4952 8.43068C43.2112 8.47043 43 8.7133 43 9V9" stroke="#3355AA" stroke-width="0.5"/>
<path d="M43 10H34M43 14.7637H34M43 12.385H34" stroke="#3355AA"/>
<path d="M48 14.1535V10.3465C48 10.1381 48.1293 9.95152 48.3244 9.87834L51.6756 8.62166C51.8707 8.54848 52 8.36192 52 8.1535V8C52 7.72386 52.2239 7.5 52.5 7.5H54.5C54.7761 7.5 55 7.27614 55 7V6C55 5.72386 55.2239 5.5 55.5 5.5H57.5C57.7761 5.5 58 5.72386 58 6V7C58 7.27614 58.2239 7.5 58.5 7.5H62.2929C62.4255 7.5 62.5527 7.44732 62.6464 7.35355L63.8536 6.14645C63.9473 6.05268 64.0745 6 64.2071 6H66.2773C66.4191 6 66.5541 6.06016 66.649 6.16552L70.8716 10.8574C70.9543 10.9492 71 11.0683 71 11.1919V13.7929C71 13.9255 70.9473 14.0527 70.8536 14.1464L66.6464 18.3536C66.5527 18.4473 66.4255 18.5 66.2929 18.5H64.2071C64.0745 18.5 63.9473 18.4473 63.8536 18.3536L62.6464 17.1464C62.5527 17.0527 62.4255 17 62.2929 17H58.5C58.2239 17 58 17.2239 58 17.5V18.5C58 18.7761 57.7761 19 57.5 19H55.5C55.2239 19 55 18.7761 55 18.5V17.5C55 17.2239 54.7761 17 54.5 17H52.5C52.2239 17 52 16.7761 52 16.5V16.3465C52 16.1381 51.8707 15.9515 51.6756 15.8783L48.3244 14.6217C48.1293 14.5485 48 14.3619 48 14.1535Z" fill="white" stroke="#3355AA" stroke-width="0.5"/>
<path d="M49.5 11V13.5M49.5 11L53 9.5M49.5 11L48 10M49.5 13.5L53 15M49.5 13.5L48 14.5M53 15V17M53 15L52 16M53 9.5V7.5M53 9.5L52 8.5M57.7071 10.5H60.2929C60.4255 10.5 60.5527 10.5527 60.6464 10.6464L60.8536 10.8536C60.9473 10.9473 61 11.0745 61 11.2071V13.2929C61 13.4255 60.9473 13.5527 60.8536 13.6464L60.6464 13.8536C60.5527 13.9473 60.4255 14 60.2929 14H57.7071C57.5745 14 57.4473 13.9473 57.3536 13.8536L57.1464 13.6464C57.0527 13.5527 57 13.4255 57 13.2929V11.2071C57 11.0745 57.0527 10.9473 57.1464 10.8536L57.3536 10.6464C57.4473 10.5527 57.5745 10.5 57.7071 10.5ZM57.1667 9.5H60.7929C60.9255 9.5 61.0527 9.55268 61.1464 9.64645L62.3536 10.8536C62.4473 10.9473 62.5 11.0745 62.5 11.2071V13.2929C62.5 13.4255 62.4473 13.5527 62.3536 13.6464L61.1464 14.8536C61.0527 14.9473 60.9255 15 60.7929 15H57.1667C57.0585 15 56.9532 14.9649 56.8667 14.9L55.2 13.65C55.0741 13.5556 55 13.4074 55 13.25V11.25C55 11.0926 55.0741 10.9444 55.2 10.85L56.8667 9.6C56.9532 9.53509 57.0585 9.5 57.1667 9.5Z" stroke="#3355AA" stroke-width="0.5"/>
<path d="M59 9V15.5" stroke="#3355AA" stroke-width="0.5"/>
<circle cx="65.5" cy="9.5" r="1.3" stroke="#3355AA" stroke-width="0.4"/>
<circle cx="65.5" cy="15.5" r="1.3" stroke="#3355AA" stroke-width="0.4"/>
<path d="M54 6.5V5H53.3C53.1343 5 53 5.13431 53 5.3V5.5V6V6.2C53 6.36569 53.1343 6.5 53.3 6.5H54Z" fill="#3355AA" fill-opacity="0.72"/>
<path d="M53 5.5V5.3C53 5.13431 53.1343 5 53.3 5H54V6.5H53.3C53.1343 6.5 53 6.36569 53 6.2V6M53 5.5H52M53 5.5V6M53 6H52" stroke="#3355AA" stroke-width="0.3"/>
<path d="M54 19.5V18H53.3C53.1343 18 53 18.1343 53 18.3V18.5V19V19.2C53 19.3657 53.1343 19.5 53.3 19.5H54Z" fill="#3355AA" fill-opacity="0.72"/>
<path d="M53 18.5V18.3C53 18.1343 53.1343 18 53.3 18H54V19.5H53.3C53.1343 19.5 53 19.3657 53 19.2V19M53 18.5H52M53 18.5V19M53 19H52" stroke="#3355AA" stroke-width="0.3"/>
</g>
<defs>
<clipPath id="clip0_93_5">
<rect width="100" height="24" fill="white"/>
</clipPath>
</defs>
</svg>
