<svg width="24" height="24" viewBox="0 0 24 24" fill="none" xmlns="http://www.w3.org/2000/svg">
<path d="M22.5111 6C22.5111 5.44772 22.0634 5 21.5111 5H11.0384C7.11106 5 2.86849 6.34362 1.42965 9.99791C1.16602 10.6675 1 11.348 1 12C1 12.652 1.16602 13.3325 1.42965 14.0021C2.86849 17.6564 7.11106 19 11.0384 19H21.5111C22.0634 19 22.5111 18.5523 22.5111 18V17.6667C22.5111 17.1144 22.0634 16.6667 21.5111 16.6667H20.5556H9.83316C9.16187 16.6667 8.49232 16.5887 7.86262 16.3561C6.31621 15.7849 3.44444 14.4009 3.44444 12C3.44444 9.59912 6.31621 8.21513 7.86262 7.64392C8.49232 7.41132 9.16187 7.33333 9.83316 7.33333H20.5556H21.5111C22.0634 7.33333 22.5111 6.88562 22.5111 6.33333V6Z" fill="#3355AA" fill-opacity="0.4"/>
<path d="M20.5556 12V7.33333H9.83316C9.16187 7.33333 8.49232 7.41132 7.86262 7.64392C6.31621 8.21513 3.44444 9.59912 3.44444 12C3.44444 14.4009 6.31621 15.7849 7.86262 16.3561C8.49232 16.5887 9.16187 16.6667 9.83316 16.6667H20.5556V12Z" fill="white" fill-opacity="0.4"/>
<path d="M20.5556 7.33333H21.5111C22.0634 7.33333 22.5111 6.88562 22.5111 6.33333V6C22.5111 5.44772 22.0634 5 21.5111 5H11.0384C7.11106 5 2.86849 6.34362 1.42965 9.99791C1.16602 10.6675 1 11.348 1 12C1 12.652 1.16602 13.3325 1.42965 14.0021C2.86849 17.6564 7.11106 19 11.0384 19H21.5111C22.0634 19 22.5111 18.5523 22.5111 18V17.6667C22.5111 17.1144 22.0634 16.6667 21.5111 16.6667H20.5556M20.5556 7.33333V12V16.6667M20.5556 7.33333H9.83316C9.16187 7.33333 8.49232 7.41132 7.86262 7.64392C6.31621 8.21513 3.44444 9.59912 3.44444 12C3.44444 14.4009 6.31621 15.7849 7.86262 16.3561C8.49232 16.5887 9.16187 16.6667 9.83316 16.6667H20.5556" stroke="#3355AA"/>
<path d="M20.5556 15H22.0001C22.5524 15 23.0001 14.5523 23.0001 14V14C23.0001 13.4477 22.5524 13 22.0001 13H21.7779H20.5556V15Z" fill="#3355AA" fill-opacity="0.4"/>
<path d="M22.0001 9C22.5524 9 23.0001 9.44772 23.0001 10V10C23.0001 10.5523 22.5524 11 22.0001 11H20.5556V9H22.0001Z" fill="#3355AA" fill-opacity="0.4"/>
<path d="M17.1334 11C16.8634 11 16.6445 11.2189 16.6445 11.4889V12.5111C16.6445 12.7811 16.8634 13 17.1334 13V13C17.4034 13 17.6223 12.7811 17.6223 12.5111V11.4889C17.6223 11.2189 17.4034 11 17.1334 11V11Z" fill="#3355AA" fill-opacity="0.4"/>
<path d="M16.1556 9.5L15.8138 9.84956C15.7198 9.94577 15.5909 10 15.4563 10H15.189C14.9128 10 14.689 10.2239 14.689 10.5V12M16.1556 14.5L15.8138 14.1504C15.7198 14.0542 15.5909 14 15.4563 14H15.189C14.9128 14 14.689 13.7761 14.689 13.5V12M14.689 12H15.6667V11V13M20.5556 9V11H22.0001C22.5524 11 23.0001 10.5523 23.0001 10V10C23.0001 9.44772 22.5524 9 22.0001 9H20.5556ZM20.5556 15H22.0001C22.5524 15 23.0001 14.5523 23.0001 14V14C23.0001 13.4477 22.5524 13 22.0001 13H21.7779H20.5556V15ZM17.6223 11.4889V12.5111C17.6223 12.7811 17.4034 13 17.1334 13V13C16.8634 13 16.6445 12.7811 16.6445 12.5111V11.4889C16.6445 11.2189 16.8634 11 17.1334 11V11C17.4034 11 17.6223 11.2189 17.6223 11.4889Z" stroke="#3355AA" stroke-width="0.5"/>
<path d="M11.5056 12C11.5056 12.9718 10.7367 13.75 9.80004 13.75C8.86335 13.75 8.09448 12.9718 8.09448 12C8.09448 11.0282 8.86335 10.25 9.80004 10.25C10.7367 10.25 11.5056 11.0282 11.5056 12Z" stroke="#3355AA" stroke-width="0.5"/>
<path d="M10.2777 11C10.5538 11 10.7777 11.2239 10.7777 11.5V12.5C10.7777 12.7761 10.5538 13 10.2777 13H9.79991L8.82213 12.5V12V11.5L9.79991 11H10.2777Z" fill="#D9D9D9"/>
<path d="M8.82213 12V12.5L9.79991 13H10.2777C10.5538 13 10.7777 12.7761 10.7777 12.5V11.5C10.7777 11.2239 10.5538 11 10.2777 11H9.79991L8.82213 11.5V12ZM8.82213 12H6.37769" stroke="#3355AA" stroke-width="0.5"/>
</svg>
