<svg width="74" height="24" viewBox="0 0 74 24" fill="none" xmlns="http://www.w3.org/2000/svg">
<path d="M10 6.47151C6.6973 7.74256 3.28953 9.98583 1.59501 11.1768C1.04425 11.5639 1.0572 12.3621 1.61666 12.7365C3.35793 13.9019 6.84788 16.1278 10 17.4715C13.6371 19.0219 15.684 19.4371 19.5 20.4715C25.2039 22.0177 34.5 22.9715 34.5 22.9715C34.5 22.9715 47.8046 23.5066 57.5 23.0777C57.838 23.0628 58.1715 23.0466 58.5 23.0293L56.5 19.9715V3.97151C56.5 3.97151 57.719 2.27429 58.5 1.18679C58.1622 1.17135 57.8379 1.15771 57.5 1.14472C47.8012 0.771976 34.5 1.23696 34.5 1.23696C34.5 1.23696 25.2481 2.04491 19.5 3.47151C15.724 4.40867 13.631 5.07413 10 6.47151Z" fill="#3355AA" fill-opacity="0.4"/>
<path d="M56.5 3.97151V19.9715L58.5 23.0293C58.5 23.0293 58.5 9.71681 58.5 1.18679C57.719 2.27429 56.5 3.97151 56.5 3.97151Z" fill="#3355AA" fill-opacity="0.4"/>
<path d="M59.5 22.9715C62.6136 22.7754 67.5005 22.3399 69.9669 22.1138C70.8715 22.0309 71.6021 21.3469 71.7312 20.4478C72.0266 18.3906 72.5 14.672 72.5 11.9715C72.5 9.27506 72.028 5.56349 71.7325 3.50446C71.6029 2.60104 70.8656 1.91517 69.956 1.83921C68.5718 1.72361 66.5294 1.56071 65 1.47151C62.8538 1.34634 61.6495 1.35452 59.5 1.23696C59.1726 1.21906 58.8275 1.20174 58.5 1.18679V23.0293C58.839 23.0114 59.1726 22.9921 59.5 22.9715Z" fill="white"/>
<path d="M58.5 1.18679C58.1622 1.17135 57.8379 1.15771 57.5 1.14472C47.8012 0.771976 34.5 1.23696 34.5 1.23696C34.5 1.23696 25.2481 2.04491 19.5 3.47151C15.724 4.40867 13.631 5.07413 10 6.47151C6.6973 7.74256 3.28953 9.98583 1.59501 11.1768C1.04425 11.5639 1.0572 12.3621 1.61666 12.7365C3.35793 13.9019 6.84788 16.1278 10 17.4715C13.6371 19.0219 15.684 19.4371 19.5 20.4715C25.2039 22.0177 34.5 22.9715 34.5 22.9715C34.5 22.9715 47.8046 23.5066 57.5 23.0777C57.838 23.0628 58.1715 23.0466 58.5 23.0293M58.5 1.18679C58.8275 1.20174 59.1726 1.21906 59.5 1.23696C61.6495 1.35452 62.8538 1.34634 65 1.47151C66.5294 1.56071 68.5718 1.72361 69.956 1.83921C70.8656 1.91517 71.6029 2.60104 71.7325 3.50446C72.028 5.56349 72.5 9.27506 72.5 11.9715C72.5 14.672 72.0266 18.3906 71.7312 20.4478C71.6021 21.3469 70.8715 22.0309 69.9669 22.1138C67.5005 22.3399 62.6136 22.7754 59.5 22.9715C59.1726 22.9921 58.839 23.0114 58.5 23.0293M58.5 1.18679C57.719 2.27429 56.5 3.97151 56.5 3.97151V19.9715L58.5 23.0293M58.5 1.18679C58.5 9.71681 58.5 23.0293 58.5 23.0293M58.5 1.18679V23.0293" stroke="#3355AA"/>
<path fill-rule="evenodd" clip-rule="evenodd" d="M4.38392 11.0927C7.55377 9.64028 12.9323 7.03633 18.75 5.47151C23.6289 4.1592 28.1393 3.65743 31.5 3.27788L28.5 6.97151V16.9715L30.5 20.5489C27.1227 20.145 22.2859 19.4521 18.75 18.4715C14.066 17.1725 7.55377 14.3027 4.38392 12.8503C3.62117 12.5008 3.62117 11.4422 4.38392 11.0927ZM38.5 20.9715H34.5L31.5 16.9715V6.97151L34.5 2.97151H38.5V20.9715ZM44.5 3.97151L40.5 6.97151V16.9715L44.5 19.9715H56.5V3.97151H44.5ZM49 7.97151H44.5L42.5 9.97151V13.9715L44.5 15.9715H49V7.97151ZM44.5 10.9715V12.9715L45.5 13.9715H47.5V9.97151H45.5L44.5 10.9715Z" fill="white"/>
<path d="M34.5 2.97151L31.5 6.97151M34.5 2.97151C34.5 2.97151 36.9379 2.97151 38.5 2.97151M34.5 2.97151C34.5 2.97151 33.3075 3.07374 31.5 3.27788M34.5 2.97151H38.5M34.5 20.9715L31.5 16.9715M34.5 20.9715C34.5 20.9715 36.9379 20.9715 38.5 20.9715M34.5 20.9715C34.5 20.9715 32.8548 20.8305 30.5 20.5489M34.5 20.9715H38.5M31.5 6.97151V16.9715M31.5 6.97151H28.5M31.5 16.9715H28.5M38.5 2.97151C39.281 4.53361 40.5 6.97151 40.5 6.97151M38.5 2.97151C40.8431 3.36204 44.5 3.97151 44.5 3.97151M38.5 2.97151V20.9715M38.5 2.97151L44.5 3.97151M38.5 2.97151L40.5 6.97151M38.5 20.9715C39.281 19.4094 40.5 16.9715 40.5 16.9715M38.5 20.9715C40.8431 20.581 44.5 19.9715 44.5 19.9715M38.5 20.9715L44.5 19.9715M38.5 20.9715L40.5 16.9715M40.5 16.9715V6.97151M40.5 16.9715L44.5 19.9715M40.5 6.97151L44.5 3.97151M44.5 3.97151H56.5V19.9715H44.5M44.5 3.97151V7.97151M44.5 19.9715V15.9715M31.5 3.27788C28.1393 3.65743 23.6289 4.1592 18.75 5.47151C12.9323 7.03633 7.55377 9.64028 4.38392 11.0927M31.5 3.27788L28.5 6.97151M28.5 6.97151V16.9715M28.5 16.9715L30.5 20.5489M30.5 20.5489C27.1227 20.145 22.2859 19.4521 18.75 18.4715C14.066 17.1725 7.55377 14.3027 4.38392 12.8503M4.38392 11.0927C3.62117 11.4422 3.62117 12.5008 4.38392 12.8503M4.38392 11.0927V11.0927C3.62289 11.4415 3.62289 12.5016 4.38392 12.8503V12.8503M44.5 7.97151H49M44.5 7.97151L42.5 9.97151M44.5 7.97151L45.5 9.97151M44.5 15.9715H49M44.5 15.9715L42.5 13.9715M44.5 15.9715L45.5 13.9715M49 15.9715V7.97151M49 15.9715L47.5 13.9715M49 7.97151L47.5 9.97151M42.5 9.97151V13.9715M42.5 9.97151L44.5 10.9715M42.5 13.9715L44.5 12.9715M47.5 9.97151V13.9715M47.5 9.97151H45.5M47.5 13.9715H45.5M45.5 13.9715L44.5 12.9715M44.5 12.9715V10.9715M44.5 10.9715L45.5 9.97151" stroke="#3355AA"/>
<path d="M33.5 11.9715V13.1715V14.9715M33.5 11.9715V9.57151V8.97151M33.5 11.9715H36.5M36.5 11.9715V9.57151V8.97151M36.5 11.9715V13.1715V14.9715M33.5 8.97151V6.47151C33.5 6.19537 33.7239 5.97151 34 5.97151H35H36C36.2761 5.97151 36.5 6.19537 36.5 6.47151V8.97151M33.5 8.97151H36.5M33.5 14.9715V17.4715C33.5 17.7477 33.7239 17.9715 34 17.9715H35H36C36.2761 17.9715 36.5 17.7477 36.5 17.4715V14.9715M33.5 14.9715H36.5" stroke="#3355AA" stroke-width="0.5"/>
<circle cx="35" cy="10.4715" r="0.5" fill="#3355AA"/>
<circle cx="35" cy="7.47151" r="0.5" fill="#3355AA"/>
<circle cx="35" cy="13.4715" r="0.5" fill="#3355AA"/>
<circle cx="35" cy="16.4715" r="0.5" fill="#3355AA"/>
<circle cx="15.5" cy="11.9715" r="3.75" stroke="#3355AA" stroke-width="0.5"/>
<path d="M15.5 11.9715H8" stroke="#3355AA"/>
<path d="M13.5 13.6625C13.5 13.8519 13.607 14.025 13.7764 14.1097L14.3944 14.4187C14.4639 14.4534 14.5404 14.4715 14.618 14.4715H17V9.47151H14.618C14.5404 9.47151 14.4639 9.48958 14.3944 9.5243L13.7764 9.83332C13.607 9.91801 13.5 10.0911 13.5 10.2805V10.9715H15C15.2761 10.9715 15.5 11.1954 15.5 11.4715V12.4715C15.5 12.7477 15.2761 12.9715 15 12.9715H13.5V13.6625Z" fill="#3355AA" fill-opacity="0.4"/>
<path d="M13.5 10.9715V10.2805C13.5 10.0911 13.607 9.91801 13.7764 9.83332L14.3944 9.5243C14.4639 9.48958 14.5404 9.47151 14.618 9.47151H17V14.4715H14.618C14.5404 14.4715 14.4639 14.4534 14.3944 14.4187L13.7764 14.1097C13.607 14.025 13.5 13.8519 13.5 13.6625V12.9715M13.5 10.9715H15C15.2761 10.9715 15.5 11.1954 15.5 11.4715V12.4715C15.5 12.7477 15.2761 12.9715 15 12.9715H13.5M13.5 10.9715V12.9715" stroke="#3355AA" stroke-width="0.5"/>
<circle cx="22" cy="7.47151" r="0.5" fill="#3355AA"/>
<circle cx="22" cy="10.4715" r="0.5" fill="#3355AA"/>
<circle cx="25" cy="7.47151" r="0.5" fill="#3355AA"/>
<circle cx="25" cy="10.4715" r="0.5" fill="#3355AA"/>
<circle cx="25" cy="13.4715" r="0.5" fill="#3355AA"/>
<circle cx="22" cy="13.4715" r="0.5" fill="#3355AA"/>
<circle cx="22" cy="16.4715" r="0.5" fill="#3355AA"/>
<circle cx="25" cy="16.4715" r="0.5" fill="#3355AA"/>
<path d="M20.5 8.97151V6.47151C20.5 6.19537 20.7239 5.97151 21 5.97151H23.5M20.5 8.97151H26.5M20.5 8.97151V11.9715M26.5 8.97151V6.47151C26.5 6.19537 26.2761 5.97151 26 5.97151H23.5M26.5 8.97151V11.9715M26.5 11.9715H20.5M26.5 11.9715V14.9715M20.5 11.9715V14.9715M20.5 14.9715V17.4715C20.5 17.7477 20.7239 17.9715 21 17.9715H23.5M20.5 14.9715H26.5M26.5 14.9715V17.4715C26.5 17.7477 26.2761 17.9715 26 17.9715H23.5M23.5 5.97151V17.9715" stroke="#3355AA" stroke-width="0.5"/>
<circle cx="53" cy="8.47151" r="2.25" stroke="#3355AA" stroke-width="0.5"/>
<circle cx="53" cy="15.4715" r="2.25" stroke="#3355AA" stroke-width="0.5"/>
<circle cx="65.5" cy="11.9715" r="4.75" stroke="#3355AA" stroke-width="0.5"/>
<path d="M64 9.47151V11.9715M64 14.4715V11.9715M67 9.47151V11.9715M67 14.4715V11.9715M67 11.9715H64" stroke="#3355AA" stroke-width="0.5"/>
</svg>
